mtllib Prop_Pipe_Straight.mtl
o Hidden
g Hidden
v -0.00000000 0.50000000 -0.35000000
v -0.00000000 0.50000000 0.35000000
v -0.00000000 0.50000000 0.45000000
v -0.00000000 0.50000000 -0.45000000
v 0.13393888 0.50000000 -0.32335797
v 0.24748737 0.50000000 -0.24748737
v 0.32335797 0.50000000 -0.13393888
v 0.35000000 0.50000000 -0.00000000
v 0.32335797 0.50000000 0.13393888
v 0.24748737 0.50000000 0.24748737
v 0.13393888 0.50000000 0.32335797
v 0.17220713 0.50000000 0.41574596
v 0.31819805 0.50000000 0.31819805
v 0.41574596 0.50000000 0.17220713
v 0.45000000 0.50000000 -0.00000000
v 0.41574596 0.50000000 -0.17220713
v 0.31819805 0.50000000 -0.31819805
v 0.17220713 0.50000000 -0.41574596
v -0.13393888 0.50000000 0.32335797
v -0.24748737 0.50000000 0.24748737
v -0.32335797 0.50000000 0.13393888
v -0.35000000 0.50000000 -0.00000000
v -0.32335797 0.50000000 -0.13393888
v -0.24748737 0.50000000 -0.24748737
v -0.13393888 0.50000000 -0.32335797
v -0.17220713 0.50000000 -0.41574596
v -0.31819805 0.50000000 -0.31819805
v -0.41574596 0.50000000 -0.17220713
v -0.45000000 0.50000000 -0.00000000
v -0.41574596 0.50000000 0.17220713
v -0.31819805 0.50000000 0.31819805
v -0.17220713 0.50000000 0.41574596
vt 0.50000000 0.11111111
vt 0.50000000 0.88888889
vt 0.50000000 1.00000000
vt 0.50000000 0.00000000
vt 0.35118028 0.14071328
vt 0.22501403 0.22501403
vt 0.14071328 0.35118028
vt 0.11111111 0.50000000
vt 0.14071328 0.64881972
vt 0.22501403 0.77498597
vt 0.35118028 0.85928672
vt 0.30866036 0.96194006
vt 0.14644661 0.85355339
vt 0.03805994 0.69133964
vt 0.00000000 0.50000000
vt 0.03805994 0.30866036
vt 0.14644661 0.14644661
vt 0.30866036 0.03805994
vt 0.64881972 0.85928672
vt 0.77498597 0.77498597
vt 0.85928672 0.64881972
vt 0.88888889 0.50000000
vt 0.85928672 0.35118028
vt 0.77498597 0.22501403
vt 0.64881972 0.14071328
vt 0.69133964 0.03805994
vt 0.85355339 0.14644661
vt 0.96194006 0.30866036
vt 1.00000000 0.50000000
vt 0.96194006 0.69133964
vt 0.85355339 0.85355339
vt 0.69133964 0.96194006
vn 0.00000000 1.00000000 0.00000000
vn 0.00000000 1.00000000 0.00000000
vn 0.00000000 1.00000000 0.00000000
vn 0.00000000 1.00000000 0.00000000
vn 0.00000000 1.00000000 0.00000000
vn 0.00000000 1.00000000 0.00000000
vn 0.00000000 1.00000000 0.00000000
vn 0.00000000 1.00000000 0.00000000
vn 0.00000000 1.00000000 0.00000000
vn 0.00000000 1.00000000 0.00000000
vn 0.00000000 1.00000000 0.00000000
vn 0.00000000 1.00000000 0.00000000
vn 0.00000000 1.00000000 0.00000000
vn 0.00000000 1.00000000 0.00000000
vn 0.00000000 1.00000000 0.00000000
vn 0.00000000 1.00000000 0.00000000
vn 0.00000000 1.00000000 0.00000000
vn 0.00000000 1.00000000 0.00000000
vn 0.00000000 1.00000000 0.00000000
vn 0.00000000 1.00000000 0.00000000
vn 0.00000000 1.00000000 0.00000000
vn 0.00000000 1.00000000 0.00000000
vn 0.00000000 1.00000000 0.00000000
vn 0.00000000 1.00000000 0.00000000
vn 0.00000000 1.00000000 0.00000000
vn 0.00000000 1.00000000 0.00000000
vn 0.00000000 1.00000000 0.00000000
vn 0.00000000 1.00000000 0.00000000
vn 0.00000000 1.00000000 0.00000000
vn 0.00000000 1.00000000 0.00000000
vn 0.00000000 1.00000000 0.00000000
vn 0.00000000 1.00000000 0.00000000
s 1
usemtl Hidden
f 4/4/4 1/1/1 5/5/5
f 18/18/18 5/5/5 6/6/6
f 6/6/6 16/16/16 17/17/17
f 7/7/7 15/15/15 16/16/16
f 8/8/8 14/14/14 15/15/15
f 9/9/9 13/13/13 14/14/14
f 10/10/10 12/12/12 13/13/13
f 11/11/11 3/3/3 12/12/12
f 32/32/32 3/3/3 19/19/19
f 31/31/31 32/32/32 20/20/20
f 20/20/20 21/21/21 30/30/30
f 21/21/21 29/29/29 30/30/30
f 22/22/22 28/28/28 29/29/29
f 23/23/23 27/27/27 28/28/28
f 24/24/24 26/26/26 27/27/27
f 24/24/24 25/25/25 26/26/26
f 23/23/23 24/24/24 27/27/27
f 22/22/22 23/23/23 28/28/28
f 21/21/21 22/22/22 29/29/29
f 20/20/20 30/30/30 31/31/31
f 32/32/32 19/19/19 20/20/20
f 3/3/3 2/2/2 19/19/19
f 11/11/11 2/2/2 3/3/3
f 10/10/10 11/11/11 12/12/12
f 9/9/9 10/10/10 13/13/13
f 8/8/8 9/9/9 14/14/14
f 7/7/7 8/8/8 15/15/15
f 6/6/6 7/7/7 16/16/16
f 17/17/17 18/18/18 6/6/6
f 25/25/25 4/4/4 26/26/26
f 25/25/25 1/1/1 4/4/4
f 18/18/18 4/4/4 5/5/5
v -0.00000000 -0.50000000 -0.35000000
v -0.00000000 -0.50000000 0.35000000
v -0.00000000 -0.50000000 0.45000000
v -0.00000000 -0.50000000 -0.45000000
v 0.17220713 -0.50000000 -0.41574596
v 0.31819805 -0.50000000 -0.31819805
v 0.41574596 -0.50000000 -0.17220713
v 0.45000000 -0.50000000 -0.00000000
v 0.41574596 -0.50000000 0.17220713
v 0.31819805 -0.50000000 0.31819805
v 0.17220713 -0.50000000 0.41574596
v 0.13393888 -0.50000000 0.32335797
v 0.24748737 -0.50000000 0.24748737
v 0.32335797 -0.50000000 0.13393888
v 0.35000000 -0.50000000 -0.00000000
v 0.32335797 -0.50000000 -0.13393888
v 0.24748737 -0.50000000 -0.24748737
v 0.13393888 -0.50000000 -0.32335797
v -0.17220713 -0.50000000 0.41574596
v -0.31819805 -0.50000000 0.31819805
v -0.41574596 -0.50000000 0.17220713
v -0.45000000 -0.50000000 -0.00000000
v -0.41574596 -0.50000000 -0.17220713
v -0.31819805 -0.50000000 -0.31819805
v -0.17220713 -0.50000000 -0.41574596
v -0.13393888 -0.50000000 -0.32335797
v -0.24748737 -0.50000000 -0.24748737
v -0.32335797 -0.50000000 -0.13393888
v -0.35000000 -0.50000000 -0.00000000
v -0.32335797 -0.50000000 0.13393888
v -0.24748737 -0.50000000 0.24748737
v -0.13393888 -0.50000000 0.32335797
vt 0.50000000 0.11111111
vt 0.50000000 0.88888889
vt 0.50000000 1.00000000
vt 0.50000000 0.00000000
vt 0.30866014 0.03805946
vt 0.14644661 0.14644661
vt 0.03805946 0.30866014
vt 0.00000000 0.50000000
vt 0.03805946 0.69133986
vt 0.14644661 0.85355339
vt 0.30866014 0.96194054
vt 0.35118011 0.85928708
vt 0.22501403 0.77498597
vt 0.14071292 0.64881989
vt 0.11111111 0.50000000
vt 0.14071292 0.35118011
vt 0.22501403 0.22501403
vt 0.35118011 0.14071292
vt 0.69133986 0.96194054
vt 0.85355339 0.85355339
vt 0.96194054 0.69133986
vt 1.00000000 0.50000000
vt 0.96194054 0.30866014
vt 0.85355339 0.14644661
vt 0.69133986 0.03805946
vt 0.64881989 0.14071292
vt 0.77498597 0.22501403
vt 0.85928708 0.35118011
vt 0.88888889 0.50000000
vt 0.85928708 0.64881989
vt 0.77498597 0.77498597
vt 0.64881989 0.85928708
vn 0.00000000 -1.00000000 0.00000000
vn 0.00000000 -1.00000000 0.00000000
vn 0.00000000 -1.00000000 0.00000000
vn 0.00000000 -1.00000000 0.00000000
vn 0.00000000 -1.00000000 0.00000000
vn 0.00000000 -1.00000000 0.00000000
vn 0.00000000 -1.00000000 0.00000000
vn 0.00000000 -1.00000000 0.00000000
vn 0.00000000 -1.00000000 0.00000000
vn 0.00000000 -1.00000000 0.00000000
vn 0.00000000 -1.00000000 0.00000000
vn 0.00000000 -1.00000000 0.00000000
vn 0.00000000 -1.00000000 0.00000000
vn 0.00000000 -1.00000000 0.00000000
vn 0.00000000 -1.00000000 0.00000000
vn 0.00000000 -1.00000000 0.00000000
vn 0.00000000 -1.00000000 0.00000000
vn 0.00000000 -1.00000000 0.00000000
vn 0.00000000 -1.00000000 0.00000000
vn 0.00000000 -1.00000000 0.00000000
vn 0.00000000 -1.00000000 0.00000000
vn 0.00000000 -1.00000000 0.00000000
vn 0.00000000 -1.00000000 0.00000000
vn 0.00000000 -1.00000000 0.00000000
vn 0.00000000 -1.00000000 0.00000000
vn 0.00000000 -1.00000000 0.00000000
vn 0.00000000 -1.00000000 0.00000000
vn 0.00000000 -1.00000000 0.00000000
vn 0.00000000 -1.00000000 0.00000000
vn 0.00000000 -1.00000000 0.00000000
vn 0.00000000 -1.00000000 0.00000000
vn 0.00000000 -1.00000000 0.00000000
s 1
usemtl Hidden
f 50/50/50 33/33/33 36/36/36
f 57/57/57 36/36/36 58/58/58
f 56/56/56 57/57/57 59/59/59
f 55/55/55 56/56/56 60/60/60
f 54/54/54 55/55/55 61/61/61
f 53/53/53 54/54/54 62/62/62
f 52/52/52 53/53/53 63/63/63
f 63/63/63 64/64/64 51/51/51
f 64/64/64 35/35/35 51/51/51
f 43/43/43 35/35/35 44/44/44
f 42/42/42 43/43/43 45/45/45
f 41/41/41 42/42/42 46/46/46
f 40/40/40 41/41/41 47/47/47
f 39/39/39 40/40/40 48/48/48
f 38/38/38 39/39/39 49/49/49
f 49/49/49 37/37/37 38/38/38
f 39/39/39 48/48/48 49/49/49
f 40/40/40 47/47/47 48/48/48
f 41/41/41 46/46/46 47/47/47
f 42/42/42 45/45/45 46/46/46
f 43/43/43 44/44/44 45/45/45
f 35/35/35 34/34/34 44/44/44
f 64/64/64 34/34/34 35/35/35
f 63/63/63 51/51/51 52/52/52
f 53/53/53 62/62/62 63/63/63
f 54/54/54 61/61/61 62/62/62
f 55/55/55 60/60/60 61/61/61
f 56/56/56 59/59/59 60/60/60
f 57/57/57 58/58/58 59/59/59
f 36/36/36 33/33/33 58/58/58
f 49/49/49 50/50/50 37/37/37
f 50/50/50 36/36/36 37/37/37
o object1
g object1
v -0.13393984 0.50000000 -0.32335757
v -0.00000000 0.50000000 -0.35000000
v -0.00000000 -0.50000000 -0.35000000
v -0.13393984 -0.50000000 -0.32335757
v -0.24748737 0.50000000 -0.24748737
v -0.24748737 -0.50000000 -0.24748737
v -0.32335757 0.50000000 -0.13393984
v -0.32335757 -0.50000000 -0.13393984
v -0.35000000 0.50000000 -0.00000000
v -0.35000000 -0.50000000 -0.00000000
v -0.32335757 0.50000000 0.13393984
v -0.32335757 -0.50000000 0.13393984
v -0.24748737 0.50000000 0.24748737
v -0.24748737 -0.50000000 0.24748737
v -0.13393984 0.50000000 0.32335757
v -0.13393984 -0.50000000 0.32335757
v -0.00000000 0.50000000 0.35000000
v -0.00000000 -0.50000000 0.35000000
v 0.13393984 0.50000000 0.32335757
v 0.13393984 -0.50000000 0.32335757
v 0.24748737 0.50000000 0.24748737
v 0.24748737 -0.50000000 0.24748737
v 0.32335757 0.50000000 0.13393984
v 0.32335757 -0.50000000 0.13393984
v 0.35000000 0.50000000 -0.00000000
v 0.35000000 -0.50000000 -0.00000000
v 0.32335757 0.50000000 -0.13393984
v 0.32335757 -0.50000000 -0.13393984
v 0.24748737 0.50000000 -0.24748737
v 0.24748737 -0.50000000 -0.24748737
v 0.13393984 0.50000000 -0.32335757
v 0.13393984 -0.50000000 -0.32335757
vt 0.00000000 0.06497272
vt 0.00000000 0.00000000
vt 1.00000000 0.00000000
vt 1.00000000 0.06497272
vt 0.00000000 0.12500000
vt 1.00000000 0.12500000
vt 0.00000000 0.18502728
vt 1.00000000 0.18502728
vt 0.00000000 0.25000000
vt 1.00000000 0.25000000
vt 0.00000000 0.31497272
vt 1.00000000 0.31497272
vt 0.00000000 0.37500000
vt 1.00000000 0.37500000
vt 0.00000000 0.43502728
vt 1.00000000 0.43502728
vt 0.00000000 0.50000000
vt 1.00000000 0.50000000
vt 0.00000000 0.56497272
vt 1.00000000 0.56497272
vt 0.00000000 0.62500000
vt 1.00000000 0.62500000
vt 0.00000000 0.68502728
vt 1.00000000 0.68502728
vt 0.00000000 0.75000000
vt 1.00000000 0.75000000
vt 0.00000000 0.81497272
vt 1.00000000 0.81497272
vt 0.00000000 0.87500000
vt 1.00000000 0.87500000
vt 0.00000000 0.93502728
vt 1.00000000 0.93502728
vt 1.00000000 1.00000000
vt 0.00000000 1.00000000
vn 0.38268250 0.00000000 0.92387992
vn -0.00000000 0.00000000 1.00000000
vn -0.00000000 0.00000000 1.00000000
vn 0.38268250 0.00000000 0.92387992
vn 0.70710678 0.00000000 0.70710678
vn 0.70710678 0.00000000 0.70710678
vn 0.92387992 0.00000000 0.38268250
vn 0.92387992 0.00000000 0.38268250
vn 1.00000000 0.00000000 0.00000000
vn 1.00000000 0.00000000 0.00000000
vn 0.92387992 0.00000000 -0.38268250
vn 0.92387992 0.00000000 -0.38268250
vn 0.70710678 0.00000000 -0.70710678
vn 0.70710678 0.00000000 -0.70710678
vn 0.38268250 0.00000000 -0.92387992
vn 0.38268250 0.00000000 -0.92387992
vn -0.00000000 0.00000000 -1.00000000
vn -0.00000000 0.00000000 -1.00000000
vn -0.38268250 0.00000000 -0.92387992
vn -0.38268250 0.00000000 -0.92387992
vn -0.70710678 0.00000000 -0.70710678
vn -0.70710678 0.00000000 -0.70710678
vn -0.92387992 0.00000000 -0.38268250
vn -0.92387992 0.00000000 -0.38268250
vn -1.00000000 0.00000000 0.00000000
vn -1.00000000 0.00000000 0.00000000
vn -0.92387992 0.00000000 0.38268250
vn -0.92387992 0.00000000 0.38268250
vn -0.70710678 0.00000000 0.70710678
vn -0.70710678 0.00000000 0.70710678
vn -0.38268250 0.00000000 0.92387992
vn -0.38268250 0.00000000 0.92387992
s 1
usemtl Pipe
f 68/68/68 67/67/67 65/65/65
f 66/98/66 67/97/67 96/96/96
f 96/96/96 94/94/94 95/95/95
f 94/94/94 93/93/93 95/95/95
f 92/92/92 91/91/91 93/93/93
f 90/90/90 89/89/89 91/91/91
f 88/88/88 87/87/87 89/89/89
f 86/86/86 85/85/85 87/87/87
f 84/84/84 83/83/83 85/85/85
f 82/82/82 81/81/81 83/83/83
f 80/80/80 79/79/79 81/81/81
f 78/78/78 77/77/77 79/79/79
f 76/76/76 75/75/75 77/77/77
f 74/74/74 73/73/73 75/75/75
f 72/72/72 71/71/71 73/73/73
f 70/70/70 69/69/69 71/71/71
f 72/72/72 70/70/70 71/71/71
f 74/74/74 72/72/72 73/73/73
f 76/76/76 74/74/74 75/75/75
f 78/78/78 76/76/76 77/77/77
f 80/80/80 78/78/78 79/79/79
f 82/82/82 80/80/80 81/81/81
f 84/84/84 82/82/82 83/83/83
f 86/86/86 84/84/84 85/85/85
f 88/88/88 86/86/86 87/87/87
f 90/90/90 88/88/88 89/89/89
f 92/92/92 90/90/90 91/91/91
f 94/94/94 92/92/92 93/93/93
f 95/95/95 66/98/66 96/96/96
f 67/67/67 66/66/66 65/65/65
f 68/68/68 65/65/65 69/69/69
f 70/70/70 68/68/68 69/69/69
o Pipe
g Pipe
v -0.17220837 0.50000000 -0.41574545
v -0.00000000 0.50000000 -0.45000000
v -0.00000000 -0.50000000 -0.45000000
v -0.17220837 -0.50000000 -0.41574545
v -0.31819805 0.50000000 -0.31819805
v -0.31819805 -0.50000000 -0.31819805
v -0.41574545 0.50000000 -0.17220837
v -0.41574545 -0.50000000 -0.17220837
v -0.45000000 0.50000000 -0.00000000
v -0.45000000 -0.50000000 -0.00000000
v -0.41574545 0.50000000 0.17220837
v -0.41574545 -0.50000000 0.17220837
v -0.31819805 0.50000000 0.31819805
v -0.31819805 -0.50000000 0.31819805
v -0.17220837 0.50000000 0.41574545
v -0.17220837 -0.50000000 0.41574545
v -0.00000000 0.50000000 0.45000000
v -0.00000000 -0.50000000 0.45000000
v 0.17220837 0.50000000 0.41574545
v 0.17220837 -0.50000000 0.41574545
v 0.31819805 0.50000000 0.31819805
v 0.31819805 -0.50000000 0.31819805
v 0.41574545 0.50000000 0.17220837
v 0.41574545 -0.50000000 0.17220837
v 0.45000000 0.50000000 -0.00000000
v 0.45000000 -0.50000000 -0.00000000
v 0.41574545 0.50000000 -0.17220837
v 0.41574545 -0.50000000 -0.17220837
v 0.31819805 0.50000000 -0.31819805
v 0.31819805 -0.50000000 -0.31819805
v 0.17220837 0.50000000 -0.41574545
v 0.17220837 -0.50000000 -0.41574545
vt 0.00000000 0.06497272
vt 0.00000000 0.00000000
vt 1.00000000 0.00000000
vt 1.00000000 0.06497272
vt 0.00000000 0.12500000
vt 1.00000000 0.12500000
vt 0.00000000 0.18502728
vt 1.00000000 0.18502728
vt 0.00000000 0.25000000
vt 1.00000000 0.25000000
vt 0.00000000 0.31497272
vt 1.00000000 0.31497272
vt 0.00000000 0.37500000
vt 1.00000000 0.37500000
vt 0.00000000 0.43502728
vt 1.00000000 0.43502728
vt 0.00000000 0.50000000
vt 1.00000000 0.50000000
vt 0.00000000 0.56497272
vt 1.00000000 0.56497272
vt 0.00000000 0.62500000
vt 1.00000000 0.62500000
vt 0.00000000 0.68502728
vt 1.00000000 0.68502728
vt 0.00000000 0.75000000
vt 1.00000000 0.75000000
vt 0.00000000 0.81497272
vt 1.00000000 0.81497272
vt 0.00000000 0.87500000
vt 1.00000000 0.87500000
vt 0.00000000 0.93502728
vt 1.00000000 0.93502728
vt 1.00000000 1.00000000
vt 0.00000000 1.00000000
vn -0.38268250 0.00000000 -0.92387992
vn 0.00000000 0.00000000 -1.00000000
vn 0.00000000 0.00000000 -1.00000000
vn -0.38268250 0.00000000 -0.92387992
vn -0.70710678 0.00000000 -0.70710678
vn -0.70710678 0.00000000 -0.70710678
vn -0.92387992 0.00000000 -0.38268250
vn -0.92387992 0.00000000 -0.38268250
vn -1.00000000 0.00000000 0.00000000
vn -1.00000000 0.00000000 0.00000000
vn -0.92387992 0.00000000 0.38268250
vn -0.92387992 0.00000000 0.38268250
vn -0.70710678 0.00000000 0.70710678
vn -0.70710678 0.00000000 0.70710678
vn -0.38268250 0.00000000 0.92387992
vn -0.38268250 0.00000000 0.92387992
vn 0.00000000 0.00000000 1.00000000
vn 0.00000000 0.00000000 1.00000000
vn 0.38268250 0.00000000 0.92387992
vn 0.38268250 0.00000000 0.92387992
vn 0.70710678 0.00000000 0.70710678
vn 0.70710678 0.00000000 0.70710678
vn 0.92387992 0.00000000 0.38268250
vn 0.92387992 0.00000000 0.38268250
vn 1.00000000 0.00000000 -0.00000000
vn 1.00000000 0.00000000 -0.00000000
vn 0.92387992 0.00000000 -0.38268250
vn 0.92387992 0.00000000 -0.38268250
vn 0.70710678 0.00000000 -0.70710678
vn 0.70710678 0.00000000 -0.70710678
vn 0.38268250 0.00000000 -0.92387992
vn 0.38268250 0.00000000 -0.92387992
s 1
usemtl Pipe
f 97/99/97 98/100/98 100/102/100
f 99/131/99 98/132/98 127/129/127
f 127/129/127 125/127/125 128/130/128
f 125/127/125 126/128/126 128/130/128
f 123/125/123 124/126/124 126/128/126
f 121/123/121 122/124/122 124/126/124
f 119/121/119 120/122/120 122/124/122
f 117/119/117 118/120/118 120/122/120
f 115/117/115 116/118/116 118/120/118
f 113/115/113 114/116/114 116/118/116
f 111/113/111 112/114/112 114/116/114
f 109/111/109 110/112/110 112/114/112
f 107/109/107 108/110/108 110/112/110
f 105/107/105 106/108/106 108/110/108
f 103/105/103 104/106/104 106/108/106
f 101/103/101 102/104/102 104/106/104
f 103/105/103 101/103/101 104/106/104
f 105/107/105 103/105/103 106/108/106
f 107/109/107 105/107/105 108/110/108
f 109/111/109 107/109/107 110/112/110
f 111/113/111 109/111/109 112/114/112
f 113/115/113 111/113/111 114/116/114
f 115/117/115 113/115/113 116/118/116
f 117/119/117 115/117/115 118/120/118
f 119/121/119 117/119/117 120/122/120
f 121/123/121 119/121/119 122/124/122
f 123/125/123 121/123/121 124/126/124
f 125/127/125 123/125/123 126/128/126
f 128/130/128 99/131/99 127/129/127
f 98/100/98 99/101/99 100/102/100
f 97/99/97 100/102/100 102/104/102
f 101/103/101 97/99/97 102/104/102
