mtllib Prop_Daisy_Stem_2.mtl
o Hidden
g Hidden
v 0.00000000 4.00000000 -0.10000000
v -0.03826825 4.00000000 -0.09238799
v -0.07071068 4.00000000 -0.07071068
v -0.09238799 4.00000000 -0.03826825
v -0.10000000 4.00000000 -0.00000000
v -0.09238799 4.00000000 0.03826825
v -0.07071068 4.00000000 0.07071068
v -0.03826825 4.00000000 0.09238799
v 0.00000000 4.00000000 0.10000000
v 0.03826825 4.00000000 0.09238799
v 0.07071068 4.00000000 0.07071068
v 0.09238799 4.00000000 0.03826825
v 0.10000000 4.00000000 -0.00000000
v 0.09238799 4.00000000 -0.03826825
v 0.07071068 4.00000000 -0.07071068
v 0.03826825 4.00000000 -0.09238799
v 0.00000000 4.00000000 -0.00000000
vt 1.00000000 0.50000000
vt 0.96194054 0.69133986
vt 0.85355339 0.85355339
vt 0.69133986 0.96194054
vt 0.50000000 1.00000000
vt 0.30866014 0.96194054
vt 0.14644661 0.85355339
vt 0.03805946 0.69133986
vt 0.00000000 0.50000000
vt 0.03805946 0.30866014
vt 0.14644661 0.14644661
vt 0.30866014 0.03805946
vt 0.50000000 0.00000000
vt 0.69133986 0.03805946
vt 0.85355339 0.14644661
vt 0.96194054 0.30866014
vt 0.50000000 0.50000000
vn 0.00000000 1.00000000 0.00000000
vn 0.00000000 1.00000000 0.00000000
vn 0.00000000 1.00000000 0.00000000
vn 0.00000000 1.00000000 0.00000000
vn 0.00000000 1.00000000 0.00000000
vn 0.00000000 1.00000000 0.00000000
vn 0.00000000 1.00000000 0.00000000
vn 0.00000000 1.00000000 0.00000000
vn 0.00000000 1.00000000 0.00000000
vn 0.00000000 1.00000000 0.00000000
vn 0.00000000 1.00000000 0.00000000
vn 0.00000000 1.00000000 0.00000000
vn 0.00000000 1.00000000 0.00000000
vn 0.00000000 1.00000000 0.00000000
vn 0.00000000 1.00000000 0.00000000
vn 0.00000000 1.00000000 0.00000000
vn 0.00000000 1.00000000 0.00000000
s 1
usemtl Hidden
f 1/1/1 2/2/2 17/17/17
f 15/15/15 16/16/16 17/17/17
f 14/14/14 15/15/15 17/17/17
f 13/13/13 14/14/14 17/17/17
f 12/12/12 13/13/13 17/17/17
f 11/11/11 12/12/12 17/17/17
f 10/10/10 11/11/11 17/17/17
f 9/9/9 10/10/10 17/17/17
f 8/8/8 9/9/9 17/17/17
f 7/7/7 8/8/8 17/17/17
f 6/6/6 7/7/7 17/17/17
f 5/5/5 6/6/6 17/17/17
f 4/4/4 5/5/5 17/17/17
f 3/3/3 4/4/4 17/17/17
f 2/2/2 3/3/3 17/17/17
f 16/16/16 1/1/1 17/17/17
v 0.00000000 0.00000000 -0.10000000
v 0.03826825 0.00000000 -0.09238799
v 0.07071068 0.00000000 -0.07071068
v 0.09238799 0.00000000 -0.03826825
v 0.10000000 0.00000000 -0.00000000
v 0.09238799 0.00000000 0.03826825
v 0.07071068 0.00000000 0.07071068
v 0.03826825 0.00000000 0.09238799
v 0.00000000 0.00000000 0.10000000
v -0.03826825 0.00000000 0.09238799
v -0.07071068 0.00000000 0.07071068
v -0.09238799 0.00000000 0.03826825
v -0.10000000 0.00000000 -0.00000000
v -0.09238799 0.00000000 -0.03826825
v -0.07071068 0.00000000 -0.07071068
v -0.03826825 0.00000000 -0.09238799
v 0.00000000 0.00000000 -0.00000000
vt 1.00000000 0.50000000
vt 0.96194054 0.30866014
vt 0.85355339 0.14644661
vt 0.69133986 0.03805946
vt 0.50000000 0.00000000
vt 0.30866014 0.03805946
vt 0.14644661 0.14644661
vt 0.03805946 0.30866014
vt 0.00000000 0.50000000
vt 0.03805946 0.69133986
vt 0.14644661 0.85355339
vt 0.30866014 0.96194054
vt 0.50000000 1.00000000
vt 0.69133986 0.96194054
vt 0.85355339 0.85355339
vt 0.96194054 0.69133986
vt 0.50000000 0.50000000
vn 0.00000000 -1.00000000 0.00000000
vn 0.00000000 -1.00000000 0.00000000
vn 0.00000000 -1.00000000 0.00000000
vn 0.00000000 -1.00000000 0.00000000
vn 0.00000000 -1.00000000 0.00000000
vn 0.00000000 -1.00000000 0.00000000
vn 0.00000000 -1.00000000 0.00000000
vn 0.00000000 -1.00000000 0.00000000
vn 0.00000000 -1.00000000 0.00000000
vn 0.00000000 -1.00000000 0.00000000
vn 0.00000000 -1.00000000 0.00000000
vn 0.00000000 -1.00000000 0.00000000
vn 0.00000000 -1.00000000 0.00000000
vn 0.00000000 -1.00000000 0.00000000
vn 0.00000000 -1.00000000 0.00000000
vn 0.00000000 -1.00000000 0.00000000
vn 0.00000000 -1.00000000 0.00000000
s 1
usemtl Hidden
f 18/18/18 19/19/19 34/34/34
f 32/32/32 33/33/33 34/34/34
f 31/31/31 32/32/32 34/34/34
f 30/30/30 31/31/31 34/34/34
f 29/29/29 30/30/30 34/34/34
f 28/28/28 29/29/29 34/34/34
f 27/27/27 28/28/28 34/34/34
f 26/26/26 27/27/27 34/34/34
f 25/25/25 26/26/26 34/34/34
f 24/24/24 25/25/25 34/34/34
f 23/23/23 24/24/24 34/34/34
f 22/22/22 23/23/23 34/34/34
f 21/21/21 22/22/22 34/34/34
f 20/20/20 21/21/21 34/34/34
f 19/19/19 20/20/20 34/34/34
f 33/33/33 18/18/18 34/34/34
o Stem
g Stem
v -0.03826825 3.17970113 -0.04136540
v -0.07071068 3.18038533 -0.01969888
v -0.09238799 3.18140932 0.01272738
v -0.10000000 3.18261719 0.05097656
v -0.09238799 3.18382506 0.08922575
v -0.07071068 3.18484904 0.12165201
v -0.03826825 3.18553325 0.14331852
v 0.00000000 3.18577351 0.15092674
v 0.03826825 3.18553325 0.14331852
v 0.07071068 3.18484904 0.12165201
v 0.09238799 3.18382506 0.08922575
v 0.10000000 3.18261719 0.05097656
v 0.09238799 3.18140932 0.01272738
v 0.07071068 3.18038533 -0.01969888
v 0.03826825 3.17970113 -0.04136540
v -0.03826825 2.34971100 -0.13770441
v -0.07071068 2.34574604 -0.11639279
v -0.09238799 2.33981207 -0.08449767
v -0.10000000 2.33281250 -0.04687500
v -0.09238799 2.32581293 -0.00925233
v -0.07071068 2.31987896 0.02264279
v -0.03826825 2.31591400 0.04395441
v 0.00000000 2.31452171 0.05143800
v 0.03826825 2.31591400 0.04395441
v 0.07071068 2.31987896 0.02264279
v 0.09238799 2.32581293 -0.00925233
v 0.10000000 2.33281250 -0.04687500
v 0.09238799 2.33981207 -0.08449767
v 0.07071068 2.34574604 -0.11639279
v 0.03826825 2.34971100 -0.13770441
v -0.03826853 4.00000000 -0.09238788
v 0.00000000 4.00000000 -0.10000000
v 0.00000000 3.17946087 -0.04897361
v -0.07071068 4.00000000 -0.07071068
v -0.09238788 4.00000000 -0.03826853
v -0.10000000 4.00000000 -0.00000000
v -0.09238788 4.00000000 0.03826853
v -0.07071068 4.00000000 0.07071068
v -0.03826853 4.00000000 0.09238788
v 0.00000000 4.00000000 0.10000000
v 0.03826853 4.00000000 0.09238788
v 0.07071068 4.00000000 0.07071068
v 0.09238788 4.00000000 0.03826853
v 0.10000000 4.00000000 -0.00000000
v 0.09238788 4.00000000 -0.03826853
v 0.07071068 4.00000000 -0.07071068
v 0.03826853 4.00000000 -0.09238788
v 0.00000000 2.35110329 -0.14518800
v 0.00000000 0.00000000 -0.10000000
v -0.03826853 0.00000000 -0.09238788
v -0.07071068 0.00000000 -0.07071068
v -0.09238788 0.00000000 -0.03826853
v -0.10000000 0.00000000 -0.00000000
v -0.09238788 0.00000000 0.03826853
v -0.07071068 0.00000000 0.07071068
v -0.03826853 0.00000000 0.09238788
v 0.00000000 0.00000000 0.10000000
v 0.03826853 0.00000000 0.09238788
v 0.07071068 0.00000000 0.07071068
v 0.09238788 0.00000000 0.03826853
v 0.10000000 0.00000000 -0.00000000
v 0.09238788 0.00000000 -0.03826853
v 0.07071068 0.00000000 -0.07071068
v 0.03826853 0.00000000 -0.09238788
vt 0.25000000 0.06497272
vt 0.25000000 0.12500000
vt 0.25000000 0.18502728
vt 0.25000000 0.25000000
vt 0.25000000 0.31497272
vt 0.25000000 0.37500000
vt 0.25000000 0.43502728
vt 0.25000000 0.50000000
vt 0.25000000 0.56497272
vt 0.25000000 0.62500000
vt 0.25000000 0.68502728
vt 0.25000000 0.75000000
vt 0.25000000 0.81497272
vt 0.25000000 0.87500000
vt 0.25000000 0.93502728
vt 0.50000000 0.06497272
vt 0.50000000 0.12500000
vt 0.50000000 0.18502728
vt 0.50000000 0.25000000
vt 0.50000000 0.31497272
vt 0.50000000 0.37500000
vt 0.50000000 0.43502728
vt 0.50000000 0.50000000
vt 0.50000000 0.56497272
vt 0.50000000 0.62500000
vt 0.50000000 0.68502728
vt 0.50000000 0.75000000
vt 0.50000000 0.81497272
vt 0.50000000 0.87500000
vt 0.50000000 0.93502728
vt 0.00000000 0.06497272
vt 0.00000000 0.00000000
vt 0.25000000 0.00000000
vt 0.00000000 0.12500000
vt 0.00000000 0.18502728
vt 0.00000000 0.25000000
vt 0.00000000 0.31497272
vt 0.00000000 0.37500000
vt 0.00000000 0.43502728
vt 0.00000000 0.50000000
vt 0.00000000 0.56497272
vt 0.00000000 0.62500000
vt 0.00000000 0.68502728
vt 0.00000000 0.75000000
vt 0.00000000 0.81497272
vt 0.00000000 0.87500000
vt 0.00000000 0.93502728
vt 0.25000000 1.00000000
vt 0.00000000 1.00000000
vt 0.50000000 0.00000000
vt 1.00000000 0.00000000
vt 1.00000000 0.06497272
vt 1.00000000 0.12500000
vt 1.00000000 0.18502728
vt 1.00000000 0.25000000
vt 1.00000000 0.31497272
vt 1.00000000 0.37500000
vt 1.00000000 0.43502728
vt 1.00000000 0.50000000
vt 1.00000000 0.56497272
vt 1.00000000 0.62500000
vt 1.00000000 0.68502728
vt 1.00000000 0.75000000
vt 1.00000000 0.81497272
vt 1.00000000 0.87500000
vt 1.00000000 0.93502728
vt 1.00000000 1.00000000
vt 0.50000000 1.00000000
vn -0.38268249 -0.02935736 -0.92341337
vn -0.70710678 -0.02243302 -0.70675085
vn -0.92387992 -0.01211187 -0.38249078
vn -1.00000000 0.00000000 0.00000000
vn -0.92387992 0.01204628 0.38249286
vn -0.70710678 0.02220899 0.70675793
vn -0.38268249 0.02897477 0.92342546
vn -0.00000000 0.03134598 0.99950859
vn 0.38268249 0.02897477 0.92342546
vn 0.70710678 0.02220899 0.70675793
vn 0.92387992 0.01204628 0.38249286
vn 1.00000000 -0.00000000 -0.00000000
vn 0.92387992 -0.01211187 -0.38249078
vn 0.70710678 -0.02243302 -0.70675085
vn 0.38268249 -0.02935736 -0.92341337
vn -0.38268250 0.16898179 -0.90829470
vn -0.70710678 0.12933357 -0.69517827
vn -0.92387992 0.06999511 -0.37622677
vn -1.00000000 -0.00000000 0.00000000
vn -0.92387992 -0.06999621 0.37622656
vn -0.70710678 -0.12933731 0.69517757
vn -0.38268250 -0.16898817 0.90829351
vn 0.00000000 -0.18291170 0.98312935
vn 0.38268250 -0.16898817 0.90829351
vn 0.70710678 -0.12933731 0.69517757
vn 0.92387992 -0.06999621 0.37622656
vn 1.00000000 0.00000000 -0.00000000
vn 0.92387992 0.06999511 -0.37622677
vn 0.70710678 0.12933357 -0.69517827
vn 0.38268250 0.16898179 -0.90829470
vn -0.38268241 -0.00068566 -0.92387970
vn 0.00000000 -0.00080089 -0.99999968
vn -0.00000000 -0.03179426 -0.99949443
vn -0.70710672 -0.00040513 -0.70710672
vn -0.92387991 -0.00012022 -0.38268250
vn -1.00000000 0.00000000 -0.00000000
vn -0.92387991 -0.00012406 0.38268250
vn -0.70710672 -0.00042939 0.70710672
vn -0.38268240 -0.00073981 0.92387967
vn -0.00000000 -0.00086957 0.99999962
vn 0.38268240 -0.00073981 0.92387967
vn 0.70710672 -0.00042939 0.70710672
vn 0.92387991 -0.00012406 0.38268250
vn 1.00000000 0.00000000 -0.00000000
vn 0.92387991 -0.00012022 -0.38268250
vn 0.70710672 -0.00040513 -0.70710672
vn 0.38268241 -0.00068566 -0.92387970
vn -0.00000000 0.18290421 -0.98313074
vn 0.00000000 0.00074242 -0.99999972
vn -0.38268242 0.00063210 -0.92387973
vn -0.70710673 0.00036763 -0.70710673
vn -0.92387991 0.00010654 -0.38268250
vn -1.00000000 0.00000000 -0.00000000
vn -0.92387991 0.00010395 0.38268250
vn -0.70710674 0.00035127 0.70710674
vn -0.38268243 0.00059560 0.92387975
vn -0.00000000 0.00069613 0.99999976
vn 0.38268243 0.00059560 0.92387975
vn 0.70710674 0.00035127 0.70710674
vn 0.92387991 0.00010395 0.38268250
vn 1.00000000 0.00000000 -0.00000000
vn 0.92387991 0.00010654 -0.38268250
vn 0.70710673 0.00036763 -0.70710673
vn 0.38268242 0.00063210 -0.92387973
s 1
usemtl Stem
f 65/65/65 66/66/66 67/67/67
f 67/82/67 49/49/49 64/64/64
f 83/101/83 82/102/82 64/64/64
f 83/85/83 84/86/84 50/50/50
f 35/35/35 50/50/50 51/51/51
f 36/36/36 51/51/51 52/52/52
f 37/37/37 52/52/52 53/53/53
f 38/38/38 53/53/53 54/54/54
f 39/39/39 54/54/54 55/55/55
f 40/40/40 55/55/55 56/56/56
f 41/41/41 56/56/56 57/57/57
f 57/57/57 58/58/58 43/43/43
f 75/75/75 43/43/43 44/44/44
f 44/44/44 59/59/59 45/45/45
f 45/45/45 60/60/60 46/46/46
f 46/46/46 61/61/61 47/47/47
f 47/47/47 62/62/62 48/48/48
f 80/80/80 79/79/79 48/48/48
f 62/62/62 63/63/63 48/48/48
f 97/99/97 98/100/98 63/63/63
f 97/99/97 63/63/63 62/62/62
f 96/98/96 97/99/97 62/62/62
f 79/79/79 47/47/47 48/48/48
f 79/79/79 78/78/78 47/47/47
f 61/61/61 62/62/62 47/47/47
f 96/98/96 62/62/62 61/61/61
f 95/97/95 96/98/96 61/61/61
f 78/78/78 46/46/46 47/47/47
f 78/78/78 77/77/77 46/46/46
f 60/60/60 61/61/61 46/46/46
f 95/97/95 61/61/61 60/60/60
f 94/96/94 95/97/95 60/60/60
f 77/77/77 45/45/45 46/46/46
f 77/77/77 76/76/76 45/45/45
f 59/59/59 60/60/60 45/45/45
f 94/96/94 60/60/60 59/59/59
f 93/95/93 94/96/94 59/59/59
f 76/76/76 44/44/44 45/45/45
f 76/76/76 75/75/75 44/44/44
f 74/74/74 42/42/42 43/43/43
f 75/75/75 74/74/74 43/43/43
f 58/58/58 59/59/59 44/44/44
f 43/43/43 58/58/58 44/44/44
f 93/95/93 59/59/59 58/58/58
f 92/94/92 93/95/93 58/58/58
f 42/42/42 57/57/57 43/43/43
f 92/94/92 58/58/58 57/57/57
f 91/93/91 92/94/92 57/57/57
f 90/92/90 91/93/91 57/57/57
f 41/41/41 57/57/57 42/42/42
f 74/74/74 41/41/41 42/42/42
f 74/74/74 73/73/73 41/41/41
f 90/92/90 57/57/57 56/56/56
f 89/91/89 90/92/90 56/56/56
f 40/40/40 56/56/56 41/41/41
f 73/73/73 40/40/40 41/41/41
f 73/73/73 72/72/72 40/40/40
f 89/91/89 56/56/56 55/55/55
f 88/90/88 89/91/89 55/55/55
f 39/39/39 55/55/55 40/40/40
f 72/72/72 39/39/39 40/40/40
f 72/72/72 71/71/71 39/39/39
f 88/90/88 55/55/55 54/54/54
f 87/89/87 88/90/88 54/54/54
f 38/38/38 54/54/54 39/39/39
f 71/71/71 38/38/38 39/39/39
f 71/71/71 70/70/70 38/38/38
f 87/89/87 54/54/54 53/53/53
f 86/88/86 87/89/87 53/53/53
f 37/37/37 53/53/53 38/38/38
f 70/70/70 37/37/37 38/38/38
f 70/70/70 69/69/69 37/37/37
f 86/88/86 53/53/53 52/52/52
f 85/87/85 86/88/86 52/52/52
f 36/36/36 52/52/52 37/37/37
f 69/69/69 36/36/36 37/37/37
f 69/69/69 68/68/68 36/36/36
f 85/87/85 52/52/52 51/51/51
f 35/35/35 51/51/51 36/36/36
f 68/68/68 35/35/35 36/36/36
f 84/86/84 51/51/51 50/50/50
f 84/86/84 85/87/85 51/51/51
f 82/84/82 83/85/83 50/50/50
f 98/100/98 83/101/83 64/64/64
f 98/100/98 64/64/64 63/63/63
f 63/63/63 64/64/64 49/49/49
f 48/48/48 63/63/63 49/49/49
f 80/80/80 48/48/48 49/49/49
f 81/81/81 80/80/80 49/49/49
f 82/102/82 67/82/67 64/64/64
f 67/67/67 50/50/50 35/35/35
f 67/67/67 82/84/82 50/50/50
f 67/82/67 81/81/81 49/49/49
f 67/82/67 66/83/66 81/81/81
f 68/68/68 65/65/65 35/35/35
f 65/65/65 67/67/67 35/35/35
