mtllib Prop_Fence_Post.mtl
o Fence_Post
g Fence_Post
v 0.45190346 0.73750000 -0.53456680
v 0.45000000 0.73750000 -0.52500000
v 0.46250000 0.75000000 -0.52500000
v 0.46345173 0.75000000 -0.52978340
v 0.46616058 0.75000000 -0.53383691
v 0.45732349 0.73750000 -0.54267616
v 0.47021769 0.75000000 -0.53654768
v 0.46543454 0.73750000 -0.54809502
v 0.47500000 0.75000000 -0.53750000
v 0.47500000 0.73750000 -0.55000000
v 0.45000000 0.73750000 -0.47500000
v 0.46250000 0.75000000 -0.47500000
v 0.46543320 0.73750000 -0.45190346
v 0.47500000 0.73750000 -0.45000000
v 0.47500000 0.75000000 -0.46250000
v 0.47021660 0.75000000 -0.46345173
v 0.46616309 0.75000000 -0.46616058
v 0.45732384 0.73750000 -0.45732349
v 0.46345232 0.75000000 -0.47021769
v 0.45190498 0.73750000 -0.46543454
v 0.52500000 0.73750000 -0.45000000
v 0.52500000 0.75000000 -0.46250000
v 0.52500000 0.00000000 -0.45000000
v 0.47500000 0.00000000 -0.45000000
v 0.47500000 0.00000000 -0.55000000
v 0.52500000 0.00000000 -0.55000000
v 0.55000000 0.00000000 -0.52500000
v 0.55000000 0.00000000 -0.47500000
v 0.45000000 0.00000000 -0.47500000
v 0.45000000 0.00000000 -0.52500000
v 0.53456729 -0.00000000 -0.54809786
v 0.54267753 -0.00000000 -0.54267747
v 0.54809676 0.00000000 -0.53456672
v 0.54809786 -0.00000000 -0.46543271
v 0.54267747 0.00000000 -0.45732247
v 0.53456672 -0.00000000 -0.45190324
v 0.46543271 -0.00000000 -0.45190214
v 0.45732247 0.00000000 -0.45732253
v 0.45190324 -0.00000000 -0.46543328
v 0.45190214 -0.00000000 -0.53456729
v 0.45732253 -0.00000000 -0.54267753
v 0.46543328 -0.00000000 -0.54809676
v 0.55000000 0.73750000 -0.52500000
v 0.55000000 0.73750000 -0.47500000
v 0.53750000 0.75000000 -0.52500000
v 0.53750000 0.75000000 -0.47500000
v 0.53456680 0.73750000 -0.54809654
v 0.52500000 0.73750000 -0.55000000
v 0.52500000 0.75000000 -0.53750000
v 0.52978340 0.75000000 -0.53654827
v 0.53383691 0.75000000 -0.53383942
v 0.54267616 0.73750000 -0.54267651
v 0.53654768 0.75000000 -0.52978231
v 0.54809502 0.73750000 -0.53456546
v 0.54809654 0.73750000 -0.46543320
v 0.54267651 0.73750000 -0.45732384
v 0.53456546 0.73750000 -0.45190498
v 0.53654827 0.75000000 -0.47021660
v 0.53383942 0.75000000 -0.46616309
v 0.52978231 0.75000000 -0.46345232
vt 0.24876110 1.00000000
vt 0.00000000 1.00000000
vt 0.00000000 0.00000000
vt 0.24872361 0.00000000
vt 0.49743756 0.00000000
vt 0.49760809 1.00000000
vt 0.74677303 0.00000000
vt 0.74677303 1.00000000
vt 1.00000000 0.00000000
vt 1.00000000 1.00000000
vt 1.00000000 0.00000000
vt 1.00000000 1.00000000
vt 0.00000000 1.00000000
vt 0.00000000 0.00000000
vt 0.24876110 1.00000000
vt 0.00000000 1.00000000
vt 0.00000000 0.00000000
vt 0.24872361 0.00000000
vt 0.49743756 0.00000000
vt 0.49760809 1.00000000
vt 0.74677303 0.00000000
vt 0.74677303 1.00000000
vt 1.00000000 0.00000000
vt 1.00000000 1.00000000
vt 1.00000000 0.00000000
vt 1.00000000 1.00000000
vt 0.00000000 1.00000000
vt 0.00000000 0.00000000
vt 1.00000000 1.00000000
vt 0.00000000 1.00000000
vt 0.00000000 0.00000000
vt 1.00000000 0.00000000
vt 1.00000000 0.25000000
vt 1.00000000 0.75000000
vt 0.75000000 1.00000000
vt 0.25000000 1.00000000
vt 0.00000000 0.75000000
vt 0.00000000 0.25000000
vt 0.25000000 0.00000000
vt 0.75000000 0.00000000
vt 0.98097810 0.84567409
vt 0.92677510 0.92677498
vt 0.84567002 0.98096643
vt 0.15432591 0.98097810
vt 0.07322502 0.92677510
vt 0.01903357 0.84567002
vt 0.01902190 0.15432591
vt 0.07322490 0.07322502
vt 0.15432998 0.01903357
vt 0.84567409 0.01902190
vt 0.92677498 0.07322490
vt 0.98096643 0.15432998
vt 1.00000000 1.00000000
vt 0.00000000 1.00000000
vt 0.00000000 0.00000000
vt 1.00000000 0.00000000
vt 1.00000000 0.00000000
vt 1.00000000 1.00000000
vt 0.00000000 1.00000000
vt 0.00000000 0.00000000
vt 0.24876110 1.00000000
vt 0.00000000 1.00000000
vt 0.00000000 0.00000000
vt 0.24872361 0.00000000
vt 0.49743756 0.00000000
vt 0.49760809 1.00000000
vt 0.74677303 0.00000000
vt 0.74677303 1.00000000
vt 1.00000000 0.00000000
vt 1.00000000 1.00000000
vt 0.00000000 0.25989090
vt 0.00000000 0.00000000
vt 1.00000000 0.00000000
vt 1.00000000 0.25989090
vt 1.00000000 0.49991441
vt 0.00000000 0.50000000
vt 1.00000000 0.74010910
vt 0.00000000 0.74010910
vt 1.00000000 1.00000000
vt 0.00000000 1.00000000
vt 1.00000000 1.00000000
vt 0.00000000 1.00000000
vt 0.00000000 0.00000000
vt 1.00000000 0.00000000
vt 0.00000000 0.25989090
vt 0.00000000 0.00000000
vt 1.00000000 0.00000000
vt 1.00000000 0.25989090
vt 1.00000000 0.49991441
vt 0.00000000 0.50000000
vt 1.00000000 0.74010910
vt 0.00000000 0.74010910
vt 1.00000000 1.00000000
vt 0.00000000 1.00000000
vt 0.24876110 1.00000000
vt 0.00000000 1.00000000
vt 0.00000000 0.00000000
vt 0.24872361 0.00000000
vt 0.49743756 0.00000000
vt 0.49760809 1.00000000
vt 0.74677303 0.00000000
vt 0.74677303 1.00000000
vt 1.00000000 0.00000000
vt 1.00000000 1.00000000
vt 0.00000000 0.25989090
vt 0.00000000 0.00000000
vt 1.00000000 0.00000000
vt 1.00000000 0.25989090
vt 1.00000000 0.49991441
vt 0.00000000 0.50000000
vt 1.00000000 0.74010910
vt 0.00000000 0.74010910
vt 1.00000000 1.00000000
vt 0.00000000 1.00000000
vt 1.00000000 1.00000000
vt 0.00000000 1.00000000
vt 0.00000000 0.00000000
vt 1.00000000 0.00000000
vt 0.00000000 0.25989090
vt 0.00000000 0.00000000
vt 1.00000000 0.00000000
vt 1.00000000 0.25989090
vt 1.00000000 0.49991441
vt 0.00000000 0.50000000
vt 1.00000000 0.74010910
vt 0.00000000 0.74010910
vt 1.00000000 1.00000000
vt 0.00000000 1.00000000
vt 1.00000000 0.00000000
vt 1.00000000 1.00000000
vt 0.00000000 1.00000000
vt 0.00000000 0.00000000
vn -0.65383987 0.70709865 -0.26926738
vn -0.70710678 0.70710678 0.00000000
vn -0.70710678 0.70710678 0.00000000
vn -0.65385697 0.70709860 -0.26922597
vn -0.50187982 0.70707770 -0.49815436
vn -0.50173923 0.70707806 -0.49829545
vn -0.27194333 0.70707152 -0.65276082
vn -0.27194333 0.70707152 -0.65276082
vn 0.00000000 0.70710678 -0.70710678
vn 0.00000000 0.70710678 -0.70710678
vn -0.70710678 0.70710678 0.00000000
vn -0.70710678 0.70710678 0.00000000
vn -0.26926738 0.70709865 0.65383987
vn 0.00000000 0.70710678 0.70710678
vn 0.00000000 0.70710678 0.70710678
vn -0.26922597 0.70709860 0.65385697
vn -0.49815436 0.70707770 0.50187982
vn -0.49829545 0.70707806 0.50173923
vn -0.65276082 0.70707152 0.27194333
vn -0.65276082 0.70707152 0.27194333
vn 0.00000000 0.70710678 0.70710678
vn 0.00000000 0.70710678 0.70710678
vn 0.00000000 0.00000000 1.00000000
vn 0.00000000 0.00000000 1.00000000
vn 0.00000000 0.00000000 1.00000000
vn 0.00000000 0.00000000 1.00000000
vn 0.00000000 -1.00000000 0.00000000
vn 0.00000000 -1.00000000 0.00000000
vn 0.00000000 -1.00000000 0.00000000
vn 0.00000000 -1.00000000 0.00000000
vn 0.00000000 -1.00000000 0.00000000
vn 0.00000000 -1.00000000 0.00000000
vn 0.00000000 -1.00000000 0.00000000
vn 0.00000000 -1.00000000 0.00000000
vn 0.00000000 -1.00000000 0.00000000
vn 0.00000000 -1.00000000 0.00000000
vn 0.00000000 -1.00000000 0.00000000
vn 0.00000000 -1.00000000 0.00000000
vn 0.00000000 -1.00000000 0.00000000
vn 0.00000000 -1.00000000 0.00000000
vn 0.00000000 -1.00000000 0.00000000
vn 0.00000000 -1.00000000 0.00000000
vn 0.00000000 -1.00000000 0.00000000
vn 0.00000000 -1.00000000 0.00000000
vn 0.00000000 -1.00000000 0.00000000
vn 0.00000000 -1.00000000 0.00000000
vn 1.00000000 0.00000000 0.00000000
vn 1.00000000 0.00000000 0.00000000
vn 1.00000000 0.00000000 0.00000000
vn 1.00000000 0.00000000 0.00000000
vn 0.70710678 0.70710678 0.00000000
vn 0.70710678 0.70710678 0.00000000
vn 0.70710678 0.70710678 0.00000000
vn 0.70710678 0.70710678 0.00000000
vn 0.26926738 0.70709865 -0.65383987
vn -0.00000000 0.70710678 -0.70710678
vn 0.00000000 0.70710678 -0.70710678
vn 0.26922597 0.70709860 -0.65385697
vn 0.49815436 0.70707770 -0.50187982
vn 0.49829545 0.70707806 -0.50173923
vn 0.65276082 0.70707152 -0.27194333
vn 0.65276082 0.70707152 -0.27194333
vn 0.38268250 0.00000000 -0.92387992
vn 0.00000000 0.00000000 -1.00000000
vn 0.00000000 0.00000000 -1.00000000
vn 0.38268250 0.00000000 -0.92387992
vn 0.70700650 0.00000000 -0.70720705
vn 0.70710678 0.00000000 -0.70710678
vn 0.92387992 0.00000000 -0.38268250
vn 0.92387992 0.00000000 -0.38268250
vn 0.00000000 0.00000000 -1.00000000
vn 0.00000000 0.00000000 -1.00000000
vn 0.92387992 0.00000000 0.38268250
vn 0.92387992 0.00000000 0.38268250
vn 0.70720705 0.00000000 0.70700650
vn 0.70710678 0.00000000 0.70710678
vn 0.38268250 0.00000000 0.92387992
vn 0.38268250 0.00000000 0.92387992
vn 0.65383987 0.70709865 0.26926738
vn 0.65385697 0.70709860 0.26922597
vn 0.50187982 0.70707770 0.49815436
vn 0.50173923 0.70707806 0.49829545
vn 0.27194333 0.70707152 0.65276082
vn 0.27194333 0.70707152 0.65276082
vn -0.38268250 0.00000000 0.92387992
vn -0.38268250 0.00000000 0.92387992
vn -0.70700650 0.00000000 0.70720705
vn -0.70710678 0.00000000 0.70710678
vn -0.92387992 0.00000000 0.38268250
vn -0.92387992 0.00000000 0.38268250
vn -1.00000000 0.00000000 0.00000000
vn -1.00000000 0.00000000 0.00000000
vn -1.00000000 0.00000000 0.00000000
vn -1.00000000 0.00000000 0.00000000
vn -0.92387992 -0.00000000 -0.38268250
vn -0.92387992 -0.00000000 -0.38268250
vn -0.70720705 0.00000000 -0.70700650
vn -0.70710678 0.00000000 -0.70710678
vn -0.38268250 0.00000000 -0.92387992
vn -0.38268250 0.00000000 -0.92387992
s 1
usemtl Wood_Darker
f 1/1/1 2/2/2 3/3/3
f 2/12/2 11/13/11 12/14/12
f 19/21/19 12/23/12 20/22/20
f 19/21/19 20/22/20 18/20/18
f 16/18/16 18/20/18 13/15/13
f 13/15/13 14/16/14 15/17/15
f 22/26/22 15/27/15 14/28/14
f 22/103/22 21/104/21 57/102/84
f 60/101/83 57/102/84 56/100/82
f 58/98/80 56/100/82 55/95/79
f 55/95/79 44/96/54 46/97/53
f 45/58/52 46/59/53 44/60/54
f 45/69/52 43/70/51 54/68/62
f 53/67/61 54/68/62 52/66/60
f 50/64/58 52/66/60 47/61/55
f 47/61/55 48/62/56 49/63/57
f 48/130/56 10/131/10 9/132/9
f 7/7/7 9/9/9 8/8/8
f 7/7/7 8/8/8 6/6/6
f 4/4/4 5/5/5 6/6/6
f 5/5/5 7/7/7 6/6/6
f 9/9/9 10/10/10 8/8/8
f 49/129/57 48/130/56 9/132/9
f 47/61/55 49/63/57 50/64/58
f 50/64/58 51/65/59 52/66/60
f 51/65/59 53/67/61 52/66/60
f 53/67/61 45/69/52 54/68/62
f 43/57/51 45/58/52 44/60/54
f 55/95/79 46/97/53 58/98/80
f 58/98/80 59/99/81 56/100/82
f 59/99/81 60/101/83 56/100/82
f 60/101/83 22/103/22 57/102/84
f 21/25/21 22/26/22 14/28/14
f 13/15/13 15/17/15 16/18/16
f 16/18/16 17/19/17 18/20/18
f 17/19/17 19/21/19 18/20/18
f 12/23/12 11/24/11 20/22/20
f 3/11/3 2/12/2 12/14/12
f 4/4/4 6/6/6 1/1/1
f 1/1/1 3/3/3 4/4/4
s 2
f 14/32/26 24/31/25 21/29/23
f 57/91/77 21/93/23 23/94/24
f 57/91/77 23/94/24 36/92/78
f 56/89/75 36/92/78 35/90/76
f 56/89/75 35/90/76 34/85/73
f 34/85/73 28/86/49 55/88/74
f 28/86/49 44/87/50 55/88/74
f 28/55/49 27/54/48 43/53/47
f 54/77/69 27/80/48 33/78/70
f 52/75/67 33/78/70 32/76/68
f 52/75/67 32/76/68 31/71/63
f 31/71/63 26/72/64 47/74/66
f 26/82/64 25/83/71 10/84/72
f 8/125/99 25/128/71 42/126/100
f 6/123/97 42/126/100 41/124/98
f 6/123/97 41/124/98 40/119/95
f 40/119/95 30/120/94 1/122/96
f 30/120/94 2/121/93 1/122/96
f 30/116/94 29/117/92 11/118/91
f 20/111/89 29/114/92 39/112/90
f 18/109/87 39/112/90 38/110/88
f 18/109/87 38/110/88 37/105/85
f 13/108/86 18/109/87 37/105/85
f 18/109/87 20/111/89 39/112/90
f 20/111/89 11/113/91 29/114/92
f 2/115/93 30/116/94 11/118/91
f 1/122/96 6/123/97 40/119/95
f 6/123/97 8/125/99 42/126/100
f 8/125/99 10/127/72 25/128/71
f 48/81/65 26/82/64 10/84/72
f 26/72/64 48/73/65 47/74/66
f 47/74/66 52/75/67 31/71/63
f 52/75/67 54/77/69 33/78/70
f 54/77/69 43/79/47 27/80/48
f 44/56/50 28/55/49 43/53/47
f 55/88/74 56/89/75 34/85/73
f 56/89/75 57/91/77 36/92/78
f 37/105/85 24/106/25 13/108/86
f 24/31/25 23/30/24 21/29/23
f 24/106/25 14/107/26 13/108/86
s 3
f 41/51/45 42/52/46 25/33/27
f 30/40/34 25/33/27 26/34/28
f 26/34/28 27/35/29 28/36/30
f 28/36/30 23/37/31 24/38/32
f 24/38/32 38/48/42 29/39/33
f 38/48/42 39/49/43 29/39/33
f 24/38/32 37/47/41 38/48/42
f 35/45/39 36/46/40 23/37/31
f 28/36/30 35/45/39 23/37/31
f 28/36/30 34/44/38 35/45/39
f 32/42/36 33/43/37 27/35/29
f 26/34/28 32/42/36 27/35/29
f 26/34/28 31/41/35 32/42/36
f 28/36/30 24/38/32 30/40/34
f 30/40/34 26/34/28 28/36/30
f 24/38/32 29/39/33 30/40/34
f 30/40/34 41/51/45 25/33/27
f 30/40/34 40/50/44 41/51/45
o Fence_Post_Top
g Fence_Post_Top
v 0.52500000 0.75000000 -0.53750000
v 0.53750000 0.75000000 -0.52500000
v 0.53750000 0.75000000 -0.47500000
v 0.52500000 0.75000000 -0.46250000
v 0.47500000 0.75000000 -0.46250000
v 0.46250000 0.75000000 -0.47500000
v 0.46250000 0.75000000 -0.52500000
v 0.47500000 0.75000000 -0.53750000
v 0.47021780 0.75000000 -0.53654773
v 0.46616293 0.75000000 -0.53383927
v 0.46345204 0.75000000 -0.52978416
v 0.46345227 0.75000000 -0.47021780
v 0.46616073 0.75000000 -0.46616293
v 0.47021584 0.75000000 -0.46345204
v 0.52978220 0.75000000 -0.46345227
v 0.53383707 0.75000000 -0.46616073
v 0.53654796 0.75000000 -0.47021584
v 0.53654773 0.75000000 -0.52978220
v 0.53383927 0.75000000 -0.53383707
v 0.52978416 0.75000000 -0.53654796
vt 1.00000000 0.83333333
vt 0.83333333 1.00000000
vt 0.16666667 1.00000000
vt 0.00000000 0.83333333
vt 0.00000000 0.16666667
vt 0.16666667 0.00000000
vt 0.83333333 0.00000000
vt 1.00000000 0.16666667
vt 0.98730353 0.10290508
vt 0.95119035 0.04883907
vt 0.89712334 0.01269440
vt 0.10290508 0.01269647
vt 0.04883907 0.04880965
vt 0.01269440 0.10287666
vt 0.01269647 0.89709492
vt 0.04880965 0.95116093
vt 0.10287666 0.98730560
vt 0.89709492 0.98730353
vt 0.95116093 0.95119035
vt 0.98730560 0.89712334
vn 0.00000000 1.00000000 0.00000000
vn 0.00000000 1.00000000 0.00000000
vn 0.00000000 1.00000000 0.00000000
vn 0.00000000 1.00000000 0.00000000
vn 0.00000000 1.00000000 0.00000000
vn 0.00000000 1.00000000 0.00000000
vn 0.00000000 1.00000000 0.00000000
vn 0.00000000 1.00000000 0.00000000
vn 0.00000000 1.00000000 0.00000000
vn 0.00000000 1.00000000 0.00000000
vn 0.00000000 1.00000000 0.00000000
vn 0.00000000 1.00000000 0.00000000
vn 0.00000000 1.00000000 0.00000000
vn 0.00000000 1.00000000 0.00000000
vn 0.00000000 1.00000000 0.00000000
vn 0.00000000 1.00000000 0.00000000
vn 0.00000000 1.00000000 0.00000000
vn 0.00000000 1.00000000 0.00000000
vn 0.00000000 1.00000000 0.00000000
vn 0.00000000 1.00000000 0.00000000
s 1
usemtl Wood_Dark
f 68/140/108 69/141/109 70/142/110
f 70/142/110 71/143/111 67/139/107
f 68/140/108 66/138/106 64/136/104
f 64/136/104 63/135/103 62/134/102
f 62/134/102 79/151/119 61/133/101
f 79/151/119 80/152/120 61/133/101
f 62/134/102 78/150/118 79/151/119
f 76/148/116 77/149/117 63/135/103
f 64/136/104 76/148/116 63/135/103
f 64/136/104 75/147/115 76/148/116
f 66/138/106 65/137/105 64/136/104
f 73/145/113 74/146/114 65/137/105
f 66/138/106 73/145/113 65/137/105
f 66/138/106 72/144/112 73/145/113
f 64/136/104 62/134/102 68/140/108
f 68/140/108 67/139/107 66/138/106
f 62/134/102 61/133/101 68/140/108
f 68/140/108 70/142/110 67/139/107
