mtllib Prop_Daisy_Stem_3.mtl
o Hidden
g Hidden
v 0.00000000 5.85021367 0.79056942
v 0.03826825 5.84780654 0.78334803
v 0.07071068 5.84095157 0.76278312
v 0.09238799 5.83069238 0.73200553
v 0.10000000 5.81859089 0.69570109
v 0.09238799 5.80648941 0.65939664
v 0.07071068 5.79623021 0.62861905
v 0.03826825 5.78937525 0.60805414
v 0.00000000 5.78696812 0.60083276
v -0.03826825 5.78937525 0.60805414
v -0.07071068 5.79623021 0.62861905
v -0.09238799 5.80648941 0.65939664
v -0.10000000 5.81859089 0.69570109
v -0.09238799 5.83069238 0.73200553
v -0.07071068 5.84095157 0.76278312
v -0.03826825 5.84780654 0.78334803
v 0.00000000 5.81859089 0.69570109
vt 1.00000000 0.50000000
vt 0.96194054 0.30866014
vt 0.85355339 0.14644661
vt 0.69133986 0.03805946
vt 0.50000000 0.00000000
vt 0.30866014 0.03805946
vt 0.14644661 0.14644661
vt 0.03805946 0.30866014
vt 0.00000000 0.50000000
vt 0.03805946 0.69133986
vt 0.14644661 0.85355339
vt 0.30866014 0.96194054
vt 0.50000000 1.00000000
vt 0.69133986 0.96194054
vt 0.85355339 0.85355339
vt 0.96194054 0.69133986
vt 0.50000000 0.50000000
vn 0.00000000 0.94868330 -0.31622777
vn -0.00000000 0.94868330 -0.31622777
vn -0.00000000 0.94868330 -0.31622777
vn -0.00000000 0.94868330 -0.31622777
vn -0.00000000 0.94868330 -0.31622777
vn -0.00000000 0.94868330 -0.31622777
vn -0.00000000 0.94868330 -0.31622777
vn -0.00000000 0.94868330 -0.31622777
vn -0.00000000 0.94868330 -0.31622777
vn -0.00000000 0.94868330 -0.31622777
vn -0.00000000 0.94868330 -0.31622777
vn -0.00000000 0.94868330 -0.31622777
vn -0.00000000 0.94868330 -0.31622777
vn -0.00000000 0.94868330 -0.31622777
vn -0.00000000 0.94868330 -0.31622777
vn -0.00000000 0.94868330 -0.31622777
vn -0.00000000 0.94868330 -0.31622777
s 1
usemtl Hidden
f 1/1/1 2/2/2 17/17/17
f 15/15/15 16/16/16 17/17/17
f 14/14/14 15/15/15 17/17/17
f 13/13/13 14/14/14 17/17/17
f 12/12/12 13/13/13 17/17/17
f 11/11/11 12/12/12 17/17/17
f 10/10/10 11/11/11 17/17/17
f 9/9/9 10/10/10 17/17/17
f 8/8/8 9/9/9 17/17/17
f 7/7/7 8/8/8 17/17/17
f 6/6/6 7/7/7 17/17/17
f 5/5/5 6/6/6 17/17/17
f 4/4/4 5/5/5 17/17/17
f 3/3/3 4/4/4 17/17/17
f 2/2/2 3/3/3 17/17/17
f 16/16/16 1/1/1 17/17/17
v 0.00000000 0.00000000 0.10000000
v -0.03826825 0.00000000 0.09238799
v -0.07071068 0.00000000 0.07071068
v -0.09238799 0.00000000 0.03826825
v -0.10000000 0.00000000 -0.00000000
v -0.09238799 0.00000000 -0.03826825
v -0.07071068 0.00000000 -0.07071068
v -0.03826825 0.00000000 -0.09238799
v 0.00000000 0.00000000 -0.10000000
v 0.03826825 0.00000000 -0.09238799
v 0.07071068 0.00000000 -0.07071068
v 0.09238799 0.00000000 -0.03826825
v 0.10000000 0.00000000 -0.00000000
v 0.09238799 0.00000000 0.03826825
v 0.07071068 0.00000000 0.07071068
v 0.03826825 0.00000000 0.09238799
v 0.00000000 0.00000000 -0.00000000
vt 1.00000000 0.50000000
vt 0.96194054 0.69133986
vt 0.85355339 0.85355339
vt 0.69133986 0.96194054
vt 0.50000000 1.00000000
vt 0.30866014 0.96194054
vt 0.14644661 0.85355339
vt 0.03805946 0.69133986
vt 0.00000000 0.50000000
vt 0.03805946 0.30866014
vt 0.14644661 0.14644661
vt 0.30866014 0.03805946
vt 0.50000000 0.00000000
vt 0.69133986 0.03805946
vt 0.85355339 0.14644661
vt 0.96194054 0.30866014
vt 0.50000000 0.50000000
vn 0.00000000 -1.00000000 0.00000000
vn 0.00000000 -1.00000000 0.00000000
vn 0.00000000 -1.00000000 0.00000000
vn 0.00000000 -1.00000000 0.00000000
vn 0.00000000 -1.00000000 0.00000000
vn 0.00000000 -1.00000000 0.00000000
vn 0.00000000 -1.00000000 0.00000000
vn 0.00000000 -1.00000000 0.00000000
vn 0.00000000 -1.00000000 0.00000000
vn 0.00000000 -1.00000000 0.00000000
vn 0.00000000 -1.00000000 0.00000000
vn 0.00000000 -1.00000000 0.00000000
vn 0.00000000 -1.00000000 0.00000000
vn 0.00000000 -1.00000000 0.00000000
vn 0.00000000 -1.00000000 0.00000000
vn 0.00000000 -1.00000000 0.00000000
vn 0.00000000 -1.00000000 0.00000000
s 1
usemtl Hidden
f 18/18/18 19/19/19 34/34/34
f 32/32/32 33/33/33 34/34/34
f 31/31/31 32/32/32 34/34/34
f 30/30/30 31/31/31 34/34/34
f 29/29/29 30/30/30 34/34/34
f 28/28/28 29/29/29 34/34/34
f 27/27/27 28/28/28 34/34/34
f 26/26/26 27/27/27 34/34/34
f 25/25/25 26/26/26 34/34/34
f 24/24/24 25/25/25 34/34/34
f 23/23/23 24/24/24 34/34/34
f 22/22/22 23/23/23 34/34/34
f 21/21/21 22/22/22 34/34/34
f 20/20/20 21/21/21 34/34/34
f 19/19/19 20/20/20 34/34/34
f 33/33/33 18/18/18 34/34/34
o Stem
g Stem
v -0.03826825 4.81315273 0.95174399
v -0.03826825 3.79108267 0.74891056
v -0.03826825 2.86475908 0.40059729
v -0.03826825 1.94646004 0.17605691
v -0.03826825 0.98131171 0.10615232
v -0.07071068 4.81362812 0.93007189
v -0.07071068 0.98202806 0.08448685
v -0.09238799 4.81433959 0.89763726
v -0.09238799 0.98310014 0.05206213
v -0.10000000 4.81517882 0.85937822
v -0.10000000 0.98436475 0.01381478
v -0.09238799 4.81601805 0.82111917
v -0.09238799 0.98562935 -0.02443258
v -0.07071068 4.81672952 0.78868455
v -0.07071068 0.98670144 -0.05685729
v -0.03826825 4.81720491 0.76701245
v -0.03826825 0.98741778 -0.07852277
v 0.00000000 4.81737185 0.75940227
v 0.00000000 0.98766933 -0.08613062
v 0.03826825 4.81720491 0.76701245
v 0.03826825 0.98741778 -0.07852277
v 0.07071068 4.81672952 0.78868455
v 0.07071068 0.98670144 -0.05685729
v 0.09238799 4.81601805 0.82111917
v 0.09238799 0.98562935 -0.02443258
v 0.10000000 4.81517882 0.85937822
v 0.10000000 0.98436475 0.01381478
v 0.09238799 4.81433959 0.89763726
v 0.09238799 0.98310014 0.05206213
v 0.07071068 4.81362812 0.93007189
v 0.07071068 0.98202806 0.08448685
v 0.03826825 4.81315273 0.95174399
v 0.03826825 0.98131171 0.10615232
v 0.03826825 3.79108267 0.74891056
v 0.03826825 2.86475908 0.40059729
v 0.03826825 1.94646004 0.17605691
v -0.03826853 5.84780651 0.78334792
v 0.00000000 5.85021367 0.79056942
v 0.00000000 4.81299152 0.95935429
v 0.00000000 3.78869879 0.75614001
v 0.00000000 2.86221177 0.40777041
v 0.00000000 1.94514887 0.18356172
v 0.00000000 0.98065089 0.11374665
v 0.00000000 0.00000000 0.10000000
v -0.03826853 0.00000000 0.09238788
v -0.07071068 5.84095157 0.76278312
v -0.07071068 0.00000000 0.07071068
v -0.09238788 5.83069247 0.73200580
v -0.09238788 0.00000000 0.03826853
v -0.10000000 5.81859089 0.69570109
v -0.10000000 0.00000000 -0.00000000
v -0.09238788 5.80648932 0.65939637
v -0.09238788 0.00000000 -0.03826853
v -0.07071068 5.79623021 0.62861905
v -0.07071068 0.00000000 -0.07071068
v -0.03826853 5.78937528 0.60805425
v -0.03826853 0.00000000 -0.09238788
v 0.00000000 5.78696812 0.60083276
v 0.00000000 0.00000000 -0.10000000
v 0.03826853 5.78937528 0.60805425
v 0.03826853 0.00000000 -0.09238788
v 0.07071068 5.79623021 0.62861905
v 0.07071068 0.00000000 -0.07071068
v 0.09238788 5.80648932 0.65939637
v 0.09238788 0.00000000 -0.03826853
v 0.10000000 5.81859089 0.69570109
v 0.10000000 0.00000000 -0.00000000
v 0.09238788 5.83069247 0.73200580
v 0.09238788 0.00000000 0.03826853
v 0.07071068 5.84095157 0.76278312
v 0.07071068 0.00000000 0.07071068
v 0.03826853 5.84780651 0.78334792
v 0.03826853 0.00000000 0.09238788
v -0.07071068 3.79806544 0.72838871
v -0.07071068 2.87199044 0.38016175
v -0.07071068 1.94930774 0.15456745
v -0.09238799 3.80851590 0.69767557
v -0.09238799 2.88281294 0.34957778
v -0.09238799 1.95356963 0.12240617
v -0.10000000 3.82084300 0.66144713
v -0.10000000 2.89557889 0.31350171
v -0.10000000 1.95859685 0.08446955
v -0.09238799 3.83317010 0.62521870
v -0.09238799 2.90834483 0.27742564
v -0.09238799 1.96362406 0.04653293
v -0.07071068 3.84362056 0.59450555
v -0.07071068 2.91916733 0.24684166
v -0.07071068 1.96788595 0.01437165
v -0.03826825 3.85060333 0.57398371
v -0.03826825 2.92639869 0.22640613
v -0.03826825 1.97073365 -0.00711781
v 0.00000000 3.85305534 0.56677744
v 0.00000000 2.92893799 0.21923017
v 0.00000000 1.97173362 -0.01466385
v 0.03826825 3.85060333 0.57398371
v 0.03826825 2.92639869 0.22640613
v 0.03826825 1.97073365 -0.00711781
v 0.07071068 3.84362056 0.59450555
v 0.07071068 2.91916733 0.24684166
v 0.07071068 1.96788595 0.01437165
v 0.09238799 3.83317010 0.62521870
v 0.09238799 2.90834483 0.27742564
v 0.09238799 1.96362406 0.04653293
v 0.10000000 3.82084300 0.66144713
v 0.10000000 2.89557889 0.31350171
v 0.10000000 1.95859685 0.08446955
v 0.09238799 3.80851590 0.69767557
v 0.09238799 2.88281294 0.34957778
v 0.09238799 1.95356963 0.12240617
v 0.07071068 3.79806544 0.72838871
v 0.07071068 2.87199044 0.38016175
v 0.07071068 1.94930774 0.15456745
vt 0.16698681 0.06497272
vt 0.37920856 0.06497272
vt 0.60288867 0.06497272
vt 0.79762884 0.06497272
vt 0.91900254 0.06497272
vt 0.16698681 0.12500000
vt 0.91900254 0.12500000
vt 0.16698681 0.18502728
vt 0.91900254 0.18502728
vt 0.16698681 0.25000000
vt 0.91900254 0.25000000
vt 0.16698681 0.31497272
vt 0.91900254 0.31497272
vt 0.16698681 0.37500000
vt 0.91900254 0.37500000
vt 0.16698681 0.43502728
vt 0.91900254 0.43502728
vt 0.16698681 0.50000000
vt 0.91900254 0.50000000
vt 0.16698681 0.56497272
vt 0.91900254 0.56497272
vt 0.16698681 0.62500000
vt 0.91900254 0.62500000
vt 0.16698681 0.68502728
vt 0.91900254 0.68502728
vt 0.16698681 0.75000000
vt 0.91900254 0.75000000
vt 0.16698681 0.81497272
vt 0.91900254 0.81497272
vt 0.16698681 0.87500000
vt 0.91900254 0.87500000
vt 0.16698681 0.93502728
vt 0.91900254 0.93502728
vt 0.37920856 0.93502728
vt 0.60288867 0.93502728
vt 0.79762884 0.93502728
vt 0.00000000 0.06497272
vt 0.00000000 0.00000000
vt 0.16698681 0.00000000
vt 0.37920856 0.00000000
vt 0.60288867 0.00000000
vt 0.79762884 0.00000000
vt 0.91900254 0.00000000
vt 1.00000000 0.00000000
vt 1.00000000 0.06497272
vt 0.00000000 0.12500000
vt 1.00000000 0.12500000
vt 0.00000000 0.18502728
vt 1.00000000 0.18502728
vt 0.00000000 0.25000000
vt 1.00000000 0.25000000
vt 0.00000000 0.31497272
vt 1.00000000 0.31497272
vt 0.00000000 0.37500000
vt 1.00000000 0.37500000
vt 0.00000000 0.43502728
vt 1.00000000 0.43502728
vt 0.00000000 0.50000000
vt 1.00000000 0.50000000
vt 0.00000000 0.56497272
vt 1.00000000 0.56497272
vt 0.00000000 0.62500000
vt 1.00000000 0.62500000
vt 0.00000000 0.68502728
vt 1.00000000 0.68502728
vt 0.00000000 0.75000000
vt 1.00000000 0.75000000
vt 0.00000000 0.81497272
vt 1.00000000 0.81497272
vt 0.00000000 0.87500000
vt 1.00000000 0.87500000
vt 0.00000000 0.93502728
vt 1.00000000 0.93502728
vt 0.16698681 1.00000000
vt 0.00000000 1.00000000
vt 0.37920856 1.00000000
vt 0.60288867 1.00000000
vt 0.79762884 1.00000000
vt 0.91900254 1.00000000
vt 1.00000000 1.00000000
vt 0.37920856 0.12500000
vt 0.60288867 0.12500000
vt 0.79762884 0.12500000
vt 0.37920856 0.18502728
vt 0.60288867 0.18502728
vt 0.79762884 0.18502728
vt 0.37920856 0.25000000
vt 0.60288867 0.25000000
vt 0.79762884 0.25000000
vt 0.37920856 0.31497272
vt 0.60288867 0.31497272
vt 0.79762884 0.31497272
vt 0.37920856 0.37500000
vt 0.60288867 0.37500000
vt 0.79762884 0.37500000
vt 0.37920856 0.43502728
vt 0.60288867 0.43502728
vt 0.79762884 0.43502728
vt 0.37920856 0.50000000
vt 0.60288867 0.50000000
vt 0.79762884 0.50000000
vt 0.37920856 0.56497272
vt 0.60288867 0.56497272
vt 0.79762884 0.56497272
vt 0.37920856 0.62500000
vt 0.60288867 0.62500000
vt 0.79762884 0.62500000
vt 0.37920856 0.68502728
vt 0.60288867 0.68502728
vt 0.79762884 0.68502728
vt 0.37920856 0.75000000
vt 0.60288867 0.75000000
vt 0.79762884 0.75000000
vt 0.37920856 0.81497272
vt 0.60288867 0.81497272
vt 0.79762884 0.81497272
vt 0.37920856 0.87500000
vt 0.60288867 0.87500000
vt 0.79762884 0.87500000
vn -0.38268250 -0.02026122 0.92365772
vn -0.38268225 -0.29762897 0.87462637
vn -0.38268173 -0.30824149 0.87094310
vn -0.38268260 -0.12136439 0.91587374
vn -0.38268254 -0.03053006 0.92337532
vn -0.70710678 -0.01550720 0.70693672
vn -0.70710683 -0.02336680 0.70672054
vn -0.92387992 -0.00839237 0.38259047
vn -0.92387994 -0.01264608 0.38247345
vn -1.00000000 0.00000000 0.00000000
vn -1.00000000 -0.00000000 0.00000000
vn -0.92387992 0.00839226 -0.38259047
vn -0.92387994 0.01264629 -0.38247344
vn -0.70710678 0.01550681 -0.70693673
vn -0.70710683 0.02336752 -0.70672052
vn -0.38268250 0.02026055 -0.92365774
vn -0.38268254 0.03053129 -0.92337528
vn -0.00000000 0.02192982 -0.99975951
vn -0.00000000 0.03304687 -0.99945380
vn 0.38268250 0.02026055 -0.92365774
vn 0.38268254 0.03053129 -0.92337528
vn 0.70710678 0.01550681 -0.70693673
vn 0.70710683 0.02336752 -0.70672052
vn 0.92387992 0.00839226 -0.38259047
vn 0.92387994 0.01264629 -0.38247344
vn 1.00000000 -0.00000000 0.00000000
vn 1.00000000 -0.00000000 0.00000000
vn 0.92387992 -0.00839237 0.38259047
vn 0.92387994 -0.01264608 0.38247345
vn 0.70710678 -0.01550720 0.70693672
vn 0.70710683 -0.02336680 0.70672054
vn 0.38268250 -0.02026122 0.92365772
vn 0.38268254 -0.03053006 0.92337532
vn 0.38268225 -0.29762897 0.87462637
vn 0.38268173 -0.30824149 0.87094310
vn 0.38268260 -0.12136439 0.91587374
vn -0.38268250 0.29219141 0.87645780
vn 0.00000000 0.31626861 0.94866968
vn 0.00000000 -0.02193060 0.99975950
vn 0.00000000 -0.32215131 0.94668819
vn 0.00000000 -0.33363807 0.94270124
vn 0.00000000 -0.13136378 0.99133423
vn 0.00000000 -0.03304543 0.99945385
vn -0.00000000 0.00000539 1.00000000
vn -0.38268250 0.00000460 0.92387992
vn -0.70710678 0.22362737 0.67081353
vn -0.70710678 0.00000269 0.70710678
vn -0.92387992 0.12102091 0.36304247
vn -0.92387992 0.00000079 0.38268250
vn -1.00000000 0.00000000 0.00000000
vn -1.00000000 0.00000000 0.00000000
vn -0.92387992 -0.12100863 -0.36304656
vn -0.92387992 0.00000079 -0.38268250
vn -0.70710678 -0.22358545 -0.67082751
vn -0.70710678 0.00000268 -0.70710678
vn -0.38268250 -0.29211983 -0.87648166
vn -0.38268250 0.00000458 -0.92387992
vn -0.00000000 -0.31618474 -0.94869764
vn 0.00000000 0.00000536 -1.00000000
vn 0.38268250 -0.29211983 -0.87648166
vn 0.38268250 0.00000458 -0.92387992
vn 0.70710678 -0.22358545 -0.67082751
vn 0.70710678 0.00000268 -0.70710678
vn 0.92387992 -0.12100863 -0.36304656
vn 0.92387992 0.00000079 -0.38268250
vn 1.00000000 0.00000000 0.00000000
vn 1.00000000 0.00000000 0.00000000
vn 0.92387992 0.12102091 0.36304247
vn 0.92387992 0.00000079 0.38268250
vn 0.70710678 0.22362737 0.67081353
vn 0.70710678 0.00000269 0.70710678
vn 0.38268250 0.29219141 0.87645780
vn 0.38268250 0.00000460 0.92387992
vn -0.70710651 -0.22779491 0.66941008
vn -0.70710595 -0.23591763 0.66659137
vn -0.70710689 -0.09288830 0.70097904
vn -0.92387982 -0.12328111 0.36228145
vn -0.92387960 -0.12767726 0.36075616
vn -0.92387996 -0.05027071 0.37936615
vn -1.00000000 -0.00000000 0.00000000
vn -1.00000000 -0.00000000 0.00000000
vn -1.00000000 -0.00000000 0.00000000
vn -0.92387982 0.12328031 -0.36228173
vn -0.92387960 0.12767672 -0.36075635
vn -0.92387996 0.05027084 -0.37936614
vn -0.70710651 0.22779216 -0.66941102
vn -0.70710595 0.23591577 -0.66659203
vn -0.70710689 0.09288873 -0.70097898
vn -0.38268225 0.29762428 -0.87462797
vn -0.38268173 0.30823831 -0.87094422
vn -0.38268260 0.12136512 -0.91587365
vn -0.00000000 0.32214581 -0.94669006
vn -0.00000000 0.33363435 -0.94270256
vn -0.00000000 0.13136464 -0.99133412
vn 0.38268225 0.29762428 -0.87462797
vn 0.38268173 0.30823831 -0.87094422
vn 0.38268260 0.12136512 -0.91587365
vn 0.70710651 0.22779216 -0.66941102
vn 0.70710595 0.23591577 -0.66659203
vn 0.70710689 0.09288873 -0.70097898
vn 0.92387982 0.12328031 -0.36228173
vn 0.92387960 0.12767672 -0.36075635
vn 0.92387996 0.05027084 -0.37936614
vn 1.00000000 -0.00000000 0.00000000
vn 1.00000000 0.00000000 -0.00000000
vn 1.00000000 -0.00000000 0.00000000
vn 0.92387982 -0.12328111 0.36228145
vn 0.92387960 -0.12767726 0.36075616
vn 0.92387996 -0.05027071 0.37936615
vn 0.70710651 -0.22779491 0.66941008
vn 0.70710595 -0.23591763 0.66659137
vn 0.70710689 -0.09288830 0.70097904
s 1
usemtl Stem
f 35/35/35 73/73/73 72/72/72
f 66/66/66 106/106/106 72/109/72
f 64/64/64 104/104/104 106/106/106
f 62/62/62 102/102/102 104/104/104
f 60/60/60 100/100/100 102/102/102
f 58/58/58 98/98/98 100/100/100
f 56/56/56 96/96/96 98/98/98
f 54/54/54 94/94/94 96/96/96
f 52/52/52 92/92/92 94/94/94
f 129/136/129 126/133/126 52/52/52
f 130/137/130 127/134/127 126/133/126
f 131/138/131 128/135/128 127/134/127
f 128/135/128 53/53/53 125/132/125
f 125/132/125 51/51/51 122/129/122
f 124/131/124 122/129/122 121/128/121
f 123/130/123 121/128/121 120/127/120
f 50/50/50 120/127/120 48/48/48
f 48/48/48 117/124/117 46/46/46
f 46/46/46 114/121/114 44/44/44
f 44/44/44 111/118/111 42/42/42
f 42/42/42 108/115/108 40/40/40
f 40/40/40 71/71/71 80/80/80
f 108/115/108 37/37/37 36/36/36
f 36/36/36 75/75/75 74/74/74
f 70/70/70 75/111/75 76/112/76
f 67/67/67 76/112/76 77/113/77
f 77/113/77 78/114/78 107/107/107
f 79/79/79 78/78/78 77/77/77
f 39/39/39 81/81/81 79/79/79
f 41/41/41 83/83/83 81/81/81
f 43/43/43 85/85/85 83/83/83
f 45/45/45 87/87/87 85/85/85
f 47/47/47 89/89/89 87/87/87
f 49/49/49 91/91/91 89/89/89
f 47/47/47 49/49/49 89/89/89
f 49/49/49 47/47/47 119/126/119
f 118/125/118 119/126/119 116/123/116
f 115/122/115 116/123/116 113/120/113
f 112/119/112 113/120/113 110/117/110
f 109/116/109 110/117/110 38/38/38
f 112/119/112 110/117/110 109/116/109
f 115/122/115 113/120/113 112/119/112
f 118/125/118 116/123/116 115/122/115
f 119/126/119 47/47/47 116/123/116
f 45/45/45 47/47/47 87/87/87
f 47/47/47 45/45/45 116/123/116
f 116/123/116 45/45/45 113/120/113
f 43/43/43 45/45/45 85/85/85
f 45/45/45 43/43/43 113/120/113
f 113/120/113 43/43/43 110/117/110
f 41/41/41 43/43/43 83/83/83
f 43/43/43 41/41/41 110/117/110
f 110/117/110 41/41/41 38/38/38
f 39/39/39 41/41/41 81/81/81
f 41/41/41 39/39/39 38/38/38
f 39/39/39 79/79/79 77/77/77
f 67/67/67 77/113/77 107/107/107
f 67/67/67 107/107/107 105/105/105
f 65/65/65 105/105/105 103/103/103
f 63/63/63 103/103/103 101/101/101
f 61/61/61 101/101/101 99/99/99
f 59/59/59 99/99/99 97/97/97
f 57/57/57 97/97/97 95/95/95
f 55/55/55 95/95/95 93/93/93
f 137/144/137 57/57/57 134/141/134
f 140/147/140 137/144/137 136/143/136
f 139/146/139 136/143/136 135/142/135
f 142/149/142 143/150/143 139/146/139
f 146/153/146 143/150/143 142/149/142
f 145/152/145 146/153/146 142/149/142
f 69/69/69 145/152/145 144/151/144
f 68/68/68 69/69/69 144/151/144
f 144/151/144 145/152/145 141/148/141
f 145/152/145 142/149/142 141/148/141
f 141/148/141 142/149/142 138/145/138
f 142/149/142 139/146/139 138/145/138
f 138/145/138 139/146/139 135/142/135
f 136/143/136 133/140/133 132/139/132
f 135/142/135 136/143/136 132/139/132
f 143/150/143 140/147/140 139/146/139
f 139/146/139 140/147/140 136/143/136
f 137/144/137 134/141/134 133/140/133
f 136/143/136 137/144/137 133/140/133
f 55/55/55 57/57/57 95/95/95
f 134/141/134 57/57/57 55/55/55
f 140/147/140 59/59/59 137/144/137
f 57/57/57 59/59/59 97/97/97
f 137/144/137 59/59/59 57/57/57
f 143/150/143 61/61/61 140/147/140
f 59/59/59 61/61/61 99/99/99
f 140/147/140 61/61/61 59/59/59
f 146/153/146 63/63/63 143/150/143
f 61/61/61 63/63/63 101/101/101
f 143/150/143 63/63/63 61/61/61
f 63/63/63 65/65/65 103/103/103
f 146/153/146 65/65/65 63/63/63
f 65/65/65 67/67/67 105/105/105
f 39/39/39 77/77/77 76/76/76
f 38/38/38 39/39/39 76/76/76
f 67/67/67 70/70/70 76/112/76
f 70/70/70 65/65/65 146/153/146
f 70/70/70 67/67/67 65/65/65
f 70/70/70 146/153/146 145/152/145
f 69/69/69 70/70/70 145/152/145
f 70/70/70 69/69/69 75/111/75
f 68/68/68 74/110/74 75/111/75
f 69/69/69 68/68/68 75/111/75
f 38/38/38 76/76/76 75/75/75
f 109/116/109 38/38/38 37/37/37
f 37/37/37 38/38/38 75/75/75
f 36/36/36 37/37/37 75/75/75
f 108/115/108 109/116/109 37/37/37
f 40/40/40 108/115/108 36/36/36
f 42/42/42 80/80/80 82/82/82
f 42/42/42 40/40/40 80/80/80
f 111/118/111 109/116/109 108/115/108
f 111/118/111 112/119/112 109/116/109
f 42/42/42 111/118/111 108/115/108
f 44/44/44 82/82/82 84/84/84
f 44/44/44 42/42/42 82/82/82
f 114/121/114 112/119/112 111/118/111
f 114/121/114 115/122/115 112/119/112
f 44/44/44 114/121/114 111/118/111
f 46/46/46 84/84/84 86/86/86
f 46/46/46 44/44/44 84/84/84
f 117/124/117 115/122/115 114/121/114
f 117/124/117 118/125/118 115/122/115
f 46/46/46 117/124/117 114/121/114
f 48/48/48 86/86/86 88/88/88
f 48/48/48 46/46/46 86/86/86
f 50/50/50 88/88/88 90/90/90
f 50/50/50 48/48/48 88/88/88
f 120/127/120 118/125/118 117/124/117
f 48/48/48 120/127/120 117/124/117
f 50/50/50 123/130/123 120/127/120
f 121/128/121 119/126/119 118/125/118
f 120/127/120 121/128/121 118/125/118
f 123/130/123 124/131/124 121/128/121
f 122/129/122 49/49/49 119/126/119
f 121/128/121 122/129/122 119/126/119
f 51/51/51 93/93/93 91/91/91
f 49/49/49 51/51/51 91/91/91
f 51/51/51 49/49/49 122/129/122
f 124/131/124 125/132/125 122/129/122
f 53/53/53 55/55/55 93/93/93
f 51/51/51 53/53/53 93/93/93
f 53/53/53 51/51/51 125/132/125
f 134/141/134 55/55/55 131/138/131
f 131/138/131 53/53/53 128/135/128
f 131/138/131 55/55/55 53/53/53
f 127/134/127 125/132/125 124/131/124
f 127/134/127 128/135/128 125/132/125
f 134/141/134 131/138/131 130/137/130
f 133/140/133 134/141/134 130/137/130
f 130/137/130 131/138/131 127/134/127
f 126/133/126 124/131/124 123/130/123
f 126/133/126 127/134/127 124/131/124
f 133/140/133 130/137/130 129/136/129
f 132/139/132 133/140/133 129/136/129
f 129/136/129 130/137/130 126/133/126
f 52/52/52 123/130/123 50/50/50
f 52/52/52 126/133/126 123/130/123
f 52/52/52 90/90/90 92/92/92
f 52/52/52 50/50/50 90/90/90
f 132/139/132 129/136/129 54/54/54
f 54/54/54 129/136/129 52/52/52
f 54/54/54 52/52/52 94/94/94
f 135/142/135 132/139/132 56/56/56
f 56/56/56 132/139/132 54/54/54
f 56/56/56 54/54/54 96/96/96
f 138/145/138 135/142/135 58/58/58
f 58/58/58 135/142/135 56/56/56
f 58/58/58 56/56/56 98/98/98
f 141/148/141 138/145/138 60/60/60
f 60/60/60 138/145/138 58/58/58
f 60/60/60 58/58/58 100/100/100
f 144/151/144 141/148/141 62/62/62
f 62/62/62 141/148/141 60/60/60
f 62/62/62 60/60/60 102/102/102
f 68/68/68 144/151/144 64/64/64
f 64/64/64 144/151/144 62/62/62
f 64/64/64 62/62/62 104/104/104
f 68/68/68 66/66/66 74/110/74
f 66/66/66 68/68/68 64/64/64
f 66/66/66 64/64/64 106/106/106
f 66/66/66 73/108/73 74/110/74
f 66/66/66 72/109/72 73/108/73
f 40/40/40 36/36/36 35/35/35
f 40/40/40 35/35/35 71/71/71
f 35/35/35 74/74/74 73/73/73
f 35/35/35 36/36/36 74/74/74
f 35/35/35 72/72/72 71/71/71
