mtllib Terrain_Escarpment_Top_Corner_Inner.mtl
o Dirt_Wall
g Dirt_Wall
v -0.29743665 0.23096998 0.01096171
v -0.12570761 0.23096998 0.12570761
v -0.01096171 0.23096998 0.29743665
v -0.32847425 0.17677670 0.08589421
v -0.08589421 0.17677670 0.32847425
v -0.34921290 0.09567063 0.13596245
v -0.13596245 0.09567063 0.34921290
v -0.35649529 0.00000000 0.15354396
v -0.15354396 0.00000000 0.35649529
v -0.34921290 -0.09567063 0.13596245
v -0.13596245 -0.09567063 0.34921290
v -0.32847425 -0.17677670 0.08589421
v -0.08589421 -0.17677670 0.32847425
v -0.29743665 -0.23096998 0.01096171
v -0.01096171 -0.23096998 0.29743665
v -0.12570761 -0.23096998 0.12570761
v -0.50000000 0.23096969 -0.02932868
v -0.50000000 0.25000000 -0.12500000
v -0.26082719 0.25000000 -0.07742225
v -0.05806425 0.25000000 0.05806463
v 0.07742537 0.25000000 0.26082601
v 0.12500000 0.25000000 0.50000000
v 0.02932868 0.23096969 0.50000000
v -0.50000000 0.17677670 0.05177670
v -0.05177670 0.17677670 0.50000000
v -0.50000000 0.09567132 0.10596969
v -0.10596969 0.09567132 0.50000000
v -0.50000000 0.00000000 0.12500000
v -0.12500000 0.00000000 0.50000000
v -0.50000000 -0.09567132 0.10596969
v -0.10596969 -0.09567132 0.50000000
v -0.50000000 -0.17677670 0.05177670
v -0.05177670 -0.17677670 0.50000000
v -0.50000000 -0.23096969 -0.02932868
v 0.02932868 -0.23096969 0.50000000
v -0.26082471 -0.25000000 -0.07742641
v -0.50000000 -0.25000000 -0.12500000
v -0.05805826 -0.25000000 0.05805826
v 0.07742655 -0.25000000 0.26082504
v 0.12500000 -0.25000000 0.50000000
v -0.18305826 0.17677670 0.18305826
v -0.22137870 0.09567063 0.22137870
v -0.23483496 0.00000000 0.23483496
v -0.22137870 -0.09567063 0.22137870
v -0.18305826 -0.17677670 0.18305826
v 0.12500000 -1.00000000 0.50000000
v 0.07742548 -1.00000000 0.26082627
v -0.05806490 -1.00000000 0.05806398
v -0.26082700 -1.00000000 -0.07742217
v -0.50000000 -1.00000000 -0.12500000
v 0.50000000 0.25000000 0.50000000
v 0.50000000 0.25000000 -0.50000000
v -0.50000000 0.25000000 -0.50000000
vt 0.25988825 0.12994545
vt 0.50000000 0.12994545
vt 0.74011175 0.12994545
vt 0.25988825 0.25000000
vt 0.74011175 0.25000000
vt 0.25988825 0.37005455
vt 0.74011175 0.37005455
vt 0.25988825 0.50000000
vt 0.74011175 0.50000000
vt 0.25988825 0.62994545
vt 0.74011175 0.62994545
vt 0.25988825 0.75000000
vt 0.74011175 0.75000000
vt 0.25988825 0.87005455
vt 0.74011175 0.87005455
vt 0.50000000 0.87005455
vt 0.00000000 0.12994545
vt 0.00000000 0.00000000
vt 0.25988825 0.00000585
vt 0.50000000 0.00000810
vt 0.74011175 0.00000140
vt 1.00000000 0.00000000
vt 1.00000000 0.12994545
vt 0.00000000 0.25000000
vt 1.00000000 0.25000000
vt 0.00000000 0.37005455
vt 1.00000000 0.37005455
vt 0.00000000 0.50000000
vt 1.00000000 0.50000000
vt 0.00000000 0.62994545
vt 1.00000000 0.62994545
vt 0.00000000 0.75000000
vt 1.00000000 0.75000000
vt 0.00000000 0.87005455
vt 1.00000000 0.87005455
vt 0.25988825 1.00000000
vt 0.00000000 1.00000000
vt 0.50000000 1.00000000
vt 0.74011175 1.00000000
vt 1.00000000 1.00000000
vt 0.50000000 0.25000000
vt 0.50000000 0.37005455
vt 0.50000000 0.50000000
vt 0.50000000 0.62994545
vt 0.50000000 0.75000000
vt 0.00000000 0.24994448
vt 0.00000000 0.00000000
vt 1.00000000 0.00000000
vt 1.00000000 0.24994448
vt 1.00000000 0.49991562
vt 0.00000000 0.49991562
vt 1.00000000 0.74990671
vt 0.00000000 0.74990671
vt 1.00000000 1.00000000
vt 0.00000000 1.00000000
vt 1.00000000 0.62500000
vt 1.00000000 1.00000000
vt 0.00000000 1.00000000
vt 0.00000000 0.00000000
vt 0.37500000 0.00000000
vt 0.42257774 0.23917279
vt 0.55806439 0.44193551
vt 0.76082599 0.57742536
vn -0.14641372 0.92388010 0.35356552
vn -0.27059739 0.92387992 0.27059739
vn -0.35356552 0.92388010 0.14641372
vn -0.27053807 0.70710727 0.65330580
vn -0.65330580 0.70710727 0.27053807
vn -0.35347534 0.38268295 0.85358593
vn -0.85358593 0.38268295 0.35347534
vn -0.38259887 0.00000000 0.92391456
vn -0.92391456 0.00000000 0.38259887
vn -0.35347534 -0.38268295 0.85358593
vn -0.85358593 -0.38268295 0.35347534
vn -0.27053807 -0.70710727 0.65330580
vn -0.65330580 -0.70710727 0.27053807
vn -0.14641372 -0.92388010 0.35356552
vn -0.35356552 -0.92388010 0.14641372
vn -0.27059739 -0.92387992 0.27059739
vn 0.00028999 0.92387988 0.38268248
vn 0.00000000 1.00000000 -0.00000000
vn -0.00000633 1.00000000 0.00001529
vn -0.00001620 1.00000000 0.00001620
vn -0.00000367 1.00000000 0.00000152
vn 0.00000000 1.00000000 0.00000000
vn -0.38268248 0.92387988 -0.00028999
vn 0.00053584 0.70710668 0.70710668
vn -0.70710668 0.70710668 -0.00053584
vn 0.00070011 0.38268241 0.92387969
vn -0.92387969 0.38268241 -0.00070011
vn 0.00075779 -0.00000000 0.99999971
vn -0.99999971 0.00000000 -0.00075779
vn 0.00070011 -0.38268241 0.92387969
vn -0.92387969 -0.38268241 -0.00070011
vn 0.00053584 -0.70710668 0.70710668
vn -0.70710668 -0.70710668 -0.00053584
vn 0.00028999 -0.92387988 0.38268248
vn -0.38268248 -0.92387988 -0.00028999
vn 0.00000000 -1.00000000 0.00000000
vn 0.00000000 -1.00000000 0.00000000
vn 0.00000000 -1.00000000 0.00000000
vn 0.00000000 -1.00000000 0.00000000
vn 0.00000000 -1.00000000 0.00000000
vn -0.50000000 0.70710678 0.50000000
vn -0.65328176 0.38268250 0.65328176
vn -0.70710678 0.00000000 0.70710678
vn -0.65328176 -0.38268250 0.65328176
vn -0.50000000 -0.70710678 0.50000000
vn -0.92397255 0.00000000 0.38245878
vn -0.99999971 0.00000000 -0.00075779
vn -0.99999971 0.00000000 -0.00075779
vn -0.92397255 0.00000000 0.38245878
vn -0.70733163 0.00000000 0.70688187
vn -0.70733163 0.00000000 0.70688187
vn -0.38269856 0.00000000 0.92387326
vn -0.38269856 0.00000000 0.92387326
vn 0.00075779 0.00000000 0.99999971
vn 0.00075779 0.00000000 0.99999971
vn 0.00000000 1.00000000 -0.00000000
vn 0.00000000 1.00000000 -0.00000000
vn 0.00000000 1.00000000 -0.00000000
s 1
usemtl Grass
f 1/1/1 19/19/19 17/17/17
f 4/4/4 17/17/17 24/24/24
f 6/6/6 24/24/24 26/26/26
f 8/8/8 42/42/42 6/6/6
f 9/9/9 7/7/7 42/42/42
f 7/7/7 29/29/29 27/27/27
f 11/11/11 31/31/31 29/29/29
f 11/11/11 33/33/33 31/31/31
f 13/13/13 35/35/35 33/33/33
f 15/15/15 40/40/40 35/35/35
f 15/15/15 39/39/39 40/40/40
f 15/15/15 38/38/38 39/39/39
f 16/16/16 36/36/36 38/38/38
f 14/14/14 37/37/37 36/36/36
f 14/14/14 34/34/34 37/37/37
f 12/12/12 32/32/32 34/34/34
f 10/10/10 30/30/30 32/32/32
f 45/45/45 44/44/44 10/10/10
f 10/10/10 28/28/28 30/30/30
f 12/12/12 45/45/45 10/10/10
f 12/12/12 10/10/10 32/32/32
f 14/14/14 12/12/12 34/34/34
f 16/16/16 14/14/14 36/36/36
f 16/16/16 45/45/45 12/12/12
f 14/14/14 16/16/16 12/12/12
f 15/15/15 16/16/16 38/38/38
f 13/13/13 15/15/15 35/35/35
f 16/16/16 13/13/13 45/45/45
f 16/16/16 15/15/15 13/13/13
f 11/11/11 13/13/13 33/33/33
f 45/45/45 11/11/11 44/44/44
f 45/45/45 13/13/13 11/11/11
f 7/7/7 27/27/27 25/25/25
f 5/5/5 25/25/25 23/23/23
f 23/23/23 22/22/22 21/21/21
f 20/62/20 21/63/21 52/58/57
f 2/2/2 3/3/3 20/20/20
f 21/63/21 51/57/56 52/58/57
f 3/3/3 21/21/21 20/20/20
f 21/63/21 22/56/22 51/57/56
f 3/3/3 23/23/23 21/21/21
f 3/3/3 5/5/5 23/23/23
f 5/5/5 3/3/3 2/2/2
f 41/41/41 5/5/5 2/2/2
f 5/5/5 7/7/7 25/25/25
f 7/7/7 5/5/5 41/41/41
f 9/9/9 11/11/11 29/29/29
f 44/44/44 9/9/9 43/43/43
f 44/44/44 11/11/11 9/9/9
f 7/7/7 9/9/9 29/29/29
f 43/43/43 9/9/9 42/42/42
f 42/42/42 7/7/7 41/41/41
f 44/44/44 43/43/43 8/8/8
f 10/10/10 44/44/44 8/8/8
f 10/10/10 8/8/8 28/28/28
f 8/8/8 43/43/43 42/42/42
f 6/6/6 26/26/26 28/28/28
f 8/8/8 6/6/6 28/28/28
f 6/6/6 42/42/42 41/41/41
f 6/6/6 41/41/41 4/4/4
f 6/6/6 4/4/4 24/24/24
f 4/4/4 41/41/41 2/2/2
f 52/58/57 53/59/58 19/61/19
f 19/61/19 20/62/20 52/58/57
f 53/59/58 18/60/18 19/61/19
f 19/19/19 18/18/18 17/17/17
f 4/4/4 2/2/2 1/1/1
f 4/4/4 1/1/1 17/17/17
f 1/1/1 20/20/20 19/19/19
f 1/1/1 2/2/2 20/20/20
s 2
usemtl Dirt
f 47/49/49 46/48/48 40/47/47
f 39/46/46 48/50/50 47/49/49
f 36/53/53 49/52/52 48/50/50
f 37/55/55 50/54/54 49/52/52
f 36/53/53 37/55/55 49/52/52
f 38/51/51 36/53/53 48/50/50
f 39/46/46 38/51/51 48/50/50
f 47/49/49 40/47/47 39/46/46
o Hidden
g Hidden
v 0.50000000 0.25000000 -0.50000000
v -0.50000000 0.25000000 -0.50000000
v -0.50000000 -1.00000000 -0.50000000
v 0.50000000 -1.00000000 -0.50000000
v 0.12500000 -1.00000000 0.50000000
v 0.50000000 -1.00000000 0.50000000
v -0.50000000 -1.00000000 -0.12500000
v 0.07742547 -1.00000000 0.26082625
v -0.05806515 -1.00000000 0.05806373
v -0.26082703 -1.00000000 -0.07742218
v 0.12500000 0.25000000 0.50000000
v 0.12500000 -0.25000000 0.50000000
v 0.50000000 0.25000000 0.50000000
v 0.02932937 0.23096998 0.50000000
v -0.05177670 0.17677670 0.50000000
v -0.10596998 0.09567063 0.50000000
v -0.12500000 0.00000000 0.50000000
v -0.10596998 -0.09567063 0.50000000
v -0.05177670 -0.17677670 0.50000000
v 0.02932937 -0.23096998 0.50000000
v -0.50000000 -0.25000000 -0.12500000
v -0.50000000 0.25000000 -0.12500000
v -0.50000000 -0.23096998 -0.02932937
v -0.50000000 -0.17677670 0.05177670
v -0.50000000 -0.09567063 0.10596998
v -0.50000000 0.00000000 0.12500000
v -0.50000000 0.09567063 0.10596998
v -0.50000000 0.17677670 0.05177670
v -0.50000000 0.23096998 -0.02932937
vt 0.00000000 1.00000000
vt 0.00000000 0.00000000
vt 1.00000000 0.00000000
vt 1.00000000 1.00000000
vt 1.00000000 0.62500000
vt 1.00000000 1.00000000
vt 0.00000000 1.00000000
vt 0.00000000 0.00000000
vt 0.37500000 0.00000000
vt 0.76082623 0.57742546
vt 0.55806349 0.44193461
vt 0.42257781 0.23917295
vt 0.00000000 0.40000000
vt 0.40000000 0.40000000
vt 1.00000000 0.40000000
vt 1.00000000 1.00000000
vt 0.00000000 1.00000000
vt 0.01522379 0.24692811
vt 0.05857864 0.11715729
vt 0.12346406 0.03044757
vt 0.20000000 0.00000000
vt 0.27653594 0.03044757
vt 0.34142136 0.11715729
vt 0.38477621 0.24692811
vt 0.00000000 1.00000000
vt 0.00000000 0.00000000
vt 1.00000000 0.00000000
vt 1.00000000 1.00000000
vt 0.40000000 0.60000000
vt 0.00000000 0.60000000
vt 0.00000000 0.00000000
vt 1.00000000 0.00000000
vt 1.00000000 0.60000000
vt 0.38477621 0.75307189
vt 0.34142136 0.88284271
vt 0.27653594 0.96955243
vt 0.20000000 1.00000000
vt 0.12346406 0.96955243
vt 0.05857864 0.88284271
vt 0.01522379 0.75307189
vn -0.00000000 -0.00000000 -1.00000000
vn -0.00000000 -0.00000000 -1.00000000
vn -0.00000000 -0.00000000 -1.00000000
vn -0.00000000 -0.00000000 -1.00000000
vn -0.00000000 -1.00000000 0.00000000
vn -0.00000000 -1.00000000 0.00000000
vn -0.00000000 -1.00000000 0.00000000
vn -0.00000000 -1.00000000 0.00000000
vn -0.00000000 -1.00000000 0.00000000
vn -0.00000000 -1.00000000 0.00000000
vn -0.00000000 -1.00000000 0.00000000
vn -0.00000000 -1.00000000 0.00000000
vn 0.00000000 0.00000000 1.00000000
vn 0.00000000 0.00000000 1.00000000
vn 0.00000000 0.00000000 1.00000000
vn 0.00000000 0.00000000 1.00000000
vn 0.00000000 0.00000000 1.00000000
vn 0.00000000 0.00000000 1.00000000
vn 0.00000000 0.00000000 1.00000000
vn 0.00000000 0.00000000 1.00000000
vn 0.00000000 0.00000000 1.00000000
vn 0.00000000 0.00000000 1.00000000
vn 0.00000000 0.00000000 1.00000000
vn 0.00000000 0.00000000 1.00000000
vn 1.00000000 -0.00000000 0.00000000
vn 1.00000000 -0.00000000 0.00000000
vn 1.00000000 -0.00000000 0.00000000
vn 1.00000000 -0.00000000 0.00000000
vn -1.00000000 0.00000000 -0.00000000
vn -1.00000000 0.00000000 -0.00000000
vn -1.00000000 0.00000000 -0.00000000
vn -1.00000000 0.00000000 -0.00000000
vn -1.00000000 0.00000000 -0.00000000
vn -1.00000000 0.00000000 -0.00000000
vn -1.00000000 0.00000000 -0.00000000
vn -1.00000000 0.00000000 -0.00000000
vn -1.00000000 0.00000000 -0.00000000
vn -1.00000000 0.00000000 -0.00000000
vn -1.00000000 0.00000000 -0.00000000
vn -1.00000000 0.00000000 -0.00000000
s 1
usemtl Hidden
f 57/67/62 56/66/61 54/64/59
f 56/66/61 55/65/60 54/64/59
s 2
f 59/69/64 58/68/63 61/73/68
f 57/70/65 61/73/68 62/74/69
f 56/71/66 57/70/65 63/75/70
f 63/75/70 60/72/67 56/71/66
f 57/70/65 62/74/69 63/75/70
f 57/70/65 59/69/64 61/73/68
s 3
f 69/83/78 70/84/79 71/85/80
f 64/76/71 69/83/78 65/77/72
f 65/77/72 59/79/74 66/80/75
f 65/77/72 58/78/73 59/79/74
f 72/86/81 73/87/82 65/77/72
f 66/80/75 64/76/71 65/77/72
f 64/76/71 67/81/76 68/82/77
f 69/83/78 72/86/81 65/77/72
f 64/76/71 68/82/77 69/83/78
f 69/83/78 71/85/80 72/86/81
s 4
f 59/91/86 57/90/85 54/89/84
f 59/91/86 54/89/84 66/88/83
s 5
f 78/99/94 79/100/95 80/101/96
f 74/92/87 80/101/96 75/93/88
f 81/102/97 82/103/98 75/93/88
f 74/92/87 55/94/89 56/95/90
f 56/95/90 60/96/91 74/92/87
f 74/92/87 75/93/88 55/94/89
f 74/92/87 76/97/92 77/98/93
f 74/92/87 77/98/93 80/101/96
f 80/101/96 81/102/97 75/93/88
f 77/98/93 78/99/94 80/101/96
