mtllib Terrain_Escarpment_Mid_Corner_Inner.mtl
o Dirt_Wall
g Dirt_Wall
v 0.07742548 1.00000000 0.26082627
v 0.12500000 1.00000000 0.50000000
v 0.12500000 0.00000000 0.50000000
v 0.07742548 0.00000000 0.26082627
v -0.05806490 1.00000000 0.05806398
v -0.05806490 0.00000000 0.05806398
v -0.26082700 1.00000000 -0.07742217
v -0.26082700 0.00000000 -0.07742217
v -0.50000000 0.00000000 -0.12500000
v -0.50000000 1.00000000 -0.12500000
vt 0.00000000 0.24994448
vt 0.00000000 0.00000000
vt 1.00000000 0.00000000
vt 1.00000000 0.24994448
vt 0.00000000 0.49991562
vt 1.00000000 0.49991562
vt 0.00000000 0.74990671
vt 1.00000000 0.74990671
vt 1.00000000 1.00000000
vt 0.00000000 1.00000000
vn -0.92397255 0.00000000 0.38245878
vn -0.99999971 0.00000000 -0.00075779
vn -0.99999971 0.00000000 -0.00075779
vn -0.92397255 0.00000000 0.38245878
vn -0.70733163 0.00000000 0.70688187
vn -0.70733163 0.00000000 0.70688187
vn -0.38269856 0.00000000 0.92387326
vn -0.38269856 0.00000000 0.92387326
vn 0.00075779 0.00000000 0.99999971
vn 0.00075779 0.00000000 0.99999971
s 1
usemtl Dirt
f 4/4/4 3/3/3 2/2/2
f 6/6/6 4/4/4 1/1/1
f 8/8/8 6/6/6 5/5/5
f 10/10/10 9/9/9 8/8/8
f 7/7/7 10/10/10 8/8/8
f 8/8/8 5/5/5 7/7/7
f 6/6/6 1/1/1 5/5/5
f 4/4/4 2/2/2 1/1/1
o Hidden
g Hidden
v 0.12500000 1.00000000 0.50000000
v 0.12500000 0.00000000 0.50000000
v 0.50000000 0.00000000 0.50000000
v 0.50000000 1.00000000 0.50000000
v 0.50000000 1.00000000 -0.50000000
v -0.50000000 1.00000000 -0.50000000
v -0.50000000 1.00000000 -0.12500000
v -0.26082703 1.00000000 -0.07742218
v -0.05806515 1.00000000 0.05806373
v 0.07742547 1.00000000 0.26082625
v -0.50000000 0.00000000 -0.50000000
v -0.50000000 0.00000000 -0.12500000
v 0.50000000 -0.00000000 -0.50000000
v 0.07742547 0.00000000 0.26082625
v -0.05806515 0.00000000 0.05806373
v -0.26082703 0.00000000 -0.07742218
vt 0.00000000 0.00000000
vt 1.00000000 0.00000000
vt 1.00000000 1.00000000
vt 0.00000000 1.00000000
vt 1.00000000 1.00000000
vt 0.00000000 1.00000000
vt 0.00000000 0.00000000
vt 0.37500000 0.00000000
vt 1.00000000 0.62500000
vt 0.42257781 0.23917295
vt 0.55806349 0.44193461
vt 0.76082623 0.57742546
vt 0.00000000 0.00000000
vt 1.00000000 0.00000000
vt 1.00000000 1.00000000
vt 0.00000000 1.00000000
vt 0.00000000 0.00000000
vt 1.00000000 0.00000000
vt 1.00000000 1.00000000
vt 0.00000000 1.00000000
vt 0.00000000 0.00000000
vt 1.00000000 0.00000000
vt 1.00000000 1.00000000
vt 0.00000000 1.00000000
vt 1.00000000 1.00000000
vt 0.00000000 1.00000000
vt 0.00000000 0.00000000
vt 0.37500000 0.00000000
vt 1.00000000 0.62500000
vt 0.76082623 0.57742546
vt 0.55806349 0.44193461
vt 0.42257781 0.23917295
vn 0.00000000 0.00000000 1.00000000
vn 0.00000000 0.00000000 1.00000000
vn 0.00000000 0.00000000 1.00000000
vn 0.00000000 0.00000000 1.00000000
vn 0.00000000 1.00000000 -0.00000000
vn 0.00000000 1.00000000 -0.00000000
vn 0.00000000 1.00000000 -0.00000000
vn 0.00000000 1.00000000 -0.00000000
vn 0.00000000 1.00000000 -0.00000000
vn 0.00000000 1.00000000 -0.00000000
vn 0.00000000 1.00000000 -0.00000000
vn 0.00000000 1.00000000 -0.00000000
vn -1.00000000 0.00000000 0.00000000
vn -1.00000000 0.00000000 0.00000000
vn -1.00000000 0.00000000 0.00000000
vn -1.00000000 0.00000000 0.00000000
vn -0.00000000 -0.00000000 -1.00000000
vn -0.00000000 -0.00000000 -1.00000000
vn -0.00000000 -0.00000000 -1.00000000
vn -0.00000000 -0.00000000 -1.00000000
vn 1.00000000 -0.00000000 -0.00000000
vn 1.00000000 -0.00000000 -0.00000000
vn 1.00000000 -0.00000000 -0.00000000
vn 1.00000000 -0.00000000 -0.00000000
vn -0.00000000 -1.00000000 0.00000000
vn -0.00000000 -1.00000000 0.00000000
vn -0.00000000 -1.00000000 0.00000000
vn -0.00000000 -1.00000000 0.00000000
vn -0.00000000 -1.00000000 0.00000000
vn -0.00000000 -1.00000000 0.00000000
vn -0.00000000 -1.00000000 0.00000000
vn -0.00000000 -1.00000000 0.00000000
s 1
usemtl Hidden
f 11/11/11 12/12/12 13/13/13
f 11/11/11 13/13/13 14/14/14
s 2
f 20/22/22 11/19/19 14/15/15
f 19/21/21 20/22/22 15/16/16
f 15/16/16 16/17/17 18/20/20
f 16/17/17 17/18/18 18/20/20
f 18/20/20 19/21/21 15/16/16
f 20/22/22 14/15/15 15/16/16
s 3
f 16/23/23 21/24/24 17/26/26
f 21/24/24 22/25/25 17/26/26
s 4
f 15/30/30 23/29/29 16/27/27
f 23/29/29 21/28/28 16/27/27
s 5
f 14/34/34 13/33/33 15/31/31
f 13/33/33 23/32/32 15/31/31
s 6
f 13/35/35 12/39/39 24/40/40
f 23/36/36 24/40/40 25/41/41
f 26/42/42 21/37/37 23/36/36
f 26/42/42 22/38/38 21/37/37
f 23/36/36 25/41/41 26/42/42
f 23/36/36 13/35/35 24/40/40
