mtllib Terrain_Escarpment_Mid_Straight.mtl
o Dirt_Wall
g Dirt_Wall
v 0.12500000 1.00000000 0.50000000
v 0.12500000 0.00000000 0.50000000
v 0.12500000 0.00000000 -0.50000000
v 0.12500000 1.00000000 -0.50000000
vt 0.00000000 0.00000000
vt 1.00000000 0.00000000
vt 1.00000000 1.00000000
vt 0.00000000 1.00000000
vn -1.00000000 0.00000000 0.00000000
vn -1.00000000 0.00000000 0.00000000
vn -1.00000000 0.00000000 0.00000000
vn -1.00000000 0.00000000 0.00000000
s 1
usemtl Dirt
f 4/4/4 3/3/3 1/1/1
f 3/3/3 2/2/2 1/1/1
o Hidden
g Hidden
v 0.50000000 1.00000000 0.50000000
v 0.50000000 0.00000000 0.50000000
v 0.12500000 0.00000000 0.50000000
v 0.12500000 1.00000000 0.50000000
v 0.50000000 1.00000000 -0.50000000
v 0.12500000 1.00000000 -0.50000000
v 0.50000000 0.00000000 -0.50000000
v 0.12500000 0.00000000 -0.50000000
vt 0.00000000 0.00000000
vt 1.00000000 0.00000000
vt 1.00000000 1.00000000
vt 0.00000000 1.00000000
vt 0.00000000 0.00000000
vt 1.00000000 0.00000000
vt 1.00000000 1.00000000
vt 0.00000000 1.00000000
vt 0.00000000 0.00000000
vt 1.00000000 0.00000000
vt 1.00000000 1.00000000
vt 0.00000000 1.00000000
vt 0.00000000 0.00000000
vt 1.00000000 0.00000000
vt 1.00000000 1.00000000
vt 0.00000000 1.00000000
vt 0.00000000 0.00000000
vt 1.00000000 0.00000000
vt 1.00000000 1.00000000
vt 0.00000000 1.00000000
vn -0.00000000 -0.00000000 1.00000000
vn -0.00000000 -0.00000000 1.00000000
vn -0.00000000 -0.00000000 1.00000000
vn -0.00000000 -0.00000000 1.00000000
vn 0.00000000 1.00000000 0.00000000
vn 0.00000000 1.00000000 0.00000000
vn 0.00000000 1.00000000 0.00000000
vn 0.00000000 1.00000000 0.00000000
vn -0.00000000 0.00000000 -1.00000000
vn -0.00000000 0.00000000 -1.00000000
vn -0.00000000 0.00000000 -1.00000000
vn -0.00000000 0.00000000 -1.00000000
vn -0.00000000 -1.00000000 -0.00000000
vn -0.00000000 -1.00000000 -0.00000000
vn -0.00000000 -1.00000000 -0.00000000
vn -0.00000000 -1.00000000 -0.00000000
vn 1.00000000 -0.00000000 -0.00000000
vn 1.00000000 -0.00000000 -0.00000000
vn 1.00000000 -0.00000000 -0.00000000
vn 1.00000000 -0.00000000 -0.00000000
s 1
usemtl Hidden
f 8/8/8 7/7/7 6/6/6
f 8/8/8 6/6/6 5/5/5
s 2
f 5/9/9 9/10/10 10/11/11
f 5/9/9 10/11/11 8/12/12
s 3
f 9/13/13 11/14/14 10/16/16
f 11/14/14 12/15/15 10/16/16
s 4
f 7/20/20 12/19/19 11/18/18
f 7/20/20 11/18/18 6/17/17
s 5
f 5/21/21 6/22/22 9/24/24
f 6/22/22 11/23/23 9/24/24
