mtllib Terrain_Escarpment_Top_Hill.mtl
o Dirt_Wall
g Dirt_Wall
v -0.06979109 0.33521596 -0.02932937
v 0.39517325 0.54878468 -0.02932937
v 0.87633817 0.78569280 -0.02932937
v 1.38230521 1.00342768 -0.02932937
v 1.92350537 1.16623784 -0.02932937
v -0.04991267 0.28479912 0.05177670
v 1.93500225 1.11327820 0.05177670
v -0.02016249 0.20934489 0.10596998
v 1.95220856 1.03401842 0.10596998
v 0.01493006 0.12034104 0.12500000
v 1.97250468 0.94052563 0.12500000
v 0.05002262 0.03133719 0.10596998
v 1.99280080 0.84703284 0.10596998
v 0.07977280 -0.04411703 0.05177670
v 2.01000712 0.76777306 0.05177670
v 0.09965122 -0.09453387 -0.02932937
v 2.02150399 0.71481342 -0.02932937
v 0.60035589 0.13491273 -0.02932937
v 1.07424386 0.36829268 -0.02932937
v 1.54509975 0.57112263 -0.02932937
v -0.50000000 0.23096969 -0.02932868
v -0.50000000 0.25000000 -0.12500000
v -0.07674557 0.35293007 -0.12500000
v 0.38732373 0.56613352 -0.12500000
v 0.86840017 0.80298985 -0.12500000
v 1.37563231 1.02124950 -0.12500000
v 1.91947130 1.18483533 -0.12500000
v 2.50000000 1.25000000 -0.12500000
v 2.50000000 1.23096969 -0.02932868
v -0.50000000 0.17677670 0.05177670
v 2.50000000 1.17677670 0.05177670
v -0.50000000 0.09567132 0.10596969
v 2.50000000 1.09567132 0.10596969
v -0.50000000 0.00000000 0.12500000
v 2.50000000 1.00000000 0.12500000
v -0.50000000 -0.09567132 0.10596969
v 2.50000000 0.90432868 0.10596969
v -0.50000000 -0.17677670 0.05177670
v 2.50000000 0.82322330 0.05177670
v -0.50000000 -0.23096969 -0.02932868
v 2.50000000 0.76903031 -0.02932868
v 0.10664180 -0.11223375 -0.12500000
v -0.50000000 -0.25000000 -0.12500000
v 0.60907798 0.11799648 -0.12500000
v 1.08242399 0.35111043 -0.12500000
v 1.55176866 0.55329930 -0.12500000
v 2.02552509 0.69621312 -0.12500000
v 2.50000000 0.75000000 -0.12500000
v 0.41924460 0.50023058 0.05177670
v 0.89955582 0.73672478 0.05177670
v 1.40140373 0.95271106 0.05177670
v 0.45526997 0.42756415 0.10596998
v 0.93430352 0.66343889 0.10596998
v 1.42998672 0.87680820 0.10596998
v 0.49776457 0.34184870 0.12500000
v 0.97529102 0.57699274 0.12500000
v 1.46370248 0.78727515 0.12500000
v 0.54025916 0.25613326 0.10596998
v 1.01627851 0.49054659 0.10596998
v 1.49741824 0.69774210 0.10596998
v 0.57628453 0.18346683 0.05177670
v 1.05102621 0.41726070 0.05177670
v 1.52600123 0.62183924 0.05177670
v 0.35408741 0.54969060 -0.12500000
v -0.06009487 0.35955367 -0.12500000
v 0.76286979 0.75229632 -0.12500000
v 1.17703187 0.94184666 -0.12500000
v 1.60421376 1.10050947 -0.12500000
v 2.04648006 1.20965321 -0.12500000
v 2.50000000 -1.00000000 -0.12500000
v -0.50000000 -1.00000000 -0.12500000
v -0.50000000 0.25000000 -0.50000000
v -0.06009487 0.35955367 -0.50000000
v 0.35408741 0.54969060 -0.50000000
v 0.76286979 0.75229632 -0.50000000
v 1.17703187 0.94184666 -0.50000000
v 1.60421376 1.10050947 -0.50000000
v 2.04648006 1.20965321 -0.50000000
v 2.50000000 1.25000000 -0.50000000
vt 0.22004731 0.12994545
vt 0.39479345 0.12994545
vt 0.55058128 0.12994545
vt 0.69950950 0.12994545
vt 0.84840892 0.12994545
vt 0.22004731 0.25000000
vt 0.84840892 0.25000000
vt 0.22004731 0.37005455
vt 0.84840892 0.37005455
vt 0.22004731 0.50000000
vt 0.84840892 0.50000000
vt 0.22004731 0.62994545
vt 0.84840892 0.62994545
vt 0.22004731 0.75000000
vt 0.84840892 0.75000000
vt 0.22004731 0.87005455
vt 0.84840892 0.87005455
vt 0.39479345 0.87005455
vt 0.55058128 0.87005455
vt 0.69950950 0.87005455
vt 0.00000000 0.12994545
vt 0.00000000 0.00000000
vt 0.22004731 0.00000000
vt 0.39479345 0.00000000
vt 0.55058128 0.00000000
vt 0.69950950 0.00000000
vt 0.84840892 0.00000000
vt 1.00000000 0.00000000
vt 1.00000000 0.12994545
vt 0.00000000 0.25000000
vt 1.00000000 0.25000000
vt 0.00000000 0.37005455
vt 1.00000000 0.37005455
vt 0.00000000 0.50000000
vt 1.00000000 0.50000000
vt 0.00000000 0.62994545
vt 1.00000000 0.62994545
vt 0.00000000 0.75000000
vt 1.00000000 0.75000000
vt 0.00000000 0.87005455
vt 1.00000000 0.87005455
vt 0.22004731 1.00000000
vt 0.00000000 1.00000000
vt 0.39479345 1.00000000
vt 0.55058128 1.00000000
vt 0.69950950 1.00000000
vt 0.84840892 1.00000000
vt 1.00000000 1.00000000
vt 0.39479345 0.25000000
vt 0.55058128 0.25000000
vt 0.69950950 0.25000000
vt 0.39479345 0.37005455
vt 0.55058128 0.37005455
vt 0.69950950 0.37005455
vt 0.39479345 0.50000000
vt 0.55058128 0.50000000
vt 0.69950950 0.50000000
vt 0.39479345 0.62994545
vt 0.55058128 0.62994545
vt 0.69950950 0.62994545
vt 0.39479345 0.75000000
vt 0.55058128 0.75000000
vt 0.69950950 0.75000000
vt 0.38349545 0.00000000
vt 0.22701864 0.00000000
vt 0.51785753 0.00000000
vt 0.64263178 0.00000000
vt 0.76317788 0.00000000
vt 0.88206200 0.00000000
vt 0.42854398 0.00000000
vt 0.99993594 1.00000000
vt 0.00000000 1.00000000
vt 0.00000000 0.00000000
vt 0.96920454 0.84184704
vt 0.88755083 0.68393541
vt 0.77200620 0.52746550
vt 0.63881421 0.36969266
vt 0.50726019 0.20221051
vt 0.00000000 0.22701864
vt 0.00000000 0.00000000
vt 1.00000000 0.00000000
vt 1.00000000 0.22701864
vt 0.00000000 0.38335876
vt 1.00000000 0.38335876
vt 0.00000000 0.51785754
vt 1.00000000 0.51785754
vt 0.00000000 0.64263175
vt 1.00000000 0.64263175
vt 0.00000000 0.76317789
vt 1.00000000 0.76317789
vt 0.00000000 0.88206199
vt 1.00000000 0.88206199
vt 1.00000000 1.00000000
vt 0.00000000 1.00000000
vt 0.00000000 0.22004731
vt 0.00000000 0.39500119
vt 0.00000000 0.55058120
vt 0.00000000 0.69950950
vt 0.00000000 0.84840892
vn -0.33883205 0.85950148 0.38268793
vn -0.41034617 0.82774955 0.38268356
vn -0.39580825 0.83479899 0.38268326
vn -0.32558570 0.86460821 0.38268342
vn -0.19594484 0.90286222 0.38268189
vn -0.25933399 0.65782792 0.70711265
vn -0.14996972 0.69102099 0.70710612
vn -0.14035309 0.35600949 0.92388217
vn -0.08116289 0.37397720 0.92387967
vn 0.00000000 -0.00000000 1.00000000
vn 0.00000000 0.00000000 1.00000000
vn 0.14036110 -0.35600633 0.92388217
vn 0.08116289 -0.37397720 0.92387967
vn 0.25936139 -0.65781712 0.70711265
vn 0.14996973 -0.69102099 0.70710612
vn 0.33887893 -0.85948300 0.38268793
vn 0.19594484 -0.90286222 0.38268189
vn 0.41036496 -0.82774023 0.38268356
vn 0.39581429 -0.83479612 0.38268326
vn 0.32557903 -0.86461072 0.38268342
vn 0.00059456 0.92387975 0.38268243
vn 0.00071036 0.99999975 0.00000000
vn -0.36674746 0.93032053 0.00000000
vn -0.44415466 0.89595013 0.00000000
vn -0.42841948 0.90357996 0.00000000
vn -0.35241169 0.93584507 0.00000000
vn -0.21208902 0.97725035 0.00000000
vn 0.00049591 0.99999988 0.00000000
vn 0.00046262 0.92387982 0.38268246
vn 0.00033678 0.70710674 0.70710674
vn 0.00036408 0.70710673 0.70710673
vn 0.00010537 0.38268250 0.92387991
vn 0.00020563 0.38268249 0.92387990
vn 0.00000000 0.00000000 1.00000000
vn 0.00000000 0.00000000 1.00000000
vn 0.00001972 -0.38268250 0.92387992
vn -0.00022858 -0.38268249 0.92387989
vn 0.00010655 -0.70710678 0.70710678
vn -0.00044279 -0.70710671 0.70710671
vn 0.00019225 -0.92387990 0.38268249
vn -0.00059761 -0.92387975 0.38268243
vn 0.36680244 -0.93029886 -0.00000000
vn 0.00022682 -0.99999997 0.00000000
vn 0.44417668 -0.89593922 -0.00000000
vn 0.42842655 -0.90357661 -0.00000000
vn 0.35240388 -0.93584802 -0.00000000
vn 0.21208902 -0.97725035 -0.00000000
vn -0.00065438 -0.99999979 0.00000000
vn -0.31406658 0.63353023 0.70710793
vn -0.30293867 0.63892644 0.70710761
vn -0.24919161 0.66174175 0.70710777
vn -0.16997238 0.34286218 0.92388036
vn -0.16394912 0.34578317 0.92388023
vn -0.13486061 0.35813100 0.92388030
vn -0.00000000 0.00000000 1.00000000
vn 0.00000000 0.00000000 1.00000000
vn 0.00000000 -0.00000000 1.00000000
vn 0.16997561 -0.34286058 0.92388036
vn 0.16395015 -0.34578268 0.92388023
vn 0.13485947 -0.35813143 0.92388030
vn 0.31407759 -0.63352478 0.70710793
vn 0.30294220 -0.63892477 0.70710761
vn 0.24918771 -0.66174322 0.70710777
vn -0.44260730 0.89671555 0.00000000
vn -0.37242597 0.92806191 0.00000000
vn -0.43718228 0.89937292 0.00000000
vn -0.38859422 0.92140899 0.00000000
vn -0.30078731 0.95369125 0.00000000
vn -0.17088149 0.98529159 0.00000000
vn 0.00000000 -0.00000000 1.00000000
vn 0.00000000 -0.00000000 1.00000000
vn 0.00000000 -0.00000000 1.00000000
vn 0.00000000 -0.00000000 1.00000000
vn 0.00000000 -0.00000000 1.00000000
vn 0.00000000 -0.00000000 1.00000000
vn 0.00000000 -0.00000000 1.00000000
vn 0.00000000 -0.00000000 1.00000000
vn 0.00000000 -0.00000000 1.00000000
vn 0.00071036 0.99999975 -0.00000000
vn -0.37242596 0.92806191 0.00000000
vn -0.44258615 0.89672599 -0.00000000
vn -0.43718228 0.89937292 -0.00000000
vn -0.38859424 0.92140899 -0.00000000
vn -0.30078731 0.95369125 -0.00000000
vn -0.17088150 0.98529159 -0.00000000
vn 0.00049591 0.99999988 -0.00000000
s 1
usemtl Grass
f 1/1/1 23/23/23 22/22/22
f 73/82/80 23/95/23 65/79/65
f 73/82/80 65/79/65 64/83/64
f 74/84/81 64/83/64 24/96/24
f 24/96/24 66/85/66 75/86/82
f 76/88/83 75/86/82 25/97/25
f 67/67/67 25/25/25 3/3/3
f 51/51/51 4/4/4 3/3/3
f 7/7/7 5/5/5 4/4/4
f 5/5/5 31/31/31 29/29/29
f 29/29/29 28/28/28 69/69/69
f 69/91/69 79/93/86 78/92/85
f 78/92/85 77/90/84 27/99/27
f 77/90/84 68/89/68 27/99/27
f 26/98/26 68/89/68 77/90/84
f 27/99/27 69/91/69 78/92/85
f 69/91/69 28/94/28 79/93/86
f 5/5/5 29/29/29 69/69/69
f 69/69/69 27/27/27 5/5/5
f 5/5/5 27/27/27 68/68/68
f 7/7/7 33/33/33 31/31/31
f 9/9/9 35/35/35 33/33/33
f 11/11/11 37/37/37 35/35/35
f 13/13/13 39/39/39 37/37/37
f 15/15/15 41/41/41 39/39/39
f 17/17/17 48/48/48 41/41/41
f 17/17/17 47/47/47 48/48/48
f 20/20/20 46/46/46 47/47/47
f 19/19/19 45/45/45 46/46/46
f 19/19/19 44/44/44 45/45/45
f 16/16/16 42/42/42 44/44/44
f 40/40/40 43/43/43 42/42/42
f 16/16/16 40/40/40 42/42/42
f 16/16/16 18/18/18 14/14/14
f 14/14/14 61/61/61 12/12/12
f 12/12/12 58/58/58 10/10/10
f 10/10/10 55/55/55 8/8/8
f 8/8/8 52/52/52 6/6/6
f 6/6/6 21/21/21 30/30/30
f 56/56/56 53/53/53 52/52/52
f 57/57/57 54/54/54 53/53/53
f 53/53/53 54/54/54 50/50/50
f 49/49/49 50/50/50 2/2/2
f 53/53/53 50/50/50 49/49/49
f 60/60/60 57/57/57 56/56/56
f 63/63/63 60/60/60 59/59/59
f 62/62/62 63/63/63 59/59/59
f 59/59/59 60/60/60 56/56/56
f 56/56/56 57/57/57 53/53/53
f 52/52/52 53/53/53 49/49/49
f 52/52/52 49/49/49 6/6/6
f 8/8/8 30/30/30 32/32/32
f 8/8/8 6/6/6 30/30/30
f 59/59/59 56/56/56 55/55/55
f 55/55/55 56/56/56 52/52/52
f 55/55/55 52/52/52 8/8/8
f 10/10/10 32/32/32 34/34/34
f 10/10/10 8/8/8 32/32/32
f 62/62/62 59/59/59 58/58/58
f 58/58/58 59/59/59 55/55/55
f 58/58/58 55/55/55 10/10/10
f 12/12/12 34/34/34 36/36/36
f 12/12/12 10/10/10 34/34/34
f 61/61/61 62/62/62 58/58/58
f 61/61/61 58/58/58 12/12/12
f 14/14/14 36/36/36 38/38/38
f 14/14/14 12/12/12 36/36/36
f 18/18/18 61/61/61 14/14/14
f 16/16/16 38/38/38 40/40/40
f 16/16/16 14/14/14 38/38/38
f 18/18/18 16/16/16 44/44/44
f 19/19/19 18/18/18 44/44/44
f 19/19/19 62/62/62 61/61/61
f 18/18/18 19/19/19 61/61/61
f 20/20/20 19/19/19 46/46/46
f 20/20/20 63/63/63 62/62/62
f 19/19/19 20/20/20 62/62/62
f 17/17/17 20/20/20 47/47/47
f 20/20/20 17/17/17 63/63/63
f 15/15/15 17/17/17 41/41/41
f 17/17/17 15/15/15 63/63/63
f 63/63/63 15/15/15 60/60/60
f 13/13/13 15/15/15 39/39/39
f 15/15/15 13/13/13 60/60/60
f 60/60/60 13/13/13 57/57/57
f 11/11/11 13/13/13 37/37/37
f 13/13/13 11/11/11 57/57/57
f 57/57/57 11/11/11 54/54/54
f 9/9/9 11/11/11 35/35/35
f 11/11/11 9/9/9 54/54/54
f 7/7/7 9/9/9 33/33/33
f 5/5/5 7/7/7 31/31/31
f 4/4/4 5/5/5 68/68/68
f 68/68/68 26/26/26 4/4/4
f 9/9/9 7/7/7 51/51/51
f 54/54/54 9/9/9 51/51/51
f 54/54/54 51/51/51 50/50/50
f 51/51/51 7/7/7 4/4/4
f 50/50/50 51/51/51 3/3/3
f 50/50/50 3/3/3 2/2/2
f 3/3/3 4/4/4 67/67/67
f 4/4/4 26/26/26 67/67/67
f 77/90/84 76/88/83 26/98/26
f 76/88/83 67/87/67 26/98/26
f 25/97/25 67/87/67 76/88/83
f 75/86/82 66/85/66 25/97/25
f 2/2/2 3/3/3 66/66/66
f 3/3/3 25/25/25 66/66/66
f 66/66/66 24/24/24 2/2/2
f 24/96/24 75/86/82 74/84/81
f 2/2/2 24/24/24 64/64/64
f 74/84/81 73/82/80 64/83/64
f 73/82/80 72/81/79 23/95/23
f 72/81/79 22/80/22 23/95/23
f 49/49/49 2/2/2 1/1/1
f 6/6/6 49/49/49 1/1/1
f 6/6/6 1/1/1 21/21/21
f 1/1/1 2/2/2 64/64/64
f 64/64/64 65/65/65 1/1/1
f 65/65/65 23/23/23 1/1/1
f 1/1/1 22/22/22 21/21/21
s 2
usemtl Dirt
f 42/78/78 43/70/70 71/73/73
f 71/73/73 70/72/72 44/77/77
f 70/72/72 45/76/76 44/77/77
f 70/72/72 46/75/75 45/76/76
f 70/72/72 47/74/74 46/75/75
f 70/72/72 48/71/71 47/74/74
f 44/77/77 42/78/78 71/73/73
o Hidden
g Hidden
v 2.50000000 -1.00000000 -0.12500000
v 2.50000000 -1.00000000 -0.50000000
v -0.50000000 -1.00000000 -0.50000000
v -0.50000000 -1.00000000 -0.12500000
v -0.50000000 0.25000000 -0.50000000
v -0.50000000 0.25000000 -0.12500000
v -0.50000000 -0.25000000 -0.12500000
v -0.50000000 -0.23096998 -0.02932937
v -0.50000000 -0.17677670 0.05177670
v -0.50000000 -0.09567063 0.10596998
v -0.50000000 0.00000000 0.12500000
v -0.50000000 0.09567063 0.10596998
v -0.50000000 0.17677670 0.05177670
v -0.50000000 0.23096998 -0.02932937
v 2.50000000 1.25000000 -0.50000000
v 2.50000000 1.25000000 -0.12500000
v 2.50000000 0.75000000 -0.12500000
v 2.50000000 1.23096998 -0.02932937
v 2.50000000 1.17677670 0.05177670
v 2.50000000 1.09567063 0.10596998
v 2.50000000 1.00000000 0.12500000
v 2.50000000 0.90432937 0.10596998
v 2.50000000 0.82322330 0.05177670
v 2.50000000 0.76903002 -0.02932937
v -0.06013343 0.35953820 -0.50000000
v 0.35369466 0.54949675 -0.50000000
v 0.76249575 0.75211451 -0.50000000
v 1.17700487 0.94183526 -0.50000000
v 1.60420975 1.10050821 -0.50000000
v 2.04647757 1.20965278 -0.50000000
vt 0.00000000 0.00000000
vt 1.00000000 0.00000000
vt 1.00000000 1.00000000
vt 0.00000000 1.00000000
vt 0.40000000 0.00000000
vt 1.00000000 0.00000000
vt 1.00000000 1.00000000
vt 0.40000000 1.00000000
vt 0.40000000 0.60000000
vt 0.24692811 0.61522379
vt 0.11715729 0.65857864
vt 0.03044757 0.72346406
vt 0.00000000 0.80000000
vt 0.03044757 0.87653594
vt 0.11715729 0.94142136
vt 0.24692811 0.98477621
vt 0.40000000 0.00000000
vt 1.00000000 0.00000000
vt 1.00000000 1.00000000
vt 0.40000000 1.00000000
vt 0.40000000 0.77777778
vt 0.24692811 0.99154234
vt 0.11715729 0.96745631
vt 0.03044757 0.93140886
vt 0.00000000 0.88888889
vt 0.03044757 0.84636892
vt 0.11715729 0.81032147
vt 0.24692811 0.78623544
vt 0.55552911 0.00000000
vt 0.99995239 1.00000000
vt 0.00000000 1.00000000
vt 0.00000000 0.00000000
vt 0.60420352 0.14660927
vt 0.68863244 0.28456489
vt 0.77859979 0.42070742
vt 0.86299176 0.55899263
vt 0.93351420 0.70140191
vt 0.98202096 0.84882504
vn 0.00000000 -1.00000000 -0.00000000
vn 0.00000000 -1.00000000 -0.00000000
vn 0.00000000 -1.00000000 -0.00000000
vn 0.00000000 -1.00000000 -0.00000000
vn -1.00000000 0.00000000 0.00000000
vn -1.00000000 0.00000000 0.00000000
vn -1.00000000 0.00000000 0.00000000
vn -1.00000000 0.00000000 0.00000000
vn -1.00000000 0.00000000 0.00000000
vn -1.00000000 0.00000000 0.00000000
vn -1.00000000 0.00000000 0.00000000
vn -1.00000000 0.00000000 0.00000000
vn -1.00000000 0.00000000 0.00000000
vn -1.00000000 0.00000000 0.00000000
vn -1.00000000 0.00000000 0.00000000
vn -1.00000000 0.00000000 0.00000000
vn 1.00000000 0.00000000 0.00000000
vn 1.00000000 0.00000000 0.00000000
vn 1.00000000 0.00000000 0.00000000
vn 1.00000000 0.00000000 0.00000000
vn 1.00000000 0.00000000 0.00000000
vn 1.00000000 0.00000000 0.00000000
vn 1.00000000 0.00000000 0.00000000
vn 1.00000000 0.00000000 0.00000000
vn 1.00000000 0.00000000 0.00000000
vn 1.00000000 0.00000000 0.00000000
vn 1.00000000 0.00000000 0.00000000
vn 1.00000000 0.00000000 0.00000000
vn -0.00000000 0.00000000 -1.00000000
vn -0.00000000 0.00000000 -1.00000000
vn -0.00000000 0.00000000 -1.00000000
vn -0.00000000 0.00000000 -1.00000000
vn -0.00000000 0.00000000 -1.00000000
vn -0.00000000 0.00000000 -1.00000000
vn -0.00000000 0.00000000 -1.00000000
vn -0.00000000 0.00000000 -1.00000000
vn -0.00000000 0.00000000 -1.00000000
vn -0.00000000 0.00000000 -1.00000000
s 1
usemtl Hidden
f 83/103/90 82/102/89 81/101/88
f 83/103/90 81/101/88 80/100/87
s 2
f 89/111/98 90/112/99 91/113/100
f 86/108/95 91/113/100 85/107/94
f 92/114/101 93/115/102 85/107/94
f 86/108/95 84/106/93 82/105/92
f 82/105/92 83/104/91 86/108/95
f 86/108/95 85/107/94 84/106/93
f 86/108/95 87/109/96 88/110/97
f 86/108/95 88/110/97 91/113/100
f 91/113/100 92/114/101 85/107/94
f 88/110/97 89/111/98 91/113/100
s 3
f 99/123/110 100/124/111 101/125/112
f 95/119/106 99/123/110 96/120/107
f 81/117/104 94/118/105 96/120/107
f 96/120/107 80/116/103 81/117/104
f 102/126/113 103/127/114 96/120/107
f 94/118/105 95/119/106 96/120/107
f 95/119/106 97/121/108 98/122/109
f 99/123/110 102/126/113 96/120/107
f 95/119/106 98/122/109 99/123/110
f 99/123/110 101/125/112 102/126/113
s 4
f 82/131/118 84/128/115 104/132/119
f 81/130/117 82/131/118 105/133/120
f 105/133/120 106/134/121 81/130/117
f 106/134/121 107/135/122 81/130/117
f 107/135/122 108/136/123 81/130/117
f 108/136/123 109/137/124 81/130/117
f 109/137/124 94/129/116 81/130/117
f 82/131/118 104/132/119 105/133/120
