mtllib Terrain_Path_Hill_Edge.mtl
o Hidden
g Hidden
v -0.50000000 -1.00000000 0.50000000
v -0.50000000 0.00000000 0.50000000
v 2.50000000 1.00000000 0.50000000
v 2.50000000 -1.00000000 0.50000000
v 1.97250326 0.94052872 0.50000000
v 1.46370118 0.78727651 0.50000000
v 0.97531811 0.57700606 0.50000000
v 0.49737231 0.34165381 0.50000000
v 0.01492507 0.12033777 0.50000000
v 2.50000000 1.25000000 -0.12500000
v 2.50000000 1.00000000 0.12500000
v 2.50000000 -1.00000000 -0.50000000
v 2.50000000 1.25000000 -0.50000000
v 2.50000000 1.23096998 -0.02932937
v 2.50000000 1.17677670 0.05177670
v 2.50000000 1.09567063 0.10596998
v -0.50000000 -1.00000000 -0.50000000
v -0.50000000 0.25000000 -0.50000000
v -0.06013343 0.35953820 -0.50000000
v 0.35369466 0.54949675 -0.50000000
v 0.76249575 0.75211451 -0.50000000
v 1.17700487 0.94183526 -0.50000000
v 1.60420975 1.10050821 -0.50000000
v 2.04647757 1.20965278 -0.50000000
v -0.50000000 0.00000000 0.12500000
v -0.50000000 0.25000000 -0.12500000
v -0.50000000 0.09567063 0.10596998
v -0.50000000 0.17677670 0.05177670
v -0.50000000 0.23096998 -0.02932937
vt 0.00000000 0.00000000
vt 0.50000000 0.00000000
vt 1.00000000 1.00000000
vt 0.00000000 1.00000000
vt 0.97026475 0.82416894
vt 0.89363838 0.65456729
vt 0.78847831 0.49173795
vt 0.67082690 0.33245744
vt 0.56016334 0.17163231
vt 0.37500000 0.00000000
vt 0.62500000 0.11111111
vt 1.00000000 0.11111111
vt 1.00000000 1.00000000
vt 0.00000000 1.00000000
vt 0.00000000 0.00000000
vt 0.47066993 0.00845766
vt 0.55177670 0.03254369
vt 0.60597027 0.06859114
vt 0.00000000 0.00000000
vt 0.55552911 0.00000000
vt 0.99995239 1.00000000
vt 0.00000000 1.00000000
vt 0.60420352 0.14660927
vt 0.68863244 0.28456489
vt 0.77859979 0.42070742
vt 0.86299176 0.55899263
vt 0.93351420 0.70140191
vt 0.98202096 0.84882504
vt 0.00000000 1.00000000
vt 0.00000000 0.00000000
vt 1.00000000 0.00000000
vt 1.00000000 1.00000000
vt 1.00000000 0.00000000
vt 1.00000000 0.80000000
vt 0.62500000 0.80000000
vt 0.37500000 1.00000000
vt 0.00000000 1.00000000
vt 0.00000000 0.00000000
vt 0.60597027 0.87653594
vt 0.55177670 0.94142136
vt 0.47066993 0.98477621
vn -0.00000000 0.00000000 1.00000000
vn -0.00000000 0.00000000 1.00000000
vn -0.00000000 0.00000000 1.00000000
vn -0.00000000 0.00000000 1.00000000
vn -0.00000000 0.00000000 1.00000000
vn -0.00000000 0.00000000 1.00000000
vn -0.00000000 0.00000000 1.00000000
vn -0.00000000 0.00000000 1.00000000
vn -0.00000000 0.00000000 1.00000000
vn 1.00000000 0.00000000 0.00000000
vn 1.00000000 0.00000000 0.00000000
vn 1.00000000 0.00000000 0.00000000
vn 1.00000000 0.00000000 0.00000000
vn 1.00000000 0.00000000 0.00000000
vn 1.00000000 0.00000000 0.00000000
vn 1.00000000 0.00000000 0.00000000
vn 1.00000000 0.00000000 0.00000000
vn 1.00000000 0.00000000 0.00000000
vn -0.00000000 0.00000000 -1.00000000
vn -0.00000000 0.00000000 -1.00000000
vn -0.00000000 0.00000000 -1.00000000
vn -0.00000000 0.00000000 -1.00000000
vn -0.00000000 0.00000000 -1.00000000
vn -0.00000000 0.00000000 -1.00000000
vn -0.00000000 0.00000000 -1.00000000
vn -0.00000000 0.00000000 -1.00000000
vn -0.00000000 0.00000000 -1.00000000
vn -0.00000000 0.00000000 -1.00000000
vn 0.00000000 -1.00000000 0.00000000
vn 0.00000000 -1.00000000 0.00000000
vn 0.00000000 -1.00000000 0.00000000
vn 0.00000000 -1.00000000 0.00000000
vn -1.00000000 -0.00000000 -0.00000000
vn -1.00000000 -0.00000000 -0.00000000
vn -1.00000000 -0.00000000 -0.00000000
vn -1.00000000 -0.00000000 -0.00000000
vn -1.00000000 -0.00000000 -0.00000000
vn -1.00000000 -0.00000000 -0.00000000
vn -1.00000000 -0.00000000 -0.00000000
vn -1.00000000 -0.00000000 -0.00000000
vn -1.00000000 -0.00000000 -0.00000000
s 1
usemtl Hidden
f 9/9/9 2/2/2 1/1/1
f 4/4/4 8/8/8 1/1/1
f 4/4/4 7/7/7 8/8/8
f 4/4/4 6/6/6 7/7/7
f 4/4/4 5/5/5 6/6/6
f 4/4/4 3/3/3 5/5/5
f 8/8/8 9/9/9 1/1/1
s 2
f 10/10/10 14/16/16 15/17/17
f 15/17/17 16/18/18 11/11/11
f 11/11/11 4/13/13 12/14/14
f 12/14/14 13/15/15 11/11/11
f 11/11/11 3/12/12 4/13/13
f 13/15/15 10/10/10 11/11/11
f 10/10/10 15/17/17 11/11/11
s 3
f 17/19/19 18/20/20 19/23/23
f 12/22/22 17/19/19 20/24/24
f 20/24/24 21/25/25 12/22/22
f 21/25/25 22/26/26 12/22/22
f 22/26/26 23/27/27 12/22/22
f 23/27/27 24/28/28 12/22/22
f 24/28/28 13/21/21 12/22/22
f 17/19/19 19/23/23 20/24/24
s 4
f 17/29/29 12/30/30 4/31/31
f 17/29/29 4/31/31 1/32/32
s 5
f 25/35/35 27/39/39 28/40/40
f 28/40/40 29/41/41 26/36/36
f 1/33/33 25/35/35 17/38/38
f 25/35/35 18/37/37 17/38/38
f 1/33/33 2/34/34 25/35/35
f 25/35/35 26/36/36 18/37/37
f 25/35/35 28/40/40 26/36/36
o Path
g Path
v -0.00937614 0.35977400 -0.02931681
v 0.46820880 0.58510589 -0.02931681
v 0.94756689 0.81911391 -0.02931681
v 1.44271178 1.02571023 -0.02931681
v 1.96112885 1.17415810 -0.02931681
v 0.01154398 0.30976607 0.05179593
v 1.97197895 1.12104788 0.05179593
v 0.04285220 0.23492617 0.10598559
v 1.98821678 1.04156523 0.10598559
v 0.52859675 0.46399436 0.10598559
v 1.00454877 0.69636299 0.10598559
v 1.48869169 0.89842844 0.10598559
v -0.50000000 0.23096448 -0.02931611
v -0.50000000 0.25000000 -0.12500000
v -0.01655405 0.37740499 -0.12500000
v 0.45985821 0.60221241 -0.12500000
v 0.93979270 0.83649127 -0.12500000
v 1.43627289 1.04362345 -0.12500000
v 1.95732166 1.19280866 -0.12500000
v 2.50000000 1.25000000 -0.12500000
v 2.50000000 1.23096448 -0.02931611
v -0.50000000 0.17675746 0.05179593
v 2.50000000 1.17675746 0.05179593
v -0.50000000 0.09563360 0.10598531
v 2.50000000 1.09563360 0.10598531
v 0.07984424 0.14673316 0.12500000
v -0.50000000 0.00000000 0.12500000
v 0.57144298 0.37849430 0.12500000
v 1.04482444 0.60962472 0.12500000
v 1.52118023 0.80849233 0.12500000
v 2.00736258 0.94785992 0.12500000
v 2.50000000 1.00000000 0.12500000
v 0.49239726 0.53659454 0.05179593
v 0.97039104 0.76994590 0.05179593
v 1.46112908 0.97472738 0.05179593
v -0.06009487 0.35955367 -0.12500000
v 0.35408741 0.54969060 -0.12500000
v 0.76286979 0.75229632 -0.12500000
v 1.17703187 0.94184666 -0.12500000
v 1.60421376 1.10050947 -0.12500000
v 2.04648006 1.20965321 -0.12500000
v 0.01504679 0.12038327 0.12500000
v 0.49757350 0.34175062 0.12500000
v 0.97559058 0.57714182 0.12500000
v 1.46369671 0.78728639 0.12500000
v 1.97250997 0.94052364 0.12500000
v -0.50000000 0.25000000 -0.50000000
v -0.06009487 0.35955367 -0.50000000
v 0.35408741 0.54969060 -0.50000000
v 0.76286979 0.75229632 -0.50000000
v 1.17703187 0.94184666 -0.50000000
v 1.60421376 1.10050947 -0.50000000
v 2.04648006 1.20965321 -0.50000000
v 2.50000000 1.25000000 -0.50000000
v -0.50000000 0.00000000 0.50000000
v 0.01495336 0.12034892 0.50000000
v 0.49760482 0.34176908 0.50000000
v 0.97542229 0.57705546 0.50000000
v 1.46370055 0.78727627 0.50000000
v 1.97249969 0.94052794 0.50000000
v 2.50000000 1.00000000 0.50000000
vt 0.24488504 0.25988505
vt 0.41966314 0.25988505
vt 0.57229821 0.25988505
vt 0.71657403 0.25988505
vt 0.85847400 0.25988505
vt 0.24488504 0.49998874
vt 0.85847400 0.49998874
vt 0.24488504 0.74009763
vt 0.85847400 0.74009763
vt 0.41966314 0.74009763
vt 0.57229821 0.74009763
vt 0.71657403 0.74009763
vt 0.00000000 0.25988505
vt 0.00000000 0.00000000
vt 0.24488504 0.00000000
vt 0.41966314 0.00000000
vt 0.57229821 0.00000000
vt 0.71657403 0.00000000
vt 0.85847400 0.00000000
vt 1.00000000 0.00000000
vt 1.00000000 0.25988505
vt 0.00000000 0.49998874
vt 1.00000000 0.49998874
vt 0.00000000 0.74009763
vt 1.00000000 0.74009763
vt 0.24488504 0.99984659
vt 0.00000000 0.99984617
vt 0.41966314 0.99984643
vt 0.57229821 0.99984606
vt 0.71657403 0.99984621
vt 0.85847400 0.99983310
vt 1.00000000 0.99984617
vt 0.41966314 0.49998874
vt 0.57229821 0.49998874
vt 0.71657403 0.49998874
vt 0.22701864 0.00000000
vt 0.38349545 0.00000000
vt 0.51785753 0.00000000
vt 0.64263178 0.00000000
vt 0.76317788 0.00000000
vt 0.88206200 0.00000000
vt 0.22003881 0.99984958
vt 0.39482394 0.99984733
vt 0.55059012 0.99984561
vt 0.69950926 0.99984634
vt 0.84840742 0.99983843
vt 0.00000000 0.22701864
vt 0.00000000 0.00000000
vt 1.00000000 0.00000000
vt 1.00000000 0.22701864
vt 0.00000000 0.38335876
vt 1.00000000 0.38335876
vt 0.00000000 0.51785754
vt 1.00000000 0.51785754
vt 0.00000000 0.64263175
vt 1.00000000 0.64263175
vt 0.00000000 0.76317789
vt 1.00000000 0.76317789
vt 0.00000000 0.88206199
vt 1.00000000 0.88206199
vt 1.00000000 1.00000000
vt 0.00000000 1.00000000
vt 0.00000000 0.24488508
vt 0.00000000 0.41961719
vt 0.00000000 0.57229829
vt 0.00000000 0.71657402
vt 0.00000000 0.85847399
vt 0.00000000 0.22004563
vt 0.00000000 0.00000000
vt 1.00000000 0.00000000
vt 1.00000000 0.22004563
vt 0.00000000 0.39465986
vt 1.00000000 0.39465986
vt 0.00000000 0.55058992
vt 1.00000000 0.55058992
vt 0.00000000 0.69950913
vt 1.00000000 0.69950913
vt 0.00000000 0.84840841
vt 1.00000000 0.84840841
vt 1.00000000 1.00000000
vt 0.00000000 1.00000000
vt 0.00000000 0.24488690
vt 0.00000000 0.41963429
vt 0.00000000 0.57229620
vt 0.00000000 0.71657373
vt 0.00000000 0.85847250
vn -0.35649305 0.85230736 0.38273341
vn -0.41224375 0.82678337 0.38273274
vn -0.38899157 0.83797439 0.38273291
vn -0.31389189 0.86889979 0.38273364
vn -0.18488385 0.90517079 0.38273201
vn -0.27283146 0.65226774 0.70718441
vn -0.14149151 0.69272830 0.70718290
vn -0.14761846 0.35290057 0.92394263
vn -0.07655242 0.37479437 0.92394205
vn -0.17069297 0.34233674 0.92394235
vn -0.16106628 0.34696982 0.92394242
vn -0.12997032 0.35977432 0.92394272
vn 0.00059453 0.92385894 0.38273269
vn 0.00071036 0.99999975 0.00000000
vn -0.38587023 0.92255307 0.00000000
vn -0.44621931 0.89492364 0.00000000
vn -0.42105040 0.90703724 0.00000000
vn -0.33976145 0.94051165 0.00000000
vn -0.20012136 0.97977112 0.00000000
vn 0.00049591 0.99999988 -0.00000000
vn 0.00046261 0.92385900 0.38273272
vn 0.00033671 0.70702981 0.70718367
vn 0.00036405 0.70702980 0.70718366
vn 0.00010529 0.38253172 0.92394235
vn 0.00020556 0.38253172 0.92394234
vn 0.00000023 -0.00000055 1.00000000
vn 0.00000000 0.00000000 1.00000000
vn 0.00000016 -0.00000033 1.00000000
vn -0.00000007 0.00000014 1.00000000
vn 0.00000002 -0.00000004 1.00000000
vn -0.00000370 0.00001811 1.00000000
vn 0.00000000 0.00000000 1.00000000
vn -0.31549031 0.63273778 0.70718368
vn -0.29769618 0.64130177 0.70718387
vn -0.24022209 0.66496858 0.70718466
vn -0.37242597 0.92806191 0.00000000
vn -0.44260730 0.89671555 0.00000000
vn -0.43718228 0.89937292 0.00000000
vn -0.38859422 0.92140899 0.00000000
vn -0.30078731 0.95369125 0.00000000
vn -0.17088149 0.98529159 0.00000000
vn 0.00000177 -0.00000449 1.00000000
vn 0.00000073 -0.00000147 1.00000000
vn -0.00000034 0.00000072 1.00000000
vn 0.00000008 -0.00000022 1.00000000
vn -0.00000232 0.00001070 1.00000000
vn 0.00071036 0.99999975 -0.00000000
vn -0.37242596 0.92806191 0.00000000
vn -0.44258615 0.89672599 0.00000000
vn -0.43718228 0.89937292 0.00000000
vn -0.38859424 0.92140899 0.00000000
vn -0.30078731 0.95369125 0.00000000
vn -0.17088150 0.98529159 0.00000000
vn 0.00049591 0.99999988 -0.00000000
vn -0.36678604 0.93030533 -0.00000000
vn 0.00000000 1.00000000 -0.00000000
vn 0.00000000 1.00000000 -0.00000000
vn -0.36678604 0.93030533 -0.00000000
vn -0.44415405 0.89595044 -0.00000000
vn -0.44415405 0.89595044 -0.00000000
vn -0.42841666 0.90358130 -0.00000000
vn -0.42841666 0.90358130 -0.00000000
vn -0.35241707 0.93584305 -0.00000000
vn -0.35241707 0.93584305 -0.00000000
vn -0.21216242 0.97723442 -0.00000000
vn -0.21216242 0.97723442 -0.00000000
vn 0.00000000 1.00000000 -0.00000000
vn 0.00000000 1.00000000 -0.00000000
vn -0.38592748 0.92252912 -0.00000000
vn -0.44622005 0.89492327 -0.00000000
vn -0.42105275 0.90703615 -0.00000000
vn -0.33975881 0.94051260 -0.00000000
vn -0.20018894 0.97975731 -0.00000000
s 1
usemtl Grass
f 30/42/42 44/56/56 65/77/77
f 76/90/88 43/89/55 65/88/77
f 77/91/89 76/90/88 65/88/77
f 65/77/77 43/55/55 42/54/54
f 35/47/47 42/54/54 51/63/63
f 37/49/49 51/63/63 53/65/65
f 53/65/65 56/68/68 71/83/83
f 39/51/51 37/49/49 72/84/84
f 40/52/52 39/51/51 73/85/85
f 41/53/53 40/52/52 74/86/86
f 38/50/50 41/53/53 75/87/87
f 38/50/50 61/73/73 54/66/66
f 36/48/48 54/66/66 52/64/64
f 34/46/46 52/64/64 50/62/62
f 50/62/62 49/61/61 70/82/82
f 70/100/82 83/102/95 82/101/94
f 82/101/94 81/99/93 48/108/60
f 81/99/93 69/98/81 48/108/60
f 69/81/81 47/59/59 33/45/45
f 64/76/76 33/45/45 32/44/44
f 63/75/75 32/44/44 31/43/43
f 67/79/79 45/57/57 31/43/43
f 79/95/91 78/93/90 45/105/57
f 80/97/92 79/95/91 46/106/58
f 46/106/58 68/96/80 80/97/92
f 78/93/90 66/92/78 45/105/57
f 79/95/91 67/94/79 46/106/58
f 45/105/57 67/94/79 79/95/91
f 31/43/43 45/57/57 66/78/78
f 62/74/74 63/75/75 31/43/43
f 68/80/80 46/58/58 32/44/44
f 31/43/43 32/44/44 67/79/79
f 32/44/44 46/58/58 67/79/79
f 63/75/75 64/76/76 32/44/44
f 32/44/44 33/45/45 68/80/80
f 80/97/92 68/96/80 47/107/59
f 33/45/45 47/59/59 68/80/80
f 81/99/93 80/97/92 47/107/59
f 47/107/59 69/98/81 81/99/93
f 48/108/60 70/100/82 82/101/94
f 70/100/82 49/103/61 83/102/95
f 34/46/46 50/62/62 70/82/82
f 70/82/82 48/60/60 34/46/46
f 33/45/45 34/46/46 69/81/81
f 34/46/46 48/60/60 69/81/81
f 34/46/46 36/48/48 52/64/64
f 36/48/48 34/46/46 33/45/45
f 64/76/76 36/48/48 33/45/45
f 38/50/50 60/72/72 61/73/73
f 75/87/87 60/72/72 38/50/50
f 36/48/48 38/50/50 54/66/66
f 38/50/50 36/48/48 64/76/76
f 41/53/53 59/71/71 75/87/87
f 74/86/86 59/71/71 41/53/53
f 41/53/53 38/50/50 64/76/76
f 41/53/53 64/76/76 63/75/75
f 40/52/52 58/70/70 74/86/86
f 73/85/85 58/70/70 40/52/52
f 40/52/52 41/53/53 63/75/75
f 40/52/52 63/75/75 62/74/74
f 39/51/51 57/69/69 73/85/85
f 72/84/84 57/69/69 39/51/51
f 39/51/51 40/52/52 62/74/74
f 37/49/49 55/67/67 72/84/84
f 37/49/49 53/65/65 71/83/83
f 71/83/83 55/67/67 37/49/49
f 39/51/51 62/74/74 35/47/47
f 37/49/49 39/51/51 35/47/47
f 37/49/49 35/47/47 51/63/63
f 77/91/89 65/88/77 44/104/56
f 44/104/56 78/93/90 77/91/89
f 44/104/56 66/92/78 78/93/90
f 62/74/74 31/43/43 30/42/42
f 35/47/47 62/74/74 30/42/42
f 35/47/47 30/42/42 42/54/54
f 30/42/42 31/43/43 66/78/78
f 66/78/78 44/56/56 30/42/42
f 30/42/42 65/77/77 42/54/54
s 2
usemtl Path
f 71/109/96 56/110/97 85/112/99
f 55/123/110 85/112/99 86/114/101
f 57/124/111 86/114/101 87/116/103
f 58/125/112 87/116/103 88/118/105
f 59/126/113 74/117/104 88/118/105
f 89/120/107 75/119/106 59/126/113
f 89/120/107 60/127/114 75/119/106
f 90/121/108 61/122/109 60/127/114
f 89/120/107 90/121/108 60/127/114
f 88/118/105 89/120/107 59/126/113
f 88/118/105 74/117/104 58/125/112
f 58/125/112 73/115/102 87/116/103
f 87/116/103 73/115/102 57/124/111
f 57/124/111 72/113/100 86/114/101
f 86/114/101 72/113/100 55/123/110
f 56/110/97 84/111/98 85/112/99
f 55/123/110 71/109/96 85/112/99
