mtllib Terrain_Grass_Hill.mtl
o Grass
g Grass
v -0.06009487 0.35955367 0.50000000
v -0.50000000 0.25000000 0.50000000
v -0.50000000 0.25000000 -0.50000000
v -0.06009487 0.35955367 -0.50000000
v 0.35408741 0.54969060 0.50000000
v 0.35408741 0.54969060 -0.50000000
v 0.76286979 0.75229632 0.50000000
v 0.76286979 0.75229632 -0.50000000
v 1.17703187 0.94184666 0.50000000
v 1.17703187 0.94184666 -0.50000000
v 1.60421376 1.10050947 0.50000000
v 1.60421376 1.10050947 -0.50000000
v 2.04648006 1.20965321 0.50000000
v 2.04648006 1.20965321 -0.50000000
v 2.50000000 1.25000000 -0.50000000
v 2.50000000 1.25000000 0.50000000
vt 0.00000000 0.22701864
vt 0.00000000 0.00000000
vt 1.00000000 0.00000000
vt 1.00000000 0.22701864
vt 0.00000000 0.38335876
vt 1.00000000 0.38335876
vt 0.00000000 0.51785754
vt 1.00000000 0.51785754
vt 0.00000000 0.64263175
vt 1.00000000 0.64263175
vt 0.00000000 0.76317789
vt 1.00000000 0.76317789
vt 0.00000000 0.88206199
vt 1.00000000 0.88206199
vt 1.00000000 1.00000000
vt 0.00000000 1.00000000
vn -0.37242596 0.92806191 0.00000000
vn 0.00071036 0.99999975 0.00000000
vn 0.00071036 0.99999975 0.00000000
vn -0.37242596 0.92806191 0.00000000
vn -0.44258615 0.89672599 0.00000000
vn -0.44258615 0.89672599 0.00000000
vn -0.43718228 0.89937292 0.00000000
vn -0.43718228 0.89937292 0.00000000
vn -0.38859424 0.92140899 0.00000000
vn -0.38859424 0.92140899 0.00000000
vn -0.30078731 0.95369125 0.00000000
vn -0.30078731 0.95369125 0.00000000
vn -0.17088150 0.98529159 0.00000000
vn -0.17088150 0.98529159 0.00000000
vn 0.00049591 0.99999988 0.00000000
vn 0.00049591 0.99999988 0.00000000
s 1
usemtl Grass
f 4/4/4 3/3/3 1/1/1
f 3/3/3 2/2/2 1/1/1
f 4/4/4 1/1/1 5/5/5
f 6/6/6 5/5/5 7/7/7
f 8/8/8 7/7/7 9/9/9
f 10/10/10 9/9/9 11/11/11
f 12/12/12 11/11/11 13/13/13
f 13/13/13 15/15/15 14/14/14
f 13/13/13 16/16/16 15/15/15
f 14/14/14 12/12/12 13/13/13
f 12/12/12 10/10/10 11/11/11
f 10/10/10 8/8/8 9/9/9
f 8/8/8 6/6/6 7/7/7
f 6/6/6 4/4/4 5/5/5
o Hidden
g Hidden
v 2.50000000 1.25000000 -0.50000000
v 2.50000000 -1.00000000 -0.50000000
v -0.50000000 -1.00000000 -0.50000000
v -0.50000000 0.25000000 -0.50000000
v -0.06013343 0.35953820 -0.50000000
v 0.35369466 0.54949675 -0.50000000
v 0.76249575 0.75211451 -0.50000000
v 1.17700487 0.94183526 -0.50000000
v 1.60420975 1.10050821 -0.50000000
v 2.04647757 1.20965278 -0.50000000
v -0.50000000 -1.00000000 0.50000000
v -0.50000000 0.25000000 0.50000000
v 2.50000000 1.25000000 0.50000000
v 2.50000000 -1.00000000 0.50000000
v 2.04647757 1.20965278 0.50000000
v 1.60420975 1.10050821 0.50000000
v 1.17700487 0.94183526 0.50000000
v 0.76249575 0.75211451 0.50000000
v 0.35369466 0.54949675 0.50000000
v -0.06013343 0.35953820 0.50000000
vt 0.99995239 1.00000000
vt 0.00000000 1.00000000
vt 0.00000000 0.00000000
vt 0.55552911 0.00000000
vt 0.60420352 0.14660927
vt 0.68863244 0.28456489
vt 0.77859979 0.42070742
vt 0.86299176 0.55899263
vt 0.93351420 0.70140191
vt 0.98202096 0.84882504
vt 0.00000000 0.00000000
vt 1.00000000 0.00000000
vt 1.00000000 1.00000000
vt 0.00000000 1.00000000
vt 0.99995239 1.00000000
vt 0.00000000 1.00000000
vt 0.00000000 0.00000000
vt 0.55552911 0.00000000
vt 0.98202096 0.84882504
vt 0.93351420 0.70140191
vt 0.86299176 0.55899263
vt 0.77859979 0.42070742
vt 0.68863244 0.28456489
vt 0.60420352 0.14660927
vt 0.00000000 0.00000000
vt 1.00000000 0.00000000
vt 1.00000000 1.00000000
vt 0.00000000 1.00000000
vt 0.00000000 0.00000000
vt 1.00000000 0.00000000
vt 1.00000000 1.00000000
vt 0.00000000 1.00000000
vn -0.00000000 0.00000000 -1.00000000
vn -0.00000000 0.00000000 -1.00000000
vn -0.00000000 0.00000000 -1.00000000
vn -0.00000000 0.00000000 -1.00000000
vn -0.00000000 0.00000000 -1.00000000
vn -0.00000000 0.00000000 -1.00000000
vn -0.00000000 0.00000000 -1.00000000
vn -0.00000000 0.00000000 -1.00000000
vn -0.00000000 0.00000000 -1.00000000
vn -0.00000000 0.00000000 -1.00000000
vn -1.00000000 0.00000000 0.00000000
vn -1.00000000 0.00000000 0.00000000
vn -1.00000000 0.00000000 0.00000000
vn -1.00000000 0.00000000 0.00000000
vn 0.00000000 0.00000000 1.00000000
vn 0.00000000 0.00000000 1.00000000
vn 0.00000000 0.00000000 1.00000000
vn 0.00000000 0.00000000 1.00000000
vn 0.00000000 0.00000000 1.00000000
vn 0.00000000 0.00000000 1.00000000
vn 0.00000000 0.00000000 1.00000000
vn 0.00000000 0.00000000 1.00000000
vn 0.00000000 0.00000000 1.00000000
vn 0.00000000 0.00000000 1.00000000
vn 0.00000000 -1.00000000 -0.00000000
vn 0.00000000 -1.00000000 -0.00000000
vn 0.00000000 -1.00000000 -0.00000000
vn 0.00000000 -1.00000000 -0.00000000
vn 1.00000000 0.00000000 0.00000000
vn 1.00000000 0.00000000 0.00000000
vn 1.00000000 0.00000000 0.00000000
vn 1.00000000 0.00000000 0.00000000
s 1
usemtl Hidden
f 19/19/19 20/20/20 21/21/21
f 18/18/18 19/19/19 22/22/22
f 18/18/18 22/22/22 23/23/23
f 23/23/23 24/24/24 18/18/18
f 24/24/24 25/25/25 18/18/18
f 25/25/25 26/26/26 18/18/18
f 26/26/26 17/17/17 18/18/18
f 19/19/19 21/21/21 22/22/22
s 2
f 28/30/30 20/29/29 19/28/28
f 28/30/30 19/28/28 27/27/27
s 3
f 36/40/40 28/34/34 27/33/33
f 35/39/39 27/33/33 30/32/32
f 30/32/32 33/37/37 34/38/38
f 30/32/32 32/36/36 33/37/37
f 30/32/32 31/35/35 32/36/36
f 30/32/32 29/31/31 31/35/35
f 30/32/32 34/38/38 35/39/39
f 35/39/39 36/40/40 27/33/33
s 4
f 27/44/44 19/43/43 18/42/42
f 27/44/44 18/42/42 30/41/41
s 5
f 30/48/48 18/47/47 29/45/45
f 18/47/47 17/46/46 29/45/45
