mtllib Terrain_Grass_Hill_Corner_Inner.mtl
o Grass
g Grass
v -1.33170093 0.35953820 1.09360361
v -1.18898276 0.35953820 1.18895197
v -1.09362027 0.35953820 1.33166070
v -1.17336456 0.54949675 0.71126440
v -0.71129674 0.54949675 1.17328647
v -1.01695158 0.75211451 0.33356966
v -0.33361749 0.75211451 1.01683610
v -0.85835463 0.94183526 -0.04939877
v 0.04933523 0.94183526 0.85820124
v -0.69490010 1.10050821 -0.44409692
v 0.44401721 1.10050821 0.69470763
v -0.52568228 1.20965278 -0.85271184
v 0.85261537 1.20965278 0.52544937
v 0.30054243 1.20965278 -0.30072069
v -1.50000000 0.35952737 1.06013006
v -1.50000000 0.25000000 1.50000000
v -1.06009487 0.35955367 1.50000000
v -1.50000000 0.54977462 0.64573649
v -0.64591259 0.54969060 1.50000000
v -1.50000000 0.75218592 0.23736708
v -0.23713021 0.75229632 1.50000000
v -1.50000000 0.94182493 -0.17697811
v 0.17703187 0.94184666 1.50000000
v -1.50000000 1.10053597 -0.60420057
v 0.60421376 1.10050947 1.50000000
v -1.50000000 1.20966174 -1.04647693
v 1.04648006 1.20965321 1.50000000
v -0.35215010 1.25000000 -1.27172160
v -1.50000000 1.25000000 -1.50000000
v 0.62121534 1.25000000 -0.62142534
v 1.27160788 1.25000000 0.35187555
v 1.50000000 1.25000000 1.50000000
v -0.89637660 0.54949675 0.89631684
v -0.60732489 0.75211451 0.60723651
v -0.31423719 0.94183526 0.31411979
v -0.01217266 1.10050821 0.01202537
v 1.50000000 1.25000000 -1.50000000
vt 0.25989612 0.22701864
vt 0.50000512 0.22701864
vt 0.74011176 0.22701864
vt 0.25989612 0.38335876
vt 0.74011176 0.38335876
vt 0.25989612 0.51785754
vt 0.74011176 0.51785754
vt 0.25989612 0.64263175
vt 0.74011176 0.64263175
vt 0.25989612 0.76317789
vt 0.74011176 0.76317789
vt 0.25989612 0.88206199
vt 0.74011176 0.88206199
vt 0.50000512 0.88206199
vt 0.00007000 0.22701864
vt 0.00007000 0.00000000
vt 0.25989612 0.00000000
vt 0.50000512 0.00000000
vt 0.74011176 0.00000000
vt 1.00000000 0.22701864
vt 0.00007000 0.38335876
vt 1.00000000 0.38335876
vt 0.00007000 0.51785754
vt 1.00000000 0.51785754
vt 0.00007000 0.64263175
vt 1.00000000 0.64263175
vt 0.00007000 0.76317789
vt 1.00000000 0.76317789
vt 0.00007000 0.88206199
vt 1.00000000 0.88206199
vt 0.25989612 1.00000000
vt 0.00007000 1.00000000
vt 0.50000512 1.00000000
vt 0.74011176 1.00000000
vt 1.00000000 1.00000000
vt 0.50000512 0.38335876
vt 0.50000512 0.51785754
vt 0.50000512 0.64263175
vt 0.50000512 0.76317789
vt 1.00000000 1.00000000
vt 0.00000000 0.00000000
vt 1.00000000 0.00000000
vt 0.92390834 0.61738611
vt 0.70714178 0.29292822
vt 0.38270535 0.07612955
vn -0.14249535 0.92806191 0.34408745
vn -0.26333189 0.92806191 0.26335796
vn -0.34407334 0.92806191 0.14252941
vn -0.16933961 0.89672599 0.40890903
vn -0.40889227 0.89672599 0.16938010
vn -0.16727202 0.89937292 0.40391635
vn -0.40389979 0.89937292 0.16731201
vn -0.14868156 0.92140899 0.35902545
vn -0.35901073 0.92140899 0.14871710
vn -0.11508540 0.95369125 0.27789990
vn -0.27788850 0.95369125 0.11511292
vn -0.06538164 0.98529159 0.15787884
vn -0.15787237 0.98529159 0.06539727
vn -0.12082549 0.98529159 0.12083745
vn -0.00000000 0.92806191 0.37242596
vn 0.00000003 0.99999975 -0.00071036
vn -0.37242596 0.92806191 0.00000000
vn -0.00000000 0.89672599 0.44258615
vn -0.44258615 0.89672599 0.00000000
vn -0.00000000 0.89937292 0.43718228
vn -0.43718228 0.89937292 0.00000000
vn -0.00000000 0.92140899 0.38859424
vn -0.38859424 0.92140899 0.00000000
vn -0.00000000 0.95369125 0.30078731
vn -0.30078731 0.95369125 0.00000000
vn -0.00000000 0.98529159 0.17088150
vn -0.17088150 0.98529159 0.00000000
vn 0.00018974 0.99999988 -0.00045818
vn -0.00000000 0.99999988 -0.00049591
vn 0.00035064 0.99999988 -0.00035068
vn 0.00045816 0.99999988 -0.00018979
vn 0.00049591 0.99999988 0.00000000
vn -0.31294018 0.89672599 0.31297116
vn -0.30911925 0.89937292 0.30914986
vn -0.27476402 0.92140899 0.27479122
vn -0.21267822 0.95369125 0.21269927
vn -0.00000000 1.00000000 0.00000000
s 1
usemtl Grass
f 15/15/15 16/16/16 1/1/1
f 1/1/1 33/36/33 4/4/4
f 4/4/4 34/37/34 6/6/6
f 6/6/6 35/38/35 8/8/8
f 8/8/8 36/39/36 10/10/10
f 10/10/10 14/14/14 12/12/12
f 29/32/29 26/29/26 12/12/12
f 37/42/37 29/40/29 28/43/28
f 31/45/31 32/41/32 37/42/37
f 27/30/27 32/35/32 13/13/13
f 25/28/25 13/13/13 11/11/11
f 23/26/23 11/11/11 9/9/9
f 21/24/21 9/9/9 7/7/7
f 19/22/19 7/7/7 5/5/5
f 17/20/17 5/5/5 3/3/3
f 2/2/2 3/3/3 5/5/5
f 17/20/17 19/22/19 5/5/5
f 19/22/19 21/24/21 7/7/7
f 21/24/21 23/26/23 9/9/9
f 23/26/23 25/28/25 11/11/11
f 25/28/25 27/30/27 13/13/13
f 32/35/32 31/34/31 13/13/13
f 37/42/37 30/44/30 31/45/31
f 37/42/37 28/43/28 30/44/30
f 28/31/28 29/32/29 12/12/12
f 26/29/26 24/27/24 12/12/12
f 31/34/31 14/14/14 13/13/13
f 31/34/31 30/33/30 14/14/14
f 28/31/28 12/12/12 14/14/14
f 30/33/30 28/31/28 14/14/14
f 24/27/24 10/10/10 12/12/12
f 36/39/36 13/13/13 14/14/14
f 36/39/36 11/11/11 13/13/13
f 10/10/10 36/39/36 14/14/14
f 24/27/24 8/8/8 10/10/10
f 24/27/24 22/25/22 8/8/8
f 22/25/22 20/23/20 8/8/8
f 35/38/35 11/11/11 36/39/36
f 35/38/35 9/9/9 11/11/11
f 8/8/8 35/38/35 36/39/36
f 20/23/20 6/6/6 8/8/8
f 20/23/20 18/21/18 6/6/6
f 34/37/34 9/9/9 35/38/35
f 34/37/34 7/7/7 9/9/9
f 6/6/6 34/37/34 35/38/35
f 18/21/18 4/4/4 6/6/6
f 33/36/33 7/7/7 34/37/34
f 33/36/33 5/5/5 7/7/7
f 4/4/4 33/36/33 34/37/34
f 2/2/2 5/5/5 33/36/33
f 1/1/1 2/2/2 33/36/33
f 16/19/16 17/20/17 3/3/3
f 16/18/16 3/3/3 2/2/2
f 16/17/16 2/2/2 1/1/1
f 15/15/15 1/1/1 4/4/4
f 18/21/18 15/15/15 4/4/4
o Hidden
g Hidden
v 1.50000000 1.25000000 -1.50000000
v 1.50000000 -1.00000000 -1.50000000
v -1.50000000 -1.00000000 -1.50000000
v -1.50000000 1.25000000 -1.50000000
v -1.50000000 -1.00000000 1.50000000
v -1.50000000 0.25000000 1.50000000
v -1.50000000 0.35953307 1.06011587
v -1.50000000 0.54957938 0.64613198
v -1.50000000 0.75222375 0.23728926
v -1.50000000 0.94185052 -0.17703877
v -1.50000000 1.10053724 -0.60420460
v -1.50000000 1.20966176 -1.04647706
v 1.50000000 1.25000000 1.50000000
v 1.50000000 -1.00000000 1.50000000
v 1.04647757 1.20965278 1.50000000
v 0.60420975 1.10050821 1.50000000
v 0.17700487 0.94183526 1.50000000
v -0.23750425 0.75211451 1.50000000
v -0.64630534 0.54949675 1.50000000
v -1.06013343 0.35953820 1.50000000
vt 0.00000000 0.00000000
vt 1.00000000 0.00000000
vt 1.00000000 1.00000000
vt 0.00000000 1.00000000
vt 0.99997724 1.00000000
vt 0.00000000 1.00000000
vt 0.00000000 0.00000000
vt 0.55554291 0.00000000
vt 0.60422340 0.14662848
vt 0.68863828 0.28454976
vt 0.77878449 0.42095928
vt 0.86303661 0.55903352
vt 0.93355133 0.70140266
vt 0.98204951 0.84882553
vt 0.99995239 1.00000000
vt 0.00000000 1.00000000
vt 0.00000000 0.00000000
vt 0.55552911 0.00000000
vt 0.98202096 0.84882504
vt 0.93351420 0.70140191
vt 0.86299176 0.55899263
vt 0.77859979 0.42070742
vt 0.68863244 0.28456489
vt 0.60420352 0.14660927
vt 1.00000000 0.00000000
vt 1.00000000 1.00000000
vt 0.00000000 1.00000000
vt 0.00000000 0.00000000
vt 0.00000000 0.00000000
vt 1.00000000 0.00000000
vt 1.00000000 1.00000000
vt 0.00000000 1.00000000
vn -0.00000000 0.00000000 -1.00000000
vn -0.00000000 0.00000000 -1.00000000
vn -0.00000000 0.00000000 -1.00000000
vn -0.00000000 0.00000000 -1.00000000
vn -1.00000000 0.00000000 0.00000000
vn -1.00000000 0.00000000 0.00000000
vn -1.00000000 0.00000000 0.00000000
vn -1.00000000 0.00000000 0.00000000
vn -1.00000000 0.00000000 0.00000000
vn -1.00000000 0.00000000 0.00000000
vn -1.00000000 0.00000000 0.00000000
vn -1.00000000 0.00000000 0.00000000
vn -1.00000000 0.00000000 0.00000000
vn -1.00000000 0.00000000 0.00000000
vn 0.00000000 0.00000000 1.00000000
vn 0.00000000 0.00000000 1.00000000
vn 0.00000000 0.00000000 1.00000000
vn 0.00000000 0.00000000 1.00000000
vn 0.00000000 0.00000000 1.00000000
vn 0.00000000 0.00000000 1.00000000
vn 0.00000000 0.00000000 1.00000000
vn 0.00000000 0.00000000 1.00000000
vn 0.00000000 0.00000000 1.00000000
vn 0.00000000 0.00000000 1.00000000
vn 0.00000000 -1.00000000 -0.00000000
vn 0.00000000 -1.00000000 -0.00000000
vn 0.00000000 -1.00000000 -0.00000000
vn 0.00000000 -1.00000000 -0.00000000
vn 1.00000000 0.00000000 0.00000000
vn 1.00000000 0.00000000 0.00000000
vn 1.00000000 0.00000000 0.00000000
vn 1.00000000 0.00000000 0.00000000
s 1
usemtl Hidden
f 38/46/38 39/47/39 41/49/41
f 39/47/39 40/48/40 41/49/41
s 2
f 42/52/44 43/53/45 44/54/46
f 40/51/43 42/52/44 45/55/47
f 40/51/43 45/55/47 46/56/48
f 46/56/48 47/57/49 40/51/43
f 47/57/49 48/58/50 40/51/43
f 48/58/50 49/59/51 40/51/43
f 49/59/51 41/50/42 40/51/43
f 42/52/44 44/54/46 45/55/47
s 3
f 57/69/61 43/63/55 42/62/54
f 56/68/60 42/62/54 51/61/53
f 51/61/53 54/66/58 55/67/59
f 51/61/53 53/65/57 54/66/58
f 51/61/53 52/64/56 53/65/57
f 51/61/53 50/60/52 52/64/56
f 51/61/53 55/67/59 56/68/60
f 56/68/60 57/69/61 42/62/54
s 4
f 40/70/62 39/71/63 51/72/64
f 40/70/62 51/72/64 42/73/65
s 5
f 50/74/66 51/75/67 39/76/68
f 50/74/66 39/76/68 38/77/69
