mtllib Terrain_Grass_Flat.mtl
o Grass
g Grass
v -0.50000000 0.25000000 0.50000000
v 0.50000000 0.25000000 0.50000000
v 0.50000000 0.25000000 -0.50000000
v -0.50000000 0.25000000 -0.50000000
vt 0.00000000 0.00000000
vt 1.00000000 0.00000000
vt 1.00000000 1.00000000
vt 0.00000000 1.00000000
vn 0.00000000 1.00000000 0.00000000
vn 0.00000000 1.00000000 0.00000000
vn 0.00000000 1.00000000 0.00000000
vn 0.00000000 1.00000000 0.00000000
s 1
usemtl Grass
f 1/1/1 2/2/2 3/3/3
f 1/1/1 3/3/3 4/4/4
o Hidden
g Hidden
v -0.50000000 0.25000000 0.50000000
v 0.50000000 0.25000000 0.50000000
v 0.50000000 -1.00000000 0.50000000
v -0.50000000 -1.00000000 0.50000000
v -0.50000000 0.25000000 -0.50000000
v -0.50000000 -1.00000000 -0.50000000
v 0.50000000 0.25000000 -0.50000000
v 0.50000000 -1.00000000 -0.50000000
vt 0.00000000 0.00000000
vt 1.00000000 0.00000000
vt 1.00000000 1.00000000
vt 0.00000000 1.00000000
vt 0.00000000 1.00000000
vt 0.00000000 0.00000000
vt 1.00000000 0.00000000
vt 1.00000000 1.00000000
vt 0.00000000 0.00000000
vt 1.00000000 0.00000000
vt 1.00000000 1.00000000
vt 0.00000000 1.00000000
vt 0.00000000 0.00000000
vt 1.00000000 0.00000000
vt 1.00000000 1.00000000
vt 0.00000000 1.00000000
vt 0.00000000 1.00000000
vt 0.00000000 0.00000000
vt 1.00000000 0.00000000
vt 1.00000000 1.00000000
vn 0.00000000 0.00000000 1.00000000
vn 0.00000000 0.00000000 1.00000000
vn 0.00000000 0.00000000 1.00000000
vn 0.00000000 0.00000000 1.00000000
vn -1.00000000 0.00000000 0.00000000
vn -1.00000000 0.00000000 0.00000000
vn -1.00000000 0.00000000 0.00000000
vn -1.00000000 0.00000000 0.00000000
vn 0.00000000 0.00000000 -1.00000000
vn 0.00000000 0.00000000 -1.00000000
vn 0.00000000 0.00000000 -1.00000000
vn 0.00000000 0.00000000 -1.00000000
vn 0.00000000 -1.00000000 0.00000000
vn 0.00000000 -1.00000000 0.00000000
vn 0.00000000 -1.00000000 0.00000000
vn 0.00000000 -1.00000000 0.00000000
vn 1.00000000 0.00000000 0.00000000
vn 1.00000000 0.00000000 0.00000000
vn 1.00000000 0.00000000 0.00000000
vn 1.00000000 0.00000000 0.00000000
s 1
usemtl Hidden
f 8/8/8 7/7/7 5/5/5
f 7/7/7 6/6/6 5/5/5
s 2
f 10/12/12 8/11/11 9/9/9
f 8/11/11 5/10/10 9/9/9
s 3
f 9/13/13 11/14/14 10/16/16
f 11/14/14 12/15/15 10/16/16
s 4
f 10/20/20 12/19/19 7/18/18
f 10/20/20 7/18/18 8/17/17
s 5
f 11/21/21 6/22/22 12/24/24
f 6/22/22 7/23/23 12/24/24
