mtllib Terrain_Escarpment_Top_Path.mtl
o Dirt_Wall
g Dirt_Wall
v 0.12500000 -0.25000000 0.50000000
v 0.12500000 -0.25000000 -0.50000000
v 0.12500000 -1.00000000 -0.50000000
v 0.12500000 -1.00000000 0.50000000
v 0.07716434 -0.00951515 0.50000000
v 0.12500000 0.00000000 0.50000000
v 0.12500000 0.00000000 -0.50000000
v 0.07716434 -0.00951515 -0.50000000
v 0.03661165 -0.03661165 -0.50000000
v 0.03661165 -0.03661165 0.50000000
v 0.00951515 -0.07716434 -0.50000000
v 0.00951515 -0.07716434 0.50000000
v 0.00000000 -0.12500000 -0.50000000
v 0.00000000 -0.12500000 0.50000000
v 0.00951515 -0.17283566 -0.50000000
v 0.00951515 -0.17283566 0.50000000
v 0.03661165 -0.21338835 -0.50000000
v 0.03661165 -0.21338835 0.50000000
v 0.07716434 -0.24048485 -0.50000000
v 0.07716434 -0.24048485 0.50000000
v 0.50000000 0.00000000 0.50000000
v 0.50000000 0.00000000 -0.50000000
vt 1.00000000 1.00000000
vt 0.00000000 1.00000000
vt 0.00000000 0.00000000
vt 1.00000000 0.00000000
vt 0.00000000 0.12994545
vt 0.00000000 0.00000000
vt 1.00000000 0.00000000
vt 1.00000000 0.12994545
vt 1.00000000 0.25000000
vt 0.00000000 0.25000000
vt 1.00000000 0.37005455
vt 0.00000000 0.37005455
vt 1.00000000 0.50000000
vt 0.00000000 0.50000000
vt 1.00000000 0.62994545
vt 0.00000000 0.62994545
vt 1.00000000 0.75000000
vt 0.00000000 0.75000000
vt 1.00000000 0.87005455
vt 0.00000000 0.87005455
vt 1.00000000 1.00000000
vt 0.00000000 1.00000000
vt 0.00000000 1.00000000
vt 0.00000000 0.00000000
vt 1.00000000 0.00000000
vt 1.00000000 1.00000000
vn -1.00000000 0.00000000 0.00000000
vn -1.00000000 0.00000000 0.00000000
vn -1.00000000 0.00000000 0.00000000
vn -1.00000000 0.00000000 0.00000000
vn -0.38268250 0.92387992 0.00000000
vn -0.00000000 1.00000000 0.00000000
vn -0.00000000 1.00000000 0.00000000
vn -0.38268250 0.92387992 0.00000000
vn -0.70710678 0.70710678 0.00000000
vn -0.70710678 0.70710678 0.00000000
vn -0.92387992 0.38268250 0.00000000
vn -0.92387992 0.38268250 0.00000000
vn -1.00000000 0.00000000 0.00000000
vn -1.00000000 -0.00000000 0.00000000
vn -0.92387992 -0.38268250 0.00000000
vn -0.92387992 -0.38268250 0.00000000
vn -0.70710678 -0.70710678 -0.00000000
vn -0.70710678 -0.70710678 -0.00000000
vn -0.38268250 -0.92387992 -0.00000000
vn -0.38268250 -0.92387992 -0.00000000
vn 0.00000000 -1.00000000 -0.00000000
vn 0.00000000 -1.00000000 -0.00000000
vn 0.00000000 1.00000000 0.00000000
vn 0.00000000 1.00000000 0.00000000
s 1
usemtl Dirt
f 1/1/1 2/2/2 4/4/4
f 2/2/2 3/3/3 4/4/4
s 2
usemtl Path
f 5/5/5 6/6/6 8/8/8
f 22/24/24 7/25/7 6/26/6
f 21/23/23 22/24/24 6/26/6
f 6/6/6 7/7/7 8/8/8
f 9/9/9 10/10/10 5/5/5
f 11/11/11 12/12/12 10/10/10
f 13/13/13 14/14/14 12/12/12
f 13/13/13 16/16/16 14/14/14
f 15/15/15 18/18/18 16/16/16
f 17/17/17 20/20/20 18/18/18
f 19/19/19 1/22/22 20/20/20
f 19/19/19 2/21/21 1/22/22
f 17/17/17 19/19/19 20/20/20
f 15/15/15 17/17/17 18/18/18
f 13/13/13 15/15/15 16/16/16
f 11/11/11 13/13/13 12/12/12
f 9/9/9 11/11/11 10/10/10
f 8/8/8 9/9/9 5/5/5
o Hidden
g Hidden
v 0.50000000 0.00000000 -0.50000000
v 0.50000000 -1.00000000 -0.50000000
v 0.50000000 -1.00000000 0.50000000
v 0.50000000 0.00000000 0.50000000
v 0.12500000 -1.00000000 0.50000000
v 0.12500000 0.00000000 0.50000000
v 0.12500000 -0.25000000 0.50000000
v 0.07716469 -0.00951501 0.50000000
v 0.03661165 -0.03661165 0.50000000
v 0.00951501 -0.07716469 0.50000000
v 0.00000000 -0.12500000 0.50000000
v 0.00951501 -0.17283531 0.50000000
v 0.03661165 -0.21338835 0.50000000
v 0.07716469 -0.24048499 0.50000000
v 0.12500000 0.00000000 -0.50000000
v 0.12500000 -0.25000000 -0.50000000
v 0.12500000 -1.00000000 -0.50000000
v 0.07716469 -0.24048499 -0.50000000
v 0.03661165 -0.21338835 -0.50000000
v 0.00951501 -0.17283531 -0.50000000
v 0.00000000 -0.12500000 -0.50000000
v 0.00951501 -0.07716469 -0.50000000
v 0.03661165 -0.03661165 -0.50000000
v 0.07716469 -0.00951501 -0.50000000
vt 0.00000000 1.00000000
vt 0.00000000 0.00000000
vt 1.00000000 0.00000000
vt 1.00000000 1.00000000
vt 0.25000000 0.00000000
vt 1.00000000 0.00000000
vt 1.00000000 1.00000000
vt 0.25000000 1.00000000
vt 0.25000000 0.75000000
vt 0.15433007 0.99048513
vt 0.07322330 0.96338835
vt 0.01902973 0.92283496
vt 0.00000000 0.87500000
vt 0.01902973 0.82716504
vt 0.07322330 0.78661165
vt 0.15433007 0.75951487
vt 0.25000000 1.00000000
vt 0.25000000 0.75000000
vt 0.25000000 0.00000000
vt 1.00000000 0.00000000
vt 1.00000000 1.00000000
vt 0.15433007 0.75951487
vt 0.07322330 0.78661165
vt 0.01902973 0.82716504
vt 0.00000000 0.87500000
vt 0.01902973 0.92283496
vt 0.07322330 0.96338835
vt 0.15433007 0.99048513
vt 0.00000000 1.00000000
vt 0.00000000 0.00000000
vt 1.00000000 0.00000000
vt 1.00000000 1.00000000
vn 1.00000000 0.00000000 0.00000000
vn 1.00000000 0.00000000 0.00000000
vn 1.00000000 0.00000000 0.00000000
vn 1.00000000 0.00000000 0.00000000
vn -0.00000000 0.00000000 1.00000000
vn -0.00000000 0.00000000 1.00000000
vn -0.00000000 0.00000000 1.00000000
vn -0.00000000 0.00000000 1.00000000
vn -0.00000000 0.00000000 1.00000000
vn -0.00000000 0.00000000 1.00000000
vn -0.00000000 0.00000000 1.00000000
vn -0.00000000 0.00000000 1.00000000
vn -0.00000000 0.00000000 1.00000000
vn -0.00000000 0.00000000 1.00000000
vn -0.00000000 0.00000000 1.00000000
vn -0.00000000 0.00000000 1.00000000
vn -0.00000000 0.00000000 -1.00000000
vn -0.00000000 0.00000000 -1.00000000
vn -0.00000000 0.00000000 -1.00000000
vn -0.00000000 0.00000000 -1.00000000
vn -0.00000000 0.00000000 -1.00000000
vn -0.00000000 0.00000000 -1.00000000
vn -0.00000000 0.00000000 -1.00000000
vn -0.00000000 0.00000000 -1.00000000
vn -0.00000000 0.00000000 -1.00000000
vn -0.00000000 0.00000000 -1.00000000
vn -0.00000000 0.00000000 -1.00000000
vn -0.00000000 0.00000000 -1.00000000
vn -0.00000000 -1.00000000 -0.00000000
vn -0.00000000 -1.00000000 -0.00000000
vn -0.00000000 -1.00000000 -0.00000000
vn -0.00000000 -1.00000000 -0.00000000
s 1
usemtl Hidden
f 26/30/28 25/29/27 23/27/25
f 25/29/27 24/28/26 23/27/25
s 2
f 32/38/36 33/39/37 34/40/38
f 28/34/32 32/38/36 29/35/33
f 25/32/30 26/33/31 29/35/33
f 29/35/33 27/31/29 25/32/30
f 35/41/39 36/42/40 29/35/33
f 26/33/31 28/34/32 29/35/33
f 28/34/32 30/36/34 31/37/35
f 32/38/36 35/41/39 29/35/33
f 28/34/32 31/37/35 32/38/36
f 32/38/36 34/40/38 35/41/39
s 3
f 42/50/48 43/51/49 44/52/50
f 38/44/42 44/52/50 37/43/41
f 45/53/51 46/54/52 37/43/41
f 23/47/45 24/46/44 38/44/42
f 24/46/44 39/45/43 38/44/42
f 38/44/42 37/43/41 23/47/45
f 38/44/42 40/48/46 41/49/47
f 38/44/42 41/49/47 44/52/50
f 44/52/50 45/53/51 37/43/41
f 41/49/47 42/50/48 44/52/50
s 4
f 27/58/56 39/57/55 24/56/54
f 27/58/56 24/56/54 25/55/53
