mtllib Terrain_Mountain_3.mtl
o Hidden
g Hidden
v 2.50000000 0.00000000 -0.00000000
v 2.30969980 0.00000000 0.95670625
v 1.76776695 0.00000000 1.76776695
v 0.95670625 0.00000000 2.30969980
v 0.00000000 0.00000000 2.50000000
v -0.95670625 0.00000000 2.30969980
v -1.76776695 0.00000000 1.76776695
v -2.30969980 0.00000000 0.95670625
v -2.50000000 0.00000000 -0.00000000
v -2.30969980 0.00000000 -0.95670625
v -1.76776695 0.00000000 -1.76776695
v -0.95670625 0.00000000 -2.30969980
v 0.00000000 0.00000000 -2.50000000
v 0.95670625 0.00000000 -2.30969980
v 1.76776695 0.00000000 -1.76776695
v 2.30969980 0.00000000 -0.95670625
v 0.00000000 0.00000000 -0.00000000
vt 0.50000000 0.00000000
vt 0.30866014 0.03805946
vt 0.14644661 0.14644661
vt 0.03805946 0.30866014
vt 0.00000000 0.50000000
vt 0.03805946 0.69133986
vt 0.14644661 0.85355339
vt 0.30866014 0.96194054
vt 0.50000000 1.00000000
vt 0.69133986 0.96194054
vt 0.85355339 0.85355339
vt 0.96194054 0.69133986
vt 1.00000000 0.50000000
vt 0.96194054 0.30866014
vt 0.85355339 0.14644661
vt 0.69133986 0.03805946
vt 0.50000000 0.50000000
vn 0.00000000 -1.00000000 0.00000000
vn 0.00000000 -1.00000000 0.00000000
vn 0.00000000 -1.00000000 0.00000000
vn 0.00000000 -1.00000000 0.00000000
vn 0.00000000 -1.00000000 0.00000000
vn 0.00000000 -1.00000000 0.00000000
vn 0.00000000 -1.00000000 0.00000000
vn 0.00000000 -1.00000000 0.00000000
vn 0.00000000 -1.00000000 0.00000000
vn 0.00000000 -1.00000000 0.00000000
vn 0.00000000 -1.00000000 0.00000000
vn 0.00000000 -1.00000000 0.00000000
vn 0.00000000 -1.00000000 0.00000000
vn 0.00000000 -1.00000000 0.00000000
vn 0.00000000 -1.00000000 0.00000000
vn 0.00000000 -1.00000000 0.00000000
vn 0.00000000 -1.00000000 0.00000000
s 1
usemtl Hidden
f 1/1/1 2/2/2 17/17/17
f 15/15/15 16/16/16 17/17/17
f 14/14/14 15/15/15 17/17/17
f 13/13/13 14/14/14 17/17/17
f 12/12/12 13/13/13 17/17/17
f 11/11/11 12/12/12 17/17/17
f 10/10/10 11/11/11 17/17/17
f 9/9/9 10/10/10 17/17/17
f 8/8/8 9/9/9 17/17/17
f 7/7/7 8/8/8 17/17/17
f 6/6/6 7/7/7 17/17/17
f 5/5/5 6/6/6 17/17/17
f 4/4/4 5/5/5 17/17/17
f 3/3/3 4/4/4 17/17/17
f 2/2/2 3/3/3 17/17/17
f 16/16/16 1/1/1 17/17/17
o Hill_Mat_1
g Hill_Mat_1
v -2.17048191 4.28996609 0.78984938
v -1.76939835 4.28996609 1.48461552
v -1.66122759 5.10106279 0.60452915
v -1.35424918 5.10106279 1.13628418
v -0.89905165 5.64302298 0.32716946
v -0.73291581 5.64302298 0.61495377
v -2.30970400 4.28995750 0.00000000
v -2.50000011 3.33333333 -0.00000000
v -2.34927612 3.33333333 0.85492939
v -1.91516254 3.33333333 1.60692081
v -1.24999567 3.33333333 2.16505601
v -1.15485200 4.28995750 2.00026234
v -1.76780325 5.10106112 0.00000000
v -0.88390162 5.10106112 1.53096252
v -0.95672730 5.64303149 0.00000000
v -0.47836366 5.64303148 0.82855017
v -0.00000000 5.83333333 0.00000000
v -2.34924410 3.33333333 0.85501734
v -1.91513239 3.33333333 1.60695673
v -2.50000000 0.00000000 0.00000000
v -2.34924255 0.00000000 0.85502013
v -1.91512428 0.00000000 1.60695333
v -1.25000000 0.00000000 2.16506351
vt 0.35268888 0.25989314
vt 0.67883740 0.25989314
vt 0.35268888 0.50000220
vt 0.67883740 0.50000220
vt 0.35268888 0.74011024
vt 0.67883740 0.74011024
vt 0.00009105 0.25989314
vt 0.00009105 0.00003000
vt 0.35268888 0.00003000
vt 0.67883740 0.00003000
vt 1.00000000 0.00003000
vt 1.00000000 0.25989314
vt 0.00009105 0.50000220
vt 1.00000000 0.50000220
vt 0.00009105 0.74011024
vt 1.00000000 0.74011024
vt 0.35268888 1.00000000
vt 0.67883740 1.00000000
vt 1.00000000 1.00000000
vt 0.35266484 0.00000000
vt 0.67882553 0.00000000
vt 0.35268582 1.00000000
vt 0.00003067 1.00000000
vt 0.00003067 0.00000000
vt 0.35268582 0.00000000
vt 0.67883522 0.00000000
vt 0.67883522 1.00000000
vt 1.00000000 0.00000000
vt 1.00000000 1.00000000
vt 0.35262883 1.00000000
vt 0.67880831 1.00000000
vn -0.86819276 0.38265310 0.31593975
vn -0.70775934 0.38265310 0.59384621
vn -0.66449103 0.70709178 0.24181166
vn -0.54169967 0.70709178 0.45451367
vn -0.35962066 0.92387586 0.13086778
vn -0.29316632 0.92387586 0.24598151
vn -0.92389210 0.38265310 0.00000000
vn -1.00000000 0.00000000 -0.00000000
vn -0.93971230 0.00000000 0.34196608
vn -0.76606277 0.00000000 0.64276577
vn -0.50000000 0.00000000 0.86602540
vn -0.46194605 0.38265310 0.80011402
vn -0.70712178 0.70709178 -0.00000000
vn -0.35356089 0.70709178 0.61238543
vn -0.38269230 0.92387586 0.00000000
vn -0.19134615 0.92387586 0.33142125
vn -0.00000000 1.00000000 0.00000000
vn -0.93969988 -0.00000000 0.34200020
vn -0.76605061 -0.00000000 0.64278026
vn -1.00000000 0.00000000 0.00000000
vn -0.93969948 0.00000000 0.34200130
vn -0.76605071 0.00000000 0.64278014
vn -0.50000000 0.00000000 0.86602540
s 1
usemtl Grass
f 24/24/24 25/25/25 18/18/18
f 18/18/18 21/21/21 20/20/20
f 20/20/20 23/23/23 22/22/22
f 34/34/34 32/32/32 22/22/22
f 32/32/32 30/30/30 22/22/22
f 33/33/33 34/36/34 23/23/23
f 34/35/34 22/22/22 23/23/23
f 31/31/31 33/33/33 23/23/23
f 30/30/30 20/20/20 22/22/22
f 31/31/31 23/23/23 21/21/21
f 20/20/20 21/21/21 23/23/23
f 29/29/29 21/21/21 19/19/19
f 28/28/28 19/19/19 27/27/27
f 39/43/39 36/44/36 27/48/27
f 27/48/27 38/42/38 39/43/39
f 35/39/35 26/47/26 38/42/38
f 26/47/26 37/41/37 38/42/38
f 27/48/27 35/39/35 38/42/38
f 39/43/39 28/46/28 36/44/36
f 39/43/39 40/45/40 28/46/28
f 27/27/27 36/38/36 28/28/28
f 26/26/26 35/37/35 19/19/19
f 35/37/35 27/27/27 19/19/19
f 28/28/28 29/29/29 19/19/19
f 29/29/29 31/31/31 21/21/21
f 18/18/18 19/19/19 21/21/21
f 19/19/19 18/18/18 26/26/26
f 26/47/26 25/40/25 37/41/37
f 25/25/25 26/26/26 18/18/18
f 24/24/24 18/18/18 20/20/20
f 30/30/30 24/24/24 20/20/20
v 1.91510906 3.33333333 1.60696921
v 1.25000003 3.33333333 2.16506356
v 1.25000000 0.00000000 2.16506351
v 1.91510897 0.00000000 1.60697158
v 2.34921666 3.33333333 0.85505014
v 2.34922627 0.00000000 0.85506486
v 2.50000000 0.00000000 0.00000000
v 2.50000000 3.33333333 0.00000000
v 1.76935635 4.28996609 1.48466558
v 2.17043725 4.28996609 0.78997209
v 1.35421703 5.10106279 1.13632249
v 1.66119341 5.10106279 0.60462306
v 0.73289842 5.64302298 0.61497451
v 0.89903316 5.64302298 0.32722029
v 1.15485200 4.28995750 2.00026234
v 2.30972739 4.28997297 0.00000000
v 0.88390162 5.10106112 1.53096252
v 1.76780445 5.10106279 0.00000000
v 0.47836366 5.64303148 0.82855017
v 0.95673769 5.64302011 0.00000000
v -0.00000000 5.83333333 0.00000000
vt 0.32116588 1.00000000
vt 0.00000000 1.00000000
vt 0.00000000 0.00000000
vt 0.32116588 0.00000000
vt 0.64731573 1.00000000
vt 0.64731573 0.00000000
vt 1.00000000 0.00000000
vt 1.00000000 1.00000000
vt 0.32116588 0.25989314
vt 0.64731573 0.25989314
vt 0.32116588 0.50000220
vt 0.64731573 0.50000220
vt 0.32116588 0.74011024
vt 0.64731573 0.74011024
vt 0.00000000 0.25989314
vt 0.00000000 0.00003000
vt 0.32116588 0.00003000
vt 0.64731573 0.00003000
vt 1.00000000 0.00003000
vt 1.00000000 0.25989314
vt 0.00000000 0.50000220
vt 1.00000000 0.50000220
vt 0.00000000 0.74011024
vt 1.00000000 0.74011024
vt 0.32116588 1.00000000
vt 0.64731573 1.00000000
vt 1.00000000 1.00000000
vn 0.76604459 0.00000000 0.64278744
vn 0.50000000 0.00000000 0.86602540
vn 0.50000000 0.00000000 0.86602540
vn 0.76604459 0.00000000 0.64278744
vn 0.93969296 0.00000000 0.34201920
vn 0.93969296 0.00000000 0.34201920
vn 1.00000000 0.00000000 -0.00000000
vn 1.00000000 0.00000000 -0.00000000
vn 0.70774254 0.38265310 0.59386623
vn 0.86817490 0.38265310 0.31598883
vn 0.54168681 0.70709178 0.45452900
vn 0.66447736 0.70709178 0.24184923
vn 0.29315937 0.92387586 0.24598980
vn 0.35961326 0.92387586 0.13088811
vn 0.46194605 0.38265310 0.80011402
vn 0.92389210 0.38265310 -0.00000000
vn 0.35356089 0.70709178 0.61238543
vn 0.70712178 0.70709178 0.00000000
vn 0.19134615 0.92387586 0.33142125
vn 0.38269230 0.92387586 -0.00000000
vn 0.00000000 1.00000000 0.00000000
s 1
usemtl Grass
f 41/49/41 42/50/42 44/52/44
f 42/50/42 43/51/43 44/52/44
f 41/65/41 45/66/45 49/57/49
f 49/57/49 50/58/50 51/59/51
f 51/59/51 52/60/52 53/61/53
f 61/74/61 53/61/53 54/62/54
f 60/72/60 61/75/61 54/62/54
f 61/73/61 59/71/59 53/61/53
f 59/71/59 57/69/57 53/61/53
f 60/72/60 54/62/54 52/60/52
f 58/70/58 60/72/60 52/60/52
f 52/60/52 54/62/54 53/61/53
f 56/68/56 58/70/58 52/60/52
f 57/69/57 51/59/51 53/61/53
f 57/69/57 55/63/55 51/59/51
f 56/68/56 52/60/52 50/58/50
f 50/58/50 52/60/52 51/59/51
f 48/67/48 56/68/56 50/58/50
f 55/63/55 49/57/49 51/59/51
f 45/66/45 48/67/48 50/58/50
f 45/66/45 50/58/50 49/57/49
f 47/55/47 48/56/48 45/53/45
f 46/54/46 47/55/47 45/53/45
f 55/63/55 41/65/41 49/57/49
f 55/63/55 42/64/42 41/65/41
f 41/49/41 44/52/44 46/54/46
f 45/53/45 41/49/41 46/54/46
v 0.43410640 3.33333333 -2.46202164
v 1.24999600 3.33333333 -2.16505659
v 1.25000000 0.00000000 -2.16506351
v 0.43412489 0.00000000 -2.46201860
v -0.43412045 3.33333333 -2.46204107
v -0.43412489 0.00000000 -2.46201860
v -1.25000000 0.00000000 -2.16506351
v -1.25000000 3.33333333 -2.16506351
v 0.40107477 4.28996609 -2.27464125
v -0.40107477 4.28996609 -2.27464125
v 0.30697168 5.10106279 -1.74094830
v -0.30697168 5.10106279 -1.74094830
v 0.16613220 5.64302298 -0.94219628
v -0.16613220 5.64302298 -0.94219628
v 1.15485200 4.28995750 -2.00026234
v -1.15485200 4.28995750 -2.00026234
v 0.88390162 5.10106112 -1.53096252
v -0.88390162 5.10106112 -1.53096252
v 0.47836366 5.64303148 -0.82855017
v -0.47836366 5.64303148 -0.82855017
v -0.00000000 5.83333333 0.00000000
vt 0.32496987 1.00000000
vt 0.00000000 1.00000000
vt 0.00000000 0.00000000
vt 0.32496987 0.00000000
vt 0.67503013 1.00000000
vt 0.67503013 0.00000000
vt 1.00000000 0.00000000
vt 1.00000000 1.00000000
vt 0.32496987 0.25989314
vt 0.67503013 0.25989314
vt 0.32496987 0.50000220
vt 0.67503013 0.50000220
vt 0.32496987 0.74011024
vt 0.67503013 0.74011024
vt 0.00000000 0.25989314
vt 0.00000000 0.00003000
vt 0.32496987 0.00003000
vt 0.67503013 0.00003000
vt 1.00000000 0.00003000
vt 1.00000000 0.25989314
vt 0.00000000 0.50000220
vt 1.00000000 0.50000220
vt 0.00000000 0.74011024
vt 1.00000000 0.74011024
vt 0.32496987 1.00000000
vt 0.67503013 1.00000000
vt 1.00000000 1.00000000
vn 0.17364572 0.00000000 -0.98480819
vn 0.50000000 0.00000000 -0.86602540
vn 0.50000000 0.00000000 -0.86602540
vn 0.17364572 0.00000000 -0.98480819
vn -0.17364572 0.00000000 -0.98480819
vn -0.17364572 0.00000000 -0.98480819
vn -0.50000000 0.00000000 -0.86602540
vn -0.50000000 0.00000000 -0.86602540
vn 0.16042991 0.38265310 -0.90985650
vn -0.16042991 0.38265310 -0.90985650
vn 0.12278867 0.70709178 -0.69637932
vn -0.12278867 0.70709178 -0.69637932
vn 0.06645288 0.92387586 -0.37687851
vn -0.06645288 0.92387586 -0.37687851
vn 0.46194605 0.38265310 -0.80011402
vn -0.46194605 0.38265310 -0.80011402
vn 0.35356089 0.70709178 -0.61238543
vn -0.35356089 0.70709178 -0.61238543
vn 0.19134615 0.92387586 -0.33142125
vn -0.19134615 0.92387586 -0.33142125
vn 0.00000000 1.00000000 -0.00000000
s 1
usemtl Grass
f 62/76/62 63/77/63 65/79/65
f 76/90/76 63/91/63 70/84/70
f 70/84/70 71/85/71 72/86/72
f 72/86/72 73/87/73 74/88/74
f 82/101/82 74/88/74 75/89/75
f 79/97/79 81/99/81 75/89/75
f 81/99/81 82/102/82 75/89/75
f 82/100/82 80/98/80 74/88/74
f 80/98/80 78/96/78 74/88/74
f 79/97/79 75/89/75 73/87/73
f 73/87/73 75/89/75 74/88/74
f 77/95/77 79/97/79 73/87/73
f 66/93/66 69/94/69 77/95/77
f 67/81/67 68/82/68 69/83/69
f 67/81/67 69/83/69 66/80/66
f 78/96/78 72/86/72 74/88/74
f 77/95/77 73/87/73 71/85/71
f 71/85/71 73/87/73 72/86/72
f 66/93/66 77/95/77 71/85/71
f 76/90/76 70/84/70 72/86/72
f 78/96/78 76/90/76 72/86/72
f 63/77/63 64/78/64 65/79/65
f 62/92/62 71/85/71 70/84/70
f 62/92/62 66/93/66 71/85/71
f 63/91/63 62/92/62 70/84/70
f 62/76/62 65/79/65 67/81/67
f 66/80/66 62/76/62 67/81/67
o Hill_Mat_2
g Hill_Mat_2
v -0.43411467 3.33333333 2.46202040
v -1.24999567 3.33333333 2.16505601
v -1.25000000 0.00000000 2.16506351
v -0.43412489 0.00000000 2.46201860
v 0.43412060 3.33333333 2.46204203
v 0.43412489 0.00000000 2.46201860
v 1.25000000 0.00000000 2.16506351
v 1.25000003 3.33333333 2.16506356
v -0.40107477 4.28996609 2.27464125
v 0.40107477 4.28996609 2.27464125
v -0.30697168 5.10106279 1.74094830
v 0.30697168 5.10106279 1.74094830
v -0.16613220 5.64302298 0.94219628
v 0.16613220 5.64302298 0.94219628
v -1.15485200 4.28995750 2.00026234
v 1.15485200 4.28995750 2.00026234
v -0.88390162 5.10106112 1.53096252
v 0.88390162 5.10106112 1.53096252
v -0.47836366 5.64303148 0.82855017
v 0.47836366 5.64303148 0.82855017
v -0.00000000 5.83333333 0.00000000
vt 0.32496987 1.00000000
vt 0.00000000 1.00000000
vt 0.00000000 0.00000000
vt 0.32496987 0.00000000
vt 0.67503013 1.00000000
vt 0.67503013 0.00000000
vt 1.00000000 0.00000000
vt 1.00000000 1.00000000
vt 0.32496987 0.25989314
vt 0.67503013 0.25989314
vt 0.32496987 0.50000220
vt 0.67503013 0.50000220
vt 0.32496987 0.74011024
vt 0.67503013 0.74011024
vt 0.00000000 0.25989314
vt 0.00000000 0.00003000
vt 0.32496987 0.00003000
vt 0.67503013 0.00003000
vt 1.00000000 0.00003000
vt 1.00000000 0.25989314
vt 0.00000000 0.50000220
vt 1.00000000 0.50000220
vt 0.00000000 0.74011024
vt 1.00000000 0.74011024
vt 0.32496987 1.00000000
vt 0.67503013 1.00000000
vt 1.00000000 1.00000000
vn -0.17364572 0.00000000 0.98480819
vn -0.50000000 0.00000000 0.86602540
vn -0.50000000 0.00000000 0.86602540
vn -0.17364572 0.00000000 0.98480819
vn 0.17364572 0.00000000 0.98480819
vn 0.17364572 0.00000000 0.98480819
vn 0.50000000 0.00000000 0.86602540
vn 0.50000000 0.00000000 0.86602540
vn -0.16042991 0.38265310 0.90985650
vn 0.16042991 0.38265310 0.90985650
vn -0.12278867 0.70709178 0.69637932
vn 0.12278867 0.70709178 0.69637932
vn -0.06645288 0.92387586 0.37687851
vn 0.06645288 0.92387586 0.37687851
vn -0.46194605 0.38265310 0.80011402
vn 0.46194605 0.38265310 0.80011402
vn -0.35356089 0.70709178 0.61238543
vn 0.35356089 0.70709178 0.61238543
vn -0.19134615 0.92387586 0.33142125
vn 0.19134615 0.92387586 0.33142125
vn 0.00000000 1.00000000 0.00000000
s 1
usemtl Leaves_Gold
f 83/103/83 84/104/84 86/106/86
f 84/104/84 85/105/85 86/106/86
f 83/119/83 92/112/92 91/111/91
f 91/111/91 94/114/94 93/113/93
f 93/113/93 96/116/96 95/115/95
f 103/127/103 101/125/101 95/115/95
f 101/125/101 99/123/99 95/115/95
f 102/126/102 103/129/103 96/116/96
f 103/128/103 95/115/95 96/116/96
f 100/124/100 102/126/102 96/116/96
f 99/123/99 93/113/93 95/115/95
f 99/123/99 97/117/97 93/113/93
f 100/124/100 96/116/96 94/114/94
f 93/113/93 94/114/94 96/116/96
f 98/122/98 100/124/100 94/114/94
f 87/120/87 90/121/90 98/122/98
f 88/108/88 89/109/89 90/110/90
f 88/108/88 90/110/90 87/107/87
f 97/117/97 91/111/91 93/113/93
f 98/122/98 94/114/94 92/112/92
f 91/111/91 92/112/92 94/114/94
f 87/120/87 98/122/98 92/112/92
f 83/119/83 87/120/87 92/112/92
f 97/117/97 83/119/83 91/111/91
f 97/117/97 84/118/84 83/119/83
f 83/103/83 86/106/86 88/108/88
f 87/107/87 83/103/83 88/108/88
v 2.17043725 4.28996609 -0.78997209
v 1.76935635 4.28996609 -1.48466558
v 1.66119341 5.10106279 -0.60462306
v 1.35421704 5.10106279 -1.13632249
v 0.89903316 5.64302298 -0.32722029
v 0.73289842 5.64302298 -0.61497451
v 2.30972739 4.28997297 0.00000000
v 2.50000000 3.33333333 0.00000000
v 2.34922983 3.33333333 -0.85505544
v 1.91511738 3.33333333 -1.60697482
v 1.24999600 3.33333333 -2.16505659
v 1.15485200 4.28995750 -2.00026234
v 1.76780445 5.10106279 0.00000000
v 0.88390162 5.10106112 -1.53096252
v 0.95673769 5.64302011 0.00000000
v 0.47836366 5.64303148 -0.82855017
v -0.00000000 5.83333333 0.00000000
v 2.50000000 0.00000000 0.00000000
v 2.34922627 0.00000000 -0.85506486
v 1.91510897 0.00000000 -1.60697158
v 1.25000000 0.00000000 -2.16506351
vt 0.35268427 0.25989314
vt 0.67883412 0.25989314
vt 0.35268427 0.50000220
vt 0.67883412 0.50000220
vt 0.35268427 0.74011024
vt 0.67883412 0.74011024
vt 0.00000000 0.25989314
vt 0.00000000 0.00003000
vt 0.35268427 0.00003000
vt 0.67883412 0.00003000
vt 1.00000000 0.00003000
vt 1.00000000 0.25989314
vt 0.00000000 0.50000220
vt 1.00000000 0.50000220
vt 0.00000000 0.74011024
vt 1.00000000 0.74011024
vt 0.35268427 1.00000000
vt 0.67883412 1.00000000
vt 1.00000000 1.00000000
vt 0.35268427 1.00000000
vt 0.00000000 1.00000000
vt 0.00000000 0.00000000
vt 0.35268427 0.00000000
vt 0.67883412 0.00000000
vt 0.67883412 1.00000000
vt 1.00000000 0.00000000
vt 1.00000000 1.00000000
vn 0.86817490 0.38265310 -0.31598883
vn 0.70774254 0.38265310 -0.59386623
vn 0.66447736 0.70709178 -0.24184923
vn 0.54168681 0.70709178 -0.45452900
vn 0.35961326 0.92387586 -0.13088811
vn 0.29315937 0.92387586 -0.24598980
vn 0.92389210 0.38265310 0.00000000
vn 1.00000000 0.00000000 0.00000000
vn 0.93969296 -0.00000000 -0.34201920
vn 0.76604459 -0.00000000 -0.64278744
vn 0.50000000 0.00000000 -0.86602540
vn 0.46194605 0.38265310 -0.80011402
vn 0.70712178 0.70709178 0.00000000
vn 0.35356089 0.70709178 -0.61238543
vn 0.38269230 0.92387586 0.00000000
vn 0.19134615 0.92387586 -0.33142125
vn -0.00000000 1.00000000 -0.00000000
vn 1.00000000 0.00000000 0.00000000
vn 0.93969296 0.00000000 -0.34201920
vn 0.76604459 0.00000000 -0.64278744
vn 0.50000000 0.00000000 -0.86602540
s 1
usemtl Leaves_Gold
f 110/136/110 111/137/111 104/130/104
f 104/130/104 105/131/105 106/132/106
f 106/132/106 107/133/107 108/134/108
f 120/147/120 108/134/108 109/135/109
f 117/143/117 119/145/119 109/135/109
f 119/145/119 120/148/120 109/135/109
f 120/146/120 118/144/118 108/134/108
f 117/143/117 109/135/109 107/133/107
f 107/133/107 109/135/109 108/134/108
f 115/141/115 117/143/117 107/133/107
f 113/139/113 114/140/114 115/141/115
f 123/153/123 124/155/124 114/156/114
f 123/153/123 114/156/114 113/154/113
f 122/152/122 113/154/113 112/149/112
f 112/149/112 121/151/121 122/152/122
f 122/152/122 123/153/123 113/154/113
f 118/144/118 106/132/106 108/134/108
f 118/144/118 116/142/116 106/132/106
f 115/141/115 107/133/107 105/131/105
f 105/131/105 107/133/107 106/132/106
f 113/139/113 115/141/115 105/131/105
f 112/138/112 113/139/113 105/131/105
f 112/138/112 105/131/105 104/130/104
f 112/149/112 111/150/111 121/151/121
f 111/137/111 112/138/112 104/130/104
f 110/136/110 104/130/104 106/132/106
f 116/142/116 110/136/110 106/132/106
v -1.91510842 3.33333333 -1.60697055
v -1.25000000 3.33333333 -2.16506351
v -1.25000000 0.00000000 -2.16506351
v -1.91510897 0.00000000 -1.60697158
v -2.34921765 3.33333333 -0.85505069
v -2.34922627 0.00000000 -0.85506486
v -2.50000000 0.00000000 0.00000000
v -2.50000011 3.33333333 -0.00000000
v -1.91515387 3.33333333 -1.60691639
v -2.34926603 3.33333333 -0.85491786
v -1.76939835 4.28996609 -1.48461552
v -2.17048191 4.28996609 -0.78984938
v -1.35424918 5.10106279 -1.13628418
v -1.66122759 5.10106279 -0.60452915
v -0.73291581 5.64302298 -0.61495377
v -0.89905165 5.64302298 -0.32716946
v -1.15485200 4.28995750 -2.00026234
v -2.30970400 4.28995750 0.00000000
v -0.88390162 5.10106112 -1.53096252
v -1.76780325 5.10106112 0.00000000
v -0.47836366 5.64303148 -0.82855017
v -0.95672730 5.64303149 0.00000000
v -0.00000000 5.83333333 0.00000000
vt 0.32116588 1.00000000
vt 0.00000000 1.00000000
vt 0.00000000 0.00000000
vt 0.32116588 0.00000000
vt 0.64731573 1.00000000
vt 0.64731573 0.00000000
vt 1.00000000 0.00000000
vt 1.00000000 1.00000000
vt 0.32119200 1.00000000
vt 0.64737016 1.00000000
vt 0.32116260 0.25989314
vt 0.64731112 0.25989314
vt 0.32116260 0.50000220
vt 0.64731112 0.50000220
vt 0.32116260 0.74011024
vt 0.64731112 0.74011024
vt 0.00000000 0.25989314
vt 0.00000000 0.00003000
vt 0.32116260 0.00003000
vt 0.64731112 0.00003000
vt 0.99990895 0.00003000
vt 0.99990895 0.25989314
vt 0.00000000 0.50000220
vt 0.99990895 0.50000220
vt 0.00000000 0.74011024
vt 0.99990895 0.74011024
vt 0.32116260 1.00000000
vt 0.64731112 1.00000000
vt 0.99990895 1.00000000
vt 0.32116604 0.00000000
vt 0.64731582 0.00000000
vn -0.76604459 0.00000000 -0.64278744
vn -0.50000000 0.00000000 -0.86602540
vn -0.50000000 0.00000000 -0.86602540
vn -0.76604459 0.00000000 -0.64278744
vn -0.93969296 0.00000000 -0.34201920
vn -0.93969296 0.00000000 -0.34201920
vn -1.00000000 0.00000000 -0.00000000
vn -1.00000000 0.00000000 -0.00000000
vn -0.76606288 0.00000000 -0.64276563
vn -0.93971233 0.00000000 -0.34196598
vn -0.70775934 0.38265310 -0.59384621
vn -0.86819276 0.38265310 -0.31593975
vn -0.54169967 0.70709178 -0.45451367
vn -0.66449103 0.70709178 -0.24181166
vn -0.29316632 0.92387586 -0.24598151
vn -0.35962066 0.92387586 -0.13086778
vn -0.46194605 0.38265310 -0.80011402
vn -0.92389210 0.38265310 -0.00000000
vn -0.35356089 0.70709178 -0.61238543
vn -0.70712178 0.70709178 -0.00000000
vn -0.19134615 0.92387586 -0.33142125
vn -0.38269230 0.92387586 -0.00000000
vn 0.00000000 1.00000000 0.00000000
s 1
usemtl Leaves_Gold
f 125/157/125 126/158/126 128/160/128
f 128/160/128 130/162/130 133/165/133
f 135/167/135 133/175/133 129/187/129
f 135/167/135 138/170/138 137/169/137
f 137/169/137 140/172/140 139/171/139
f 147/183/147 145/181/145 139/171/139
f 145/181/145 143/179/143 139/171/139
f 146/182/146 147/185/147 140/172/140
f 147/184/147 139/171/139 140/172/140
f 144/180/144 146/182/146 140/172/140
f 143/179/143 137/169/137 139/171/139
f 143/179/143 141/173/141 137/169/137
f 144/180/144 140/172/140 138/170/138
f 137/169/137 138/170/138 140/172/140
f 142/178/142 138/170/138 136/168/136
f 134/176/134 142/178/142 136/168/136
f 131/163/131 132/164/132 134/166/134
f 134/176/134 132/177/132 142/178/142
f 142/178/142 144/180/144 138/170/138
f 135/167/135 136/168/136 138/170/138
f 141/173/141 135/167/135 137/169/137
f 129/187/129 134/176/134 135/167/135
f 134/176/134 136/168/136 135/167/135
f 133/175/133 135/167/135 141/173/141
f 130/162/130 134/166/134 129/161/129
f 130/162/130 131/163/131 134/166/134
f 130/162/130 129/161/129 133/165/133
f 126/158/126 127/159/127 128/160/128
f 141/173/141 125/186/125 133/175/133
f 141/173/141 126/174/126 125/186/125
f 133/165/133 125/157/125 128/160/128
