mtllib Terrain_Path_Hill.mtl
o Hidden
g Hidden
v -0.50000000 0.00000000 -0.50000000
v 2.50000000 1.00000000 -0.50000000
v 2.50000000 -1.00000000 -0.50000000
v -0.50000000 -1.00000000 -0.50000000
v 0.01492507 0.12033777 -0.50000000
v 0.49737231 0.34165381 -0.50000000
v 0.97531811 0.57700606 -0.50000000
v 1.46370118 0.78727651 -0.50000000
v 1.97250326 0.94052872 -0.50000000
v -0.50000000 -1.00000000 0.50000000
v -0.50000000 0.00000000 0.50000000
v 2.50000000 1.00000000 0.50000000
v 2.50000000 -1.00000000 0.50000000
v 1.97250326 0.94052872 0.50000000
v 1.46370118 0.78727651 0.50000000
v 0.97531811 0.57700606 0.50000000
v 0.49737231 0.34165381 0.50000000
v 0.01492507 0.12033777 0.50000000
vt 0.50000000 0.00000000
vt 1.00000000 1.00000000
vt 0.00000000 1.00000000
vt 0.00000000 0.00000000
vt 0.56016334 0.17163231
vt 0.67082690 0.33245744
vt 0.78847831 0.49173795
vt 0.89363838 0.65456729
vt 0.97026475 0.82416894
vt 0.00000000 0.00000000
vt 1.00000000 0.00000000
vt 1.00000000 1.00000000
vt 0.00000000 1.00000000
vt 0.50000000 0.00000000
vt 1.00000000 1.00000000
vt 0.00000000 1.00000000
vt 0.00000000 0.00000000
vt 0.97026475 0.82416894
vt 0.89363838 0.65456729
vt 0.78847831 0.49173795
vt 0.67082690 0.33245744
vt 0.56016334 0.17163231
vt 0.00000000 0.00000000
vt 1.00000000 0.00000000
vt 1.00000000 1.00000000
vt 0.00000000 1.00000000
vt 0.00000000 0.00000000
vt 1.00000000 0.00000000
vt 1.00000000 1.00000000
vt 0.00000000 1.00000000
vn -0.00000000 0.00000000 -1.00000000
vn -0.00000000 0.00000000 -1.00000000
vn -0.00000000 0.00000000 -1.00000000
vn -0.00000000 0.00000000 -1.00000000
vn -0.00000000 0.00000000 -1.00000000
vn -0.00000000 0.00000000 -1.00000000
vn -0.00000000 0.00000000 -1.00000000
vn -0.00000000 0.00000000 -1.00000000
vn -0.00000000 0.00000000 -1.00000000
vn -1.00000000 0.00000000 0.00000000
vn -1.00000000 0.00000000 0.00000000
vn -1.00000000 0.00000000 0.00000000
vn -1.00000000 0.00000000 0.00000000
vn 0.00000000 -0.00000000 1.00000000
vn 0.00000000 -0.00000000 1.00000000
vn 0.00000000 -0.00000000 1.00000000
vn 0.00000000 -0.00000000 1.00000000
vn 0.00000000 -0.00000000 1.00000000
vn 0.00000000 -0.00000000 1.00000000
vn 0.00000000 -0.00000000 1.00000000
vn 0.00000000 -0.00000000 1.00000000
vn 0.00000000 -0.00000000 1.00000000
vn 0.00000000 -1.00000000 -0.00000000
vn 0.00000000 -1.00000000 -0.00000000
vn 0.00000000 -1.00000000 -0.00000000
vn 0.00000000 -1.00000000 -0.00000000
vn 1.00000000 0.00000000 -0.00000000
vn 1.00000000 0.00000000 -0.00000000
vn 1.00000000 0.00000000 -0.00000000
vn 1.00000000 0.00000000 -0.00000000
s 1
usemtl Hidden
f 4/4/4 1/1/1 5/5/5
f 6/6/6 3/3/3 4/4/4
f 7/7/7 8/8/8 3/3/3
f 8/8/8 9/9/9 3/3/3
f 9/9/9 2/2/2 3/3/3
f 6/6/6 7/7/7 3/3/3
f 4/4/4 5/5/5 6/6/6
s 2
f 11/13/13 1/12/12 4/11/11
f 11/13/13 4/11/11 10/10/10
s 3
f 18/22/22 11/14/14 10/17/17
f 10/17/17 13/16/16 17/21/21
f 13/16/16 16/20/20 17/21/21
f 13/16/16 15/19/19 16/20/20
f 13/16/16 14/18/18 15/19/19
f 13/16/16 12/15/15 14/18/18
f 17/21/21 18/22/22 10/17/17
s 4
f 10/26/26 4/25/25 3/24/24
f 10/26/26 3/24/24 13/23/23
s 5
f 13/30/30 3/29/29 12/27/27
f 3/29/29 2/28/28 12/27/27
o Path
g Path
v 0.01495336 0.12034892 0.50000000
v -0.50000000 0.00000000 0.50000000
v -0.50000000 0.00000000 -0.50000000
v 0.01495336 0.12034892 -0.50000000
v 0.49760482 0.34176908 0.50000000
v 0.49760482 0.34176908 -0.50000000
v 0.97542229 0.57705546 0.50000000
v 0.97542229 0.57705546 -0.50000000
v 1.46370055 0.78727627 0.50000000
v 1.46370055 0.78727627 -0.50000000
v 1.97249969 0.94052794 0.50000000
v 1.97249969 0.94052794 -0.50000000
v 2.50000000 1.00000000 -0.50000000
v 2.50000000 1.00000000 0.50000000
vt 0.00000000 0.22004563
vt 0.00000000 0.00000000
vt 1.00000000 0.00000000
vt 1.00000000 0.22004563
vt 0.00000000 0.39465986
vt 1.00000000 0.39465986
vt 0.00000000 0.55058992
vt 1.00000000 0.55058992
vt 0.00000000 0.69950913
vt 1.00000000 0.69950913
vt 0.00000000 0.84840841
vt 1.00000000 0.84840841
vt 1.00000000 1.00000000
vt 0.00000000 1.00000000
vn -0.36678604 0.93030533 0.00000000
vn 0.00000000 1.00000000 0.00000000
vn 0.00000000 1.00000000 0.00000000
vn -0.36678604 0.93030533 0.00000000
vn -0.44415405 0.89595044 0.00000000
vn -0.44415405 0.89595044 0.00000000
vn -0.42841666 0.90358130 0.00000000
vn -0.42841666 0.90358130 0.00000000
vn -0.35241707 0.93584305 0.00000000
vn -0.35241707 0.93584305 0.00000000
vn -0.21216242 0.97723442 0.00000000
vn -0.21216242 0.97723442 0.00000000
vn 0.00000000 1.00000000 0.00000000
vn 0.00000000 1.00000000 0.00000000
s 1
usemtl Path
f 22/34/34 21/33/33 19/31/31
f 21/33/33 20/32/32 19/31/31
f 22/34/34 19/31/31 23/35/35
f 24/36/36 23/35/35 25/37/37
f 26/38/38 25/37/37 27/39/39
f 28/40/40 27/39/39 29/41/41
f 29/41/41 31/43/43 30/42/42
f 29/41/41 32/44/44 31/43/43
f 30/42/42 28/40/40 29/41/41
f 28/40/40 26/38/38 27/39/39
f 26/38/38 24/36/36 25/37/37
f 24/36/36 22/34/34 23/35/35
